Bungee_Layers_Rotated-Inline.ufo
<glyph name="exclam" format="1">
  <advance width="830"/>
  <unicode hex="0021"/>
  <unicode hex="FF01"/>
  <outline>
    <contour>
      <point x="695.0" y="366" type="line"/>
      <point x="652.0" y="366" type="line"/>
      <point x="652.0" y="356" type="line"/>
      <point x="695.0" y="356" type="line"/>
    </contour>
    <contour>
      <point x="145.0" y="356" type="line"/>
      <point x="423.0" y="356" type="line"/>
      <point x="423.0" y="366" type="line"/>
      <point x="145.0" y="366" type="line"/>
    </contour>
  </outline>
</glyph>
<glyph name="numbersign" format="2">
  <advance width="880"/>
  <unicode hex="0023"/>
  <outline>
    <contour>
      <point x="570.0" y="202" type="line"/>
      <point x="305.0" y="240" type="line"/>
      <point x="305.0" y="519" type="line"/>
      <point x="570.0" y="481" type="line"/>
    </contour>
    <contour>
      <point x="580.0" y="110" type="line"/>
      <point x="580.0" y="191" type="line"/>
      <point x="710.0" y="172" type="line"/>
      <point x="710.0" y="182" type="line"/>
      <point x="580.0" y="201" type="line"/>
      <point x="580.0" y="480" type="line"/>
      <point x="710.0" y="461" type="line"/>
      <point x="710.0" y="471" type="line"/>
      <point x="580.0" y="490" type="line"/>
      <point x="580.0" y="574" type="line"/>
      <point x="570.0" y="574" type="line"/>
      <point x="570.0" y="491" type="line"/>
      <point x="305.0" y="529" type="line"/>
      <point x="305.0" y="610" type="line"/>
      <point x="295.0" y="610" type="line"/>
      <point x="295.0" y="530" type="line"/>
      <point x="170.0" y="548" type="line"/>
      <point x="170.0" y="538" type="line"/>
      <point x="295.0" y="520" type="line"/>
      <point x="295.0" y="241" type="line"/>
      <point x="170.0" y="259" type="line"/>
      <point x="170.0" y="249" type="line"/>
      <point x="295.0" y="231" type="line"/>
      <point x="295.0" y="146" type="line"/>
      <point x="305.0" y="146" type="line"/>
      <point x="305.0" y="230" type="line"/>
      <point x="570.0" y="192" type="line"/>
      <point x="570.0" y="110" type="line"/>
    </contour>
  </outline>
</glyph>
<glyph name="dollar" format="1">
  <advance width="1010"/>
  <unicode hex="0024"/>
  <outline>
    <contour>
      <point x="766.0" y="180" type="line"/>
      <point x="776.0" y="180" type="line"/>
      <point x="776.0" y="361" type="line"/>
      <point x="865.0" y="361" type="line"/>
      <point x="865.0" y="371" type="line"/>
      <point x="776.0" y="371" type="line"/>
      <point x="776.0" y="429" type="line" smooth="yes"/>
      <point x="776.0" y="497"/>
      <point x="734.0" y="540"/>
      <point x="675.0" y="540" type="curve" smooth="yes"/>
      <point x="617.0" y="540" type="line" smooth="yes"/>
      <point x="547.0" y="540"/>
      <point x="527.0" y="511"/>
      <point x="519.0" y="471" type="curve" smooth="yes"/>
      <point x="476.0" y="260" type="line" smooth="yes"/>
      <point x="470.0" y="229"/>
      <point x="456.0" y="209"/>
      <point x="409.0" y="209" type="curve" smooth="yes"/>
      <point x="327.0" y="209" type="line" smooth="yes"/>
      <point x="280.0" y="209"/>
      <point x="246.0" y="245"/>
      <point x="246.0" y="301" type="curve" smooth="yes"/>
      <point x="246.0" y="523" type="line"/>
      <point x="236.0" y="523" type="line"/>
      <point x="236.0" y="371" type="line"/>
      <point x="145.0" y="371" type="line"/>
      <point x="145.0" y="361" type="line"/>
      <point x="236.0" y="361" type="line"/>
      <point x="236.0" y="301" type="line" smooth="yes"/>
      <point x="236.0" y="239"/>
      <point x="274.0" y="199"/>
      <point x="327.0" y="199" type="curve" smooth="yes"/>
      <point x="409.0" y="199" type="line" smooth="yes"/>
      <point x="464.0" y="199"/>
      <point x="479.0" y="223"/>
      <point x="486.0" y="258" type="curve" smooth="yes"/>
      <point x="529.0" y="469" type="line" smooth="yes"/>
      <point x="537.0" y="506"/>
      <point x="554.0" y="530"/>
      <point x="617.0" y="530" type="curve" smooth="yes"/>
      <point x="675.0" y="530" type="line" smooth="yes"/>
      <point x="728.0" y="530"/>
      <point x="766.0" y="491"/>
      <point x="766.0" y="429" type="curve" smooth="yes"/>
    </contour>
  </outline>
</glyph>
<glyph name="percent" format="1">
  <advance width="890"/>
  <unicode hex="0025"/>
  <unicode hex="FF05"/>
  <outline>
    <contour>
      <point x="573.0" y="614" type="line" smooth="yes"/>
      <point x="515.0" y="614"/>
      <point x="493.0" y="586"/>
      <point x="493.0" y="514" type="curve" smooth="yes"/>
      <point x="493.0" y="443"/>
      <point x="515.0" y="413"/>
      <point x="573.0" y="413" type="curve" smooth="yes"/>
      <point x="670.0" y="413" type="line" smooth="yes"/>
      <point x="728.0" y="413"/>
      <point x="749.0" y="443"/>
      <point x="749.0" y="514" type="curve" smooth="yes"/>
      <point x="749.0" y="586"/>
      <point x="728.0" y="614"/>
      <point x="670.0" y="614" type="curve" smooth="yes"/>
    </contour>
    <contour>
      <point x="739.0" y="514" type="curve" smooth="yes"/>
      <point x="739.0" y="453"/>
      <point x="722.0" y="423"/>
      <point x="670.0" y="423" type="curve" smooth="yes"/>
      <point x="573.0" y="423" type="line" smooth="yes"/>
      <point x="521.0" y="423"/>
      <point x="503.0" y="453"/>
      <point x="503.0" y="514" type="curve" smooth="yes"/>
      <point x="503.0" y="576"/>
      <point x="521.0" y="604"/>
      <point x="573.0" y="604" type="curve" smooth="yes"/>
      <point x="670.0" y="604" type="line" smooth="yes"/>
      <point x="722.0" y="604"/>
      <point x="739.0" y="576"/>
    </contour>
    <contour>
      <point x="715.0" y="186" type="line"/>
      <point x="175.0" y="547" type="line"/>
      <point x="175.0" y="535" type="line"/>
      <point x="715.0" y="174" type="line"/>
    </contour>
    <contour>
      <point x="221.0" y="307" type="line" smooth="yes"/>
      <point x="163.0" y="307"/>
      <point x="141.0" y="279"/>
      <point x="141.0" y="207" type="curve" smooth="yes"/>
      <point x="141.0" y="136"/>
      <point x="163.0" y="106"/>
      <point x="221.0" y="106" type="curve" smooth="yes"/>
      <point x="318.0" y="106" type="line" smooth="yes"/>
      <point x="376.0" y="106"/>
      <point x="397.0" y="136"/>
      <point x="397.0" y="207" type="curve" smooth="yes"/>
      <point x="397.0" y="279"/>
      <point x="376.0" y="307"/>
      <point x="318.0" y="307" type="curve" smooth="yes"/>
    </contour>
    <contour>
      <point x="387.0" y="207" type="curve" smooth="yes"/>
      <point x="387.0" y="146"/>
      <point x="370.0" y="116"/>
      <point x="318.0" y="116" type="curve" smooth="yes"/>
      <point x="221.0" y="116" type="line" smooth="yes"/>
      <point x="169.0" y="116"/>
      <point x="151.0" y="146"/>
      <point x="151.0" y="207" type="curve" smooth="yes"/>
      <point x="151.0" y="269"/>
      <point x="169.0" y="297"/>
      <point x="221.0" y="297" type="curve" smooth="yes"/>
      <point x="318.0" y="297" type="line" smooth="yes"/>
      <point x="370.0" y="297"/>
      <point x="387.0" y="269"/>
    </contour>
  </outline>
</glyph>
<glyph name="ampersand" format="1">
  <advance width="834"/>
  <unicode hex="0026"/>
  <unicode hex="FF06"/>
  <outline>
    <contour>
      <point x="513.0" y="150" type="curve" smooth="yes"/>
      <point x="574.0" y="150" type="line" smooth="yes"/>
      <point x="648.0" y="150"/>
      <point x="682.0" y="188"/>
      <point x="682.0" y="267" type="curve" smooth="yes"/>
      <point x="682.0" y="473" type="line" smooth="yes"/>
      <point x="682.0" y="532"/>
      <point x="653.0" y="566"/>
      <point x="591.0" y="566" type="curve" smooth="yes"/>
      <point x="466.0" y="566" type="line"/>
      <point x="466.0" y="631" type="line"/>
      <point x="456.0" y="631" type="line"/>
      <point x="456.0" y="556" type="line"/>
      <point x="591.0" y="556" type="line" smooth="yes"/>
      <point x="645.0" y="556"/>
      <point x="672.0" y="526"/>
      <point x="672.0" y="473" type="curve" smooth="yes"/>
      <point x="672.0" y="273" type="line" smooth="yes"/>
      <point x="672.0" y="194"/>
      <point x="642.0" y="160"/>
      <point x="574.0" y="160" type="curve" smooth="yes"/>
      <point x="513.0" y="160" type="line" smooth="yes"/>
      <point x="453.0" y="160"/>
      <point x="409.0" y="196"/>
      <point x="409.0" y="272" type="curve" smooth="yes"/>
      <point x="409.0" y="339" type="line"/>
      <point x="399.0" y="339" type="line"/>
      <point x="399.0" y="329" type="line" smooth="yes"/>
      <point x="399.0" y="266"/>
      <point x="368.0" y="237"/>
      <point x="303.0" y="237" type="curve" smooth="yes"/>
      <point x="254.0" y="237" type="line" smooth="yes"/>
      <point x="182.0" y="237"/>
      <point x="152.0" y="270"/>
      <point x="152.0" y="345" type="curve" smooth="yes"/>
      <point x="152.0" y="430" type="line"/>
      <point x="142.0" y="430" type="line"/>
      <point x="142.0" y="345" type="line" smooth="yes"/>
      <point x="142.0" y="264"/>
      <point x="174.0" y="227"/>
      <point x="252.0" y="227" type="curve" smooth="yes"/>
      <point x="303.0" y="227" type="line" smooth="yes"/>
      <point x="355.0" y="227"/>
      <point x="386.0" y="244"/>
      <point x="400.0" y="279" type="curve"/>
      <point x="400.0" y="272" type="line" smooth="yes"/>
      <point x="400.0" y="189"/>
      <point x="447.0" y="150"/>
    </contour>
  </outline>
</glyph>
<glyph name="quotesingle" format="1">
  <advance width="519"/>
  <unicode hex="0027"/>
  <unicode hex="FF07"/>
  <outline>
    <contour>
      <point x="162.0" y="356" type="line"/>
      <point x="357.0" y="356" type="line"/>
      <point x="357.0" y="366" type="line"/>
      <point x="162.0" y="366" type="line"/>
    </contour>
  </outline>
</glyph>
<glyph name="parenleft" format="1">
  <advance width="429"/>
  <unicode hex="0028"/>
  <outline>
    <contour>
      <point x="294.0" y="22" type="line"/>
      <point x="215.0" y="22"/>
      <point x="167.0" y="43"/>
      <point x="167.0" y="125" type="curve" smooth="yes"/>
      <point x="167.0" y="596" type="line" smooth="yes"/>
      <point x="167.0" y="678"/>
      <point x="214.0" y="699"/>
      <point x="294.0" y="699" type="curve"/>
      <point x="294.0" y="709" type="line"/>
      <point x="206.0" y="709"/>
      <point x="157.0" y="684"/>
      <point x="157.0" y="596" type="curve" smooth="yes"/>
      <point x="157.0" y="125" type="line" smooth="yes"/>
      <point x="157.0" y="37"/>
      <point x="207.0" y="12"/>
      <point x="294.0" y="12" type="curve"/>
    </contour>
  </outline>
</glyph>
<glyph name="parenright" format="1">
  <advance width="429"/>
  <unicode hex="0029"/>
  <outline>
    <contour>
      <point x="135.0" y="699" type="line"/>
      <point x="214.0" y="699"/>
      <point x="262.0" y="678"/>
      <point x="262.0" y="596" type="curve" smooth="yes"/>
      <point x="262.0" y="125" type="line" smooth="yes"/>
      <point x="262.0" y="43"/>
      <point x="215.0" y="22"/>
      <point x="135.0" y="22" type="curve"/>
      <point x="135.0" y="12" type="line"/>
      <point x="223.0" y="12"/>
      <point x="272.0" y="37"/>
      <point x="272.0" y="125" type="curve" smooth="yes"/>
      <point x="272.0" y="596" type="line" smooth="yes"/>
      <point x="272.0" y="684"/>
      <point x="222.0" y="709"/>
      <point x="135.0" y="709" type="curve"/>
    </contour>
  </outline>
</glyph>
<glyph name="asterisk" format="1">
  <advance width="742"/>
  <unicode hex="002A"/>
  <unicode hex="FF0A"/>
  <outline>
    <contour>
      <point x="526.0" y="246" type="line"/>
      <point x="532.0" y="254" type="line"/>
      <point x="377.0" y="363" type="line"/>
      <point x="532.0" y="472" type="line"/>
      <point x="526.0" y="480" type="line"/>
      <point x="374.0" y="374" type="line"/>
      <point x="318.0" y="546" type="line"/>
      <point x="308.0" y="542" type="line"/>
      <point x="365.0" y="368" type="line"/>
      <point x="170.0" y="368" type="line"/>
      <point x="170.0" y="358" type="line"/>
      <point x="365.0" y="358" type="line"/>
      <point x="308.0" y="184" type="line"/>
      <point x="318.0" y="180" type="line"/>
      <point x="374.0" y="352" type="line"/>
    </contour>
  </outline>
</glyph>
<glyph name="plus" format="1">
  <advance width="718"/>
  <unicode hex="002B"/>
  <outline>
    <contour>
      <point x="354.0" y="153" type="line"/>
      <point x="364.0" y="153" type="line"/>
      <point x="364.0" y="355" type="line"/>
      <point x="566.0" y="355" type="line"/>
      <point x="566.0" y="365" type="line"/>
      <point x="364.0" y="365" type="line"/>
      <point x="364.0" y="567" type="line"/>
      <point x="354.0" y="567" type="line"/>
      <point x="354.0" y="365" type="line"/>
      <point x="152.0" y="365" type="line"/>
      <point x="152.0" y="355" type="line"/>
      <point x="354.0" y="355" type="line"/>
    </contour>
  </outline>
</glyph>
<glyph name="comma" format="2">
  <advance width="499"/>
  <unicode hex="002C"/>
  <outline>
    <contour>
      <point x="177.0" y="427" type="line"/>
      <point x="177.0" y="293" type="line"/>
      <point x="187.0" y="293" type="line"/>
      <point x="187.0" y="417" type="line"/>
      <point x="296.0" y="417" type="line" smooth="yes"/>
      <point x="350.0" y="417"/>
      <point x="377.0" y="387"/>
      <point x="377.0" y="339" type="curve" smooth="yes"/>
      <point x="377.0" y="293" type="line"/>
      <point x="387.0" y="293" type="line"/>
      <point x="387.0" y="339" type="line" smooth="yes"/>
      <point x="387.0" y="393"/>
      <point x="357.0" y="427"/>
      <point x="296.0" y="427" type="curve" smooth="yes"/>
    </contour>
  </outline>
</glyph>
<glyph name="hyphen" format="1">
  <advance width="420"/>
  <unicode hex="002D"/>
  <unicode hex="00AD"/>
  <unicode hex="2010"/>
  <outline>
    <contour>
      <point x="290.0" y="366" type="line"/>
      <point x="130.0" y="366" type="line"/>
      <point x="130.0" y="356" type="line"/>
      <point x="290.0" y="356" type="line"/>
    </contour>
  </outline>
</glyph>
<glyph name="period" format="1">
  <advance width="435"/>
  <unicode hex="002E"/>
  <outline>
    <contour>
      <point x="265.0" y="354" type="line"/>
      <point x="265.0" y="364" type="line"/>
      <point x="170.0" y="364" type="line"/>
      <point x="170.0" y="354" type="line"/>
    </contour>
  </outline>
</glyph>
<glyph name="slash" format="1">
  <advance width="909"/>
  <unicode hex="002F"/>
  <outline>
    <contour>
      <point x="95.0" y="407" type="line"/>
      <point x="815.0" y="303" type="line"/>
      <point x="815.0" y="313" type="line"/>
      <point x="95.0" y="417" type="line"/>
    </contour>
  </outline>
</glyph>
<glyph name="zero" format="2">
  <advance width="864"/>
  <unicode hex="0030"/>
  <anchor x="45.0" y="365.0" name="top"/>
  <anchor x="792.0" y="365.0" name="bottom"/>
  <outline>
    <contour>
      <point x="580.0" y="552" type="curve" smooth="yes"/>
      <point x="285.0" y="552" type="line" smooth="yes"/>
      <point x="204.0" y="552"/>
      <point x="150.0" y="512"/>
      <point x="150.0" y="359" type="curve" smooth="yes"/>
      <point x="150.0" y="207"/>
      <point x="204.0" y="168"/>
      <point x="285.0" y="168" type="curve" smooth="yes"/>
      <point x="580.0" y="168" type="line" smooth="yes"/>
      <point x="661.0" y="168"/>
      <point x="715.0" y="207"/>
      <point x="715.0" y="359" type="curve" smooth="yes"/>
      <point x="715.0" y="512"/>
      <point x="661.0" y="552"/>
    </contour>
    <contour>
      <point x="580.0" y="178" type="curve" smooth="yes"/>
      <point x="285.0" y="178" type="line" smooth="yes"/>
      <point x="210.0" y="178"/>
      <point x="160.0" y="215"/>
      <point x="160.0" y="359" type="curve" smooth="yes"/>
      <point x="160.0" y="504"/>
      <point x="210.0" y="542"/>
      <point x="285.0" y="542" type="curve" smooth="yes"/>
      <point x="580.0" y="542" type="line" smooth="yes"/>
      <point x="655.0" y="542"/>
      <point x="705.0" y="504"/>
      <point x="705.0" y="359" type="curve" smooth="yes"/>
      <point x="705.0" y="215"/>
      <point x="655.0" y="178"/>
    </contour>
  </outline>
</glyph>
<glyph name="one" format="1">
  <advance width="872"/>
  <unicode hex="0031"/>
  <unicode hex="FF11"/>
  <outline>
    <contour>
      <point x="692.0" y="367" type="line"/>
      <point x="692.0" y="217" type="line"/>
      <point x="702.0" y="217" type="line"/>
      <point x="702.0" y="531" type="line"/>
      <point x="692.0" y="531" type="line"/>
      <point x="692.0" y="377" type="line"/>
      <point x="162.0" y="377" type="line"/>
      <point x="162.0" y="217" type="line"/>
      <point x="172.0" y="217" type="line"/>
      <point x="172.0" y="367" type="line"/>
    </contour>
  </outline>
</glyph>
<glyph name="two" format="1">
  <advance width="872"/>
  <unicode hex="0032"/>
  <unicode hex="FF12"/>
  <outline>
    <contour>
      <point x="390.0" y="511" type="curve" smooth="yes"/>
      <point x="462.0" y="224" type="line" smooth="yes"/>
      <point x="472.0" y="183"/>
      <point x="495.0" y="169"/>
      <point x="544.0" y="169" type="curve" smooth="yes"/>
      <point x="702.0" y="169" type="line"/>
      <point x="702.0" y="570" type="line"/>
      <point x="692.0" y="570" type="line"/>
      <point x="692.0" y="178" type="line"/>
      <point x="544.0" y="178" type="line" smooth="yes"/>
      <point x="499.0" y="178"/>
      <point x="481.0" y="189"/>
      <point x="471.0" y="228" type="curve" smooth="yes"/>
      <point x="399.0" y="515" type="line" smooth="yes"/>
      <point x="393.0" y="537"/>
      <point x="374.0" y="550"/>
      <point x="343.0" y="550" type="curve" smooth="yes"/>
      <point x="249.0" y="550" type="line" smooth="yes"/>
      <point x="182.0" y="550"/>
      <point x="162.0" y="511"/>
      <point x="162.0" y="443" type="curve" smooth="yes"/>
      <point x="162.0" y="170" type="line"/>
      <point x="172.0" y="170" type="line"/>
      <point x="172.0" y="443" type="line" smooth="yes"/>
      <point x="172.0" y="503"/>
      <point x="188.0" y="540"/>
      <point x="249.0" y="540" type="curve" smooth="yes"/>
      <point x="343.0" y="540" type="line" smooth="yes"/>
      <point x="368.0" y="540"/>
      <point x="385.0" y="529"/>
    </contour>
  </outline>
</glyph>
<glyph name="three" format="1">
  <advance width="864"/>
  <unicode hex="0033"/>
  <unicode hex="FF13"/>
  <outline>
    <contour>
      <point x="433.0" y="438" type="line" smooth="yes"/>
      <point x="433.0" y="515"/>
      <point x="466.0" y="546"/>
      <point x="533.0" y="546" type="curve" smooth="yes"/>
      <point x="602.0" y="546" type="line" smooth="yes"/>
      <point x="657.0" y="546"/>
      <point x="692.0" y="525"/>
      <point x="692.0" y="425" type="curve" smooth="yes"/>
      <point x="692.0" y="150" type="line"/>
      <point x="702.0" y="150" type="line"/>
      <point x="702.0" y="425" type="line" smooth="yes"/>
      <point x="702.0" y="537"/>
      <point x="661.0" y="556"/>
      <point x="602.0" y="556" type="curve" smooth="yes"/>
      <point x="533.0" y="556" type="line" smooth="yes"/>
      <point x="463.0" y="556"/>
      <point x="425.0" y="523"/>
      <point x="425.0" y="440" type="curve" smooth="yes"/>
      <point x="425.0" y="424" type="line"/>
      <point x="412.0" y="484"/>
      <point x="370.0" y="490"/>
      <point x="332.0" y="490" type="curve" smooth="yes"/>
      <point x="268.0" y="490" type="line" smooth="yes"/>
      <point x="210.0" y="490"/>
      <point x="162.0" y="470"/>
      <point x="162.0" y="359" type="curve" smooth="yes"/>
      <point x="162.0" y="150" type="line"/>
      <point x="172.0" y="150" type="line"/>
      <point x="172.0" y="359" type="line"/>
      <point x="172.0" y="457"/>
      <point x="212.0" y="480"/>
      <point x="264.0" y="480" type="curve" smooth="yes"/>
      <point x="332.0" y="480" type="line" smooth="yes"/>
      <point x="380.0" y="480"/>
      <point x="423.0" y="470"/>
      <point x="423.0" y="369" type="curve" smooth="yes"/>
      <point x="423.0" y="231" type="line"/>
      <point x="433.0" y="231" type="line"/>
    </contour>
  </outline>
</glyph>
<glyph name="four" format="1">
  <advance width="842"/>
  <unicode hex="0034"/>
  <unicode hex="FF14"/>
  <outline>
    <contour>
      <point x="157.0" y="169" type="line"/>
      <point x="415.0" y="169" type="line" smooth="yes"/>
      <point x="485.0" y="169"/>
      <point x="520.0" y="203"/>
      <point x="520.0" y="280" type="curve" smooth="yes"/>
      <point x="520.0" y="542" type="line"/>
      <point x="697.0" y="542" type="line"/>
      <point x="697.0" y="552" type="line"/>
      <point x="157.0" y="552" type="line"/>
      <point x="157.0" y="542" type="line"/>
      <point x="510.0" y="542" type="line"/>
      <point x="510.0" y="280" type="line" smooth="yes"/>
      <point x="510.0" y="211"/>
      <point x="479.0" y="179"/>
      <point x="415.0" y="179" type="curve" smooth="yes"/>
      <point x="157.0" y="179" type="line"/>
    </contour>
  </outline>
</glyph>
<glyph name="five" format="2">
  <advance width="872"/>
  <unicode hex="0035"/>
  <outline>
    <contour>
      <point x="700.0" y="150" type="line"/>
      <point x="710.0" y="150" type="line"/>
      <point x="710.0" y="439" type="line" smooth="yes"/>
      <point x="710.0" y="522"/>
      <point x="680.0" y="553"/>
      <point x="612.0" y="553" type="curve" smooth="yes"/>
      <point x="524.0" y="553" type="line" smooth="yes"/>
      <point x="455.0" y="553"/>
      <point x="426.0" y="518"/>
      <point x="426.0" y="448" type="curve" smooth="yes"/>
      <point x="426.0" y="189" type="line"/>
      <point x="180.0" y="189" type="line"/>
      <point x="180.0" y="536" type="line"/>
      <point x="170.0" y="536" type="line"/>
      <point x="170.0" y="179" type="line"/>
      <point x="436.0" y="179" type="line"/>
      <point x="436.0" y="448" type="line" smooth="yes"/>
      <point x="436.0" y="510"/>
      <point x="461.0" y="543"/>
      <point x="524.0" y="543" type="curve" smooth="yes"/>
      <point x="612.0" y="543" type="line" smooth="yes"/>
      <point x="674.0" y="543"/>
      <point x="700.0" y="514"/>
      <point x="700.0" y="439" type="curve" smooth="yes"/>
    </contour>
  </outline>
</glyph>
<glyph name="six" format="2">
  <advance width="859"/>
  <unicode hex="0036"/>
  <outline>
    <contour>
      <point x="590.0" y="173" type="curve" smooth="yes"/>
      <point x="519.0" y="173" type="line"/>
      <point x="444.0" y="173"/>
      <point x="414.0" y="228"/>
      <point x="414.0" y="370" type="curve" smooth="yes"/>
      <point x="414.0" y="497"/>
      <point x="444.0" y="547"/>
      <point x="522.0" y="547" type="curve" smooth="yes"/>
      <point x="590.0" y="547" type="line" smooth="yes"/>
      <point x="673.0" y="547"/>
      <point x="706.0" y="496"/>
      <point x="706.0" y="367" type="curve" smooth="yes"/>
      <point x="706.0" y="228"/>
      <point x="673.0" y="173"/>
    </contour>
    <contour>
      <point x="272.0" y="163" type="curve" smooth="yes"/>
      <point x="590.0" y="163" type="line" smooth="yes"/>
      <point x="681.0" y="163"/>
      <point x="716.0" y="220"/>
      <point x="716.0" y="367" type="curve" smooth="yes"/>
      <point x="716.0" y="504"/>
      <point x="681.0" y="557"/>
      <point x="590.0" y="557" type="curve" smooth="yes"/>
      <point x="522.0" y="557" type="line" smooth="yes"/>
      <point x="437.0" y="557"/>
      <point x="404.0" y="504"/>
      <point x="404.0" y="370" type="curve" smooth="yes"/>
      <point x="404.0" y="255"/>
      <point x="423.0" y="194"/>
      <point x="471.0" y="173" type="curve"/>
      <point x="272.0" y="173" type="line" smooth="yes"/>
      <point x="189.0" y="173"/>
      <point x="167.0" y="220"/>
      <point x="167.0" y="297" type="curve" smooth="yes"/>
      <point x="167.0" y="499" type="line"/>
      <point x="157.0" y="499" type="line"/>
      <point x="157.0" y="297" type="line" smooth="yes"/>
      <point x="157.0" y="212"/>
      <point x="183.0" y="163"/>
    </contour>
  </outline>
</glyph>
<glyph name="seven" format="1">
  <advance width="857"/>
  <unicode hex="0037"/>
  <unicode hex="FF17"/>
  <outline>
    <contour>
      <point x="180.0" y="150" type="line"/>
      <point x="180.0" y="541" type="line"/>
      <point x="400.0" y="541" type="line" smooth="yes"/>
      <point x="425.0" y="541"/>
      <point x="441.0" y="532"/>
      <point x="446.0" y="512" type="curve" smooth="yes"/>
      <point x="494.0" y="304" type="line" smooth="yes"/>
      <point x="499.0" y="283"/>
      <point x="519.0" y="269"/>
      <point x="550.0" y="269" type="curve" smooth="yes"/>
      <point x="710.0" y="269" type="line"/>
      <point x="710.0" y="279" type="line"/>
      <point x="550.0" y="279" type="line" smooth="yes"/>
      <point x="525.0" y="279"/>
      <point x="508.0" y="291"/>
      <point x="504.0" y="308" type="curve" smooth="yes"/>
      <point x="456.0" y="516" type="line" smooth="yes"/>
      <point x="450.0" y="540"/>
      <point x="431.0" y="551"/>
      <point x="400.0" y="551" type="curve" smooth="yes"/>
      <point x="170.0" y="551" type="line"/>
      <point x="170.0" y="150" type="line"/>
    </contour>
  </outline>
</glyph>
<glyph name="eight" format="1">
  <advance width="864"/>
  <unicode hex="0038"/>
  <unicode hex="FF18"/>
  <outline>
    <contour>
      <point x="527.0" y="171" type="line" smooth="yes"/>
      <point x="469.0" y="171"/>
      <point x="428.0" y="219"/>
      <point x="428.0" y="361" type="curve" smooth="yes"/>
      <point x="428.0" y="503"/>
      <point x="468.0" y="550"/>
      <point x="526.0" y="550" type="curve" smooth="yes"/>
      <point x="619.0" y="550" type="line" smooth="yes"/>
      <point x="677.0" y="550"/>
      <point x="715.0" y="504"/>
      <point x="715.0" y="361" type="curve" smooth="yes"/>
      <point x="715.0" y="218"/>
      <point x="677.0" y="171"/>
      <point x="619.0" y="171" type="curve" smooth="yes"/>
    </contour>
    <contour>
      <point x="527.0" y="161" type="curve" smooth="yes"/>
      <point x="619.0" y="161" type="line" smooth="yes"/>
      <point x="681.0" y="161"/>
      <point x="725.0" y="202"/>
      <point x="725.0" y="361" type="curve" smooth="yes"/>
      <point x="725.0" y="520"/>
      <point x="681.0" y="560"/>
      <point x="619.0" y="560" type="curve" smooth="yes"/>
      <point x="526.0" y="560" type="line" smooth="yes"/>
      <point x="476.0" y="560"/>
      <point x="436.0" y="532"/>
      <point x="423.0" y="437" type="curve"/>
      <point x="412.0" y="501"/>
      <point x="384.0" y="527"/>
      <point x="337.0" y="527" type="curve" smooth="yes"/>
      <point x="242.0" y="527" type="line" smooth="yes"/>
      <point x="172.0" y="527"/>
      <point x="140.0" y="478"/>
      <point x="140.0" y="361" type="curve" smooth="yes"/>
      <point x="140.0" y="244"/>
      <point x="172.0" y="194"/>
      <point x="234.0" y="194" type="curve" smooth="yes"/>
      <point x="337.0" y="194" type="line" smooth="yes"/>
      <point x="384.0" y="194"/>
      <point x="412.0" y="221"/>
      <point x="423.0" y="285" type="curve"/>
      <point x="436.0" y="190"/>
      <point x="477.0" y="161"/>
    </contour>
    <contour>
      <point x="234.0" y="204" type="line" smooth="yes"/>
      <point x="176.0" y="204"/>
      <point x="150.0" y="256"/>
      <point x="150.0" y="361" type="curve" smooth="yes"/>
      <point x="150.0" y="466"/>
      <point x="176.0" y="517"/>
      <point x="242.0" y="517" type="curve" smooth="yes"/>
      <point x="337.0" y="517" type="line" smooth="yes"/>
      <point x="395.0" y="517"/>
      <point x="418.0" y="467"/>
      <point x="418.0" y="361" type="curve" smooth="yes"/>
      <point x="418.0" y="255"/>
      <point x="395.0" y="204"/>
      <point x="337.0" y="204" type="curve" smooth="yes"/>
    </contour>
  </outline>
</glyph>
<glyph name="nine" format="1">
  <advance width="860"/>
  <unicode hex="0039"/>
  <unicode hex="FF19"/>
  <outline>
    <contour>
      <point x="338.0" y="173" type="curve" smooth="yes"/>
      <point x="270.0" y="173" type="line" smooth="yes"/>
      <point x="187.0" y="173"/>
      <point x="154.0" y="224"/>
      <point x="154.0" y="353" type="curve" smooth="yes"/>
      <point x="154.0" y="492"/>
      <point x="187.0" y="547"/>
      <point x="270.0" y="547" type="curve" smooth="yes"/>
      <point x="341.0" y="547" type="line"/>
      <point x="416.0" y="547"/>
      <point x="446.0" y="492"/>
      <point x="446.0" y="350" type="curve" smooth="yes"/>
      <point x="446.0" y="223"/>
      <point x="416.0" y="173"/>
    </contour>
    <contour>
      <point x="338.0" y="163" type="line" smooth="yes"/>
      <point x="423.0" y="163"/>
      <point x="456.0" y="216"/>
      <point x="456.0" y="350" type="curve" smooth="yes"/>
      <point x="456.0" y="465"/>
      <point x="437.0" y="526"/>
      <point x="389.0" y="547" type="curve"/>
      <point x="588.0" y="547" type="line" smooth="yes"/>
      <point x="671.0" y="547"/>
      <point x="693.0" y="500"/>
      <point x="693.0" y="423" type="curve" smooth="yes"/>
      <point x="693.0" y="221" type="line"/>
      <point x="703.0" y="221" type="line"/>
      <point x="703.0" y="423" type="line" smooth="yes"/>
      <point x="703.0" y="508"/>
      <point x="677.0" y="557"/>
      <point x="588.0" y="557" type="curve" smooth="yes"/>
      <point x="270.0" y="557" type="line" smooth="yes"/>
      <point x="179.0" y="557"/>
      <point x="144.0" y="500"/>
      <point x="144.0" y="353" type="curve" smooth="yes"/>
      <point x="144.0" y="216"/>
      <point x="179.0" y="163"/>
      <point x="270.0" y="163" type="curve" smooth="yes"/>
    </contour>
  </outline>
</glyph>
<glyph name="colon" format="1">
  <advance width="784"/>
  <unicode hex="003A"/>
  <unicode hex="FF1A"/>
  <outline>
    <contour>
      <point x="615.0" y="354" type="line"/>
      <point x="615.0" y="364" type="line"/>
      <point x="520.0" y="364" type="line"/>
      <point x="520.0" y="354" type="line"/>
    </contour>
    <contour>
      <point x="260.0" y="354" type="line"/>
      <point x="260.0" y="364" type="line"/>
      <point x="165.0" y="364" type="line"/>
      <point x="165.0" y="354" type="line"/>
    </contour>
  </outline>
</glyph>
<glyph name="semicolon" format="1">
  <advance width="859"/>
  <unicode hex="003B"/>
  <unicode hex="FF1B"/>
  <outline>
    <contour>
      <point x="527.0" y="427" type="line"/>
      <point x="527.0" y="293" type="line"/>
      <point x="537.0" y="293" type="line"/>
      <point x="537.0" y="417" type="line"/>
      <point x="646.0" y="417" type="line" smooth="yes"/>
      <point x="700.0" y="417"/>
      <point x="727.0" y="387"/>
      <point x="727.0" y="339" type="curve" smooth="yes"/>
      <point x="727.0" y="293" type="line"/>
      <point x="737.0" y="293" type="line"/>
      <point x="737.0" y="339" type="line" smooth="yes"/>
      <point x="737.0" y="393"/>
      <point x="707.0" y="427"/>
      <point x="646.0" y="427" type="curve" smooth="yes"/>
    </contour>
    <contour>
      <point x="260.0" y="354" type="line"/>
      <point x="260.0" y="364" type="line"/>
      <point x="165.0" y="364" type="line"/>
      <point x="165.0" y="354" type="line"/>
    </contour>
  </outline>
</glyph>
<glyph name="less" format="1">
  <advance width="726"/>
  <unicode hex="003C"/>
  <outline>
    <contour>
      <point x="546.0" y="537" type="line"/>
      <point x="460.0" y="239" type="line" smooth="yes"/>
      <point x="452.0" y="211"/>
      <point x="437.0" y="189"/>
      <point x="399.0" y="189" type="curve" smooth="yes"/>
      <point x="327.0" y="189" type="line" smooth="yes"/>
      <point x="289.0" y="189"/>
      <point x="277.0" y="211"/>
      <point x="269.0" y="239" type="curve" smooth="yes"/>
      <point x="183.0" y="537" type="line"/>
      <point x="173.0" y="537" type="line"/>
      <point x="259.0" y="237" type="line" smooth="yes"/>
      <point x="269.0" y="203"/>
      <point x="283.0" y="179"/>
      <point x="327.0" y="179" type="curve" smooth="yes"/>
      <point x="399.0" y="179" type="line" smooth="yes"/>
      <point x="443.0" y="179"/>
      <point x="460.0" y="203"/>
      <point x="470.0" y="237" type="curve" smooth="yes"/>
      <point x="556.0" y="537" type="line"/>
    </contour>
  </outline>
</glyph>
<glyph name="equal" format="1">
  <advance width="646"/>
  <unicode hex="003D"/>
  <outline>
    <contour>
      <point x="178.0" y="153" type="line"/>
      <point x="178.0" y="567" type="line"/>
      <point x="168.0" y="567" type="line"/>
      <point x="168.0" y="153" type="line"/>
    </contour>
    <contour>
      <point x="478.0" y="153" type="line"/>
      <point x="478.0" y="567" type="line"/>
      <point x="468.0" y="567" type="line"/>
      <point x="468.0" y="153" type="line"/>
    </contour>
  </outline>
</glyph>
<glyph name="greater" format="1">
  <advance width="726"/>
  <unicode hex="003E"/>
  <outline>
    <contour>
      <point x="470.0" y="483" type="line" smooth="yes"/>
      <point x="460.0" y="517"/>
      <point x="443.0" y="541"/>
      <point x="399.0" y="541" type="curve" smooth="yes"/>
      <point x="327.0" y="541" type="line" smooth="yes"/>
      <point x="283.0" y="541"/>
      <point x="269.0" y="517"/>
      <point x="259.0" y="483" type="curve" smooth="yes"/>
      <point x="173.0" y="183" type="line"/>
      <point x="183.0" y="183" type="line"/>
      <point x="269.0" y="481" type="line" smooth="yes"/>
      <point x="277.0" y="509"/>
      <point x="289.0" y="531"/>
      <point x="327.0" y="531" type="curve" smooth="yes"/>
      <point x="399.0" y="531" type="line" smooth="yes"/>
      <point x="437.0" y="531"/>
      <point x="452.0" y="509"/>
      <point x="460.0" y="481" type="curve" smooth="yes"/>
      <point x="546.0" y="183" type="line"/>
      <point x="556.0" y="183" type="line"/>
    </contour>
  </outline>
</glyph>
<glyph name="question" format="1">
  <advance width="847"/>
  <unicode hex="003F"/>
  <unicode hex="FF1F"/>
  <outline>
    <contour>
      <point x="452.0" y="257" type="line"/>
      <point x="422.0" y="473" type="line" smooth="yes"/>
      <point x="418.0" y="504"/>
      <point x="409.0" y="530"/>
      <point x="368.0" y="530" type="curve" smooth="yes"/>
      <point x="255.0" y="530" type="line" smooth="yes"/>
      <point x="182.0" y="530"/>
      <point x="164.0" y="482"/>
      <point x="164.0" y="436" type="curve" smooth="yes"/>
      <point x="164.0" y="167" type="line"/>
      <point x="174.0" y="167" type="line"/>
      <point x="174.0" y="436" type="line" smooth="yes"/>
      <point x="174.0" y="477"/>
      <point x="190.0" y="520"/>
      <point x="255.0" y="520" type="curve" smooth="yes"/>
      <point x="368.0" y="520" type="line" smooth="yes"/>
      <point x="403.0" y="520"/>
      <point x="408.0" y="496"/>
      <point x="412.0" y="471" type="curve" smooth="yes"/>
      <point x="441.0" y="255" type="line"/>
    </contour>
    <contour>
      <point x="712.0" y="280" type="line"/>
      <point x="712.0" y="290" type="line"/>
      <point x="669.0" y="290" type="line"/>
      <point x="669.0" y="280" type="line"/>
    </contour>
  </outline>
</glyph>
<glyph name="at" format="1">
  <advance width="1026"/>
  <unicode hex="0040"/>
  <outline>
    <contour>
      <point x="305.0" y="31" type="curve" smooth="yes"/>
      <point x="723.0" y="31" type="line" smooth="yes"/>
      <point x="827.0" y="31"/>
      <point x="923.0" y="67"/>
      <point x="923.0" y="360" type="curve" smooth="yes"/>
      <point x="923.0" y="534" type="line"/>
      <point x="913.0" y="534" type="line"/>
      <point x="913.0" y="360" type="line" smooth="yes"/>
      <point x="913.0" y="81"/>
      <point x="823.0" y="41"/>
      <point x="723.0" y="41" type="curve" smooth="yes"/>
      <point x="305.0" y="41" type="line" smooth="yes"/>
      <point x="204.0" y="41"/>
      <point x="115.0" y="82"/>
      <point x="115.0" y="360" type="curve" smooth="yes"/>
      <point x="115.0" y="638"/>
      <point x="204.0" y="678"/>
      <point x="305.0" y="678" type="curve" smooth="yes"/>
      <point x="571.0" y="678" type="line" smooth="yes"/>
      <point x="663.0" y="678"/>
      <point x="703.0" y="649"/>
      <point x="703.0" y="571" type="curve" smooth="yes"/>
      <point x="703.0" y="495" type="line"/>
      <point x="346.0" y="495" type="line"/>
      <point x="346.0" y="351" type="line" smooth="yes"/>
      <point x="346.0" y="221"/>
      <point x="398.0" y="220"/>
      <point x="451.0" y="220" type="curve" smooth="yes"/>
      <point x="612.0" y="220" type="line" smooth="yes"/>
      <point x="684.0" y="220"/>
      <point x="713.0" y="244"/>
      <point x="713.0" y="309" type="curve" smooth="yes"/>
      <point x="713.0" y="571" type="line" smooth="yes"/>
      <point x="713.0" y="655"/>
      <point x="671.0" y="688"/>
      <point x="571.0" y="688" type="curve" smooth="yes"/>
      <point x="305.0" y="688" type="line" smooth="yes"/>
      <point x="200.0" y="688"/>
      <point x="105.0" y="652"/>
      <point x="105.0" y="360" type="curve" smooth="yes"/>
      <point x="105.0" y="68"/>
      <point x="200.0" y="31"/>
    </contour>
    <contour>
      <point x="612.0" y="230" type="curve" smooth="yes"/>
      <point x="451.0" y="230" type="line" smooth="yes"/>
      <point x="402.0" y="230"/>
      <point x="356.0" y="233"/>
      <point x="356.0" y="351" type="curve" smooth="yes"/>
      <point x="356.0" y="485" type="line"/>
      <point x="703.0" y="485" type="line"/>
      <point x="703.0" y="309" type="line" smooth="yes"/>
      <point x="703.0" y="250"/>
      <point x="676.0" y="230"/>
    </contour>
  </outline>
</glyph>
<glyph name="A" format="1">
  <advance width="849"/>
  <unicode hex="0041"/>
  <unicode hex="FF21"/>
  <outline>
    <contour>
      <point x="692.0" y="164" type="line"/>
      <point x="692.0" y="174" type="line"/>
      <point x="520.0" y="174" type="line"/>
      <point x="520.0" y="543" type="line"/>
      <point x="692.0" y="543" type="line"/>
      <point x="692.0" y="553" type="line"/>
      <point x="479.0" y="553" type="line" smooth="yes"/>
      <point x="442.0" y="553"/>
      <point x="411.0" y="547"/>
      <point x="382.0" y="536" type="curve" smooth="yes"/>
      <point x="219.0" y="467" type="line" smooth="yes"/>
      <point x="180.0" y="451"/>
      <point x="152.0" y="439"/>
      <point x="152.0" y="395" type="curve" smooth="yes"/>
      <point x="152.0" y="318" type="line" smooth="yes"/>
      <point x="152.0" y="272"/>
      <point x="181.0" y="260"/>
      <point x="218.0" y="245" type="curve" smooth="yes"/>
      <point x="382.0" y="181" type="line"/>
      <point x="411.0" y="170"/>
      <point x="442.0" y="164"/>
      <point x="479.0" y="164" type="curve" smooth="yes"/>
    </contour>
    <contour>
      <point x="479.0" y="174" type="line"/>
      <point x="443.0" y="174"/>
      <point x="413.0" y="180"/>
      <point x="386.0" y="190" type="curve"/>
      <point x="222.0" y="254" type="line"/>
      <point x="188.0" y="267"/>
      <point x="162.0" y="278"/>
      <point x="162.0" y="318" type="curve" smooth="yes"/>
      <point x="162.0" y="395" type="line" smooth="yes"/>
      <point x="162.0" y="432"/>
      <point x="188.0" y="443"/>
      <point x="223.0" y="458" type="curve"/>
      <point x="386.0" y="527" type="line"/>
      <point x="413.0" y="537"/>
      <point x="443.0" y="543"/>
      <point x="479.0" y="543" type="curve"/>
      <point x="510.0" y="543" type="line"/>
      <point x="510.0" y="174" type="line"/>
    </contour>
  </outline>
</glyph>
<glyph name="B" format="1">
  <advance width="861"/>
  <unicode hex="0042"/>
  <unicode hex="FF22"/>
  <outline>
    <contour>
      <point x="430.0" y="431" type="line" smooth="yes"/>
      <point x="430.0" y="532"/>
      <point x="475.0" y="551"/>
      <point x="535.0" y="551" type="curve" smooth="yes"/>
      <point x="599.0" y="551" type="line" smooth="yes"/>
      <point x="654.0" y="551"/>
      <point x="689.0" y="530"/>
      <point x="689.0" y="430" type="curve" smooth="yes"/>
      <point x="689.0" y="180" type="line"/>
      <point x="430.0" y="180" type="line"/>
    </contour>
    <contour>
      <point x="159.0" y="170" type="line"/>
      <point x="699.0" y="170" type="line"/>
      <point x="699.0" y="430" type="line" smooth="yes"/>
      <point x="699.0" y="542"/>
      <point x="658.0" y="561"/>
      <point x="599.0" y="561" type="curve" smooth="yes"/>
      <point x="535.0" y="561" type="line" smooth="yes"/>
      <point x="469.0" y="561"/>
      <point x="420.0" y="542"/>
      <point x="420.0" y="431" type="curve" smooth="yes"/>
      <point x="420.0" y="431" type="line"/>
      <point x="405.0" y="488"/>
      <point x="369.0" y="495"/>
      <point x="329.0" y="495" type="curve" smooth="yes"/>
      <point x="265.0" y="495" type="line" smooth="yes"/>
      <point x="207.0" y="495"/>
      <point x="159.0" y="475"/>
      <point x="159.0" y="364" type="curve" smooth="yes"/>
    </contour>
    <contour>
      <point x="169.0" y="364" type="line" smooth="yes"/>
      <point x="169.0" y="465"/>
      <point x="211.0" y="485"/>
      <point x="265.0" y="485" type="curve" smooth="yes"/>
      <point x="329.0" y="485" type="line" smooth="yes"/>
      <point x="377.0" y="485"/>
      <point x="420.0" y="474"/>
      <point x="420.0" y="364" type="curve" smooth="yes"/>
      <point x="420.0" y="180" type="line"/>
      <point x="169.0" y="180" type="line"/>
    </contour>
  </outline>
</glyph>
<glyph name="C" format="1">
  <advance width="864"/>
  <unicode hex="0043"/>
  <unicode hex="FF23"/>
  <outline>
    <contour>
      <point x="692.0" y="561" type="line"/>
      <point x="692.0" y="325" type="line" smooth="yes"/>
      <point x="692.0" y="205"/>
      <point x="660.0" y="175"/>
      <point x="573.0" y="175" type="curve" smooth="yes"/>
      <point x="293.0" y="175" type="line" smooth="yes"/>
      <point x="204.0" y="175"/>
      <point x="172.0" y="207"/>
      <point x="172.0" y="325" type="curve" smooth="yes"/>
      <point x="172.0" y="561" type="line"/>
      <point x="162.0" y="561" type="line"/>
      <point x="162.0" y="325" type="line" smooth="yes"/>
      <point x="162.0" y="197"/>
      <point x="198.0" y="165"/>
      <point x="293.0" y="165" type="curve" smooth="yes"/>
      <point x="573.0" y="165" type="line" smooth="yes"/>
      <point x="666.0" y="165"/>
      <point x="702.0" y="195"/>
      <point x="702.0" y="325" type="curve" smooth="yes"/>
      <point x="702.0" y="561" type="line"/>
    </contour>
  </outline>
</glyph>
<glyph name="D" format="1">
  <advance width="864"/>
  <unicode hex="0044"/>
  <unicode hex="FF24"/>
  <outline>
    <contour>
      <point x="162.0" y="169" type="line"/>
      <point x="702.0" y="169" type="line"/>
      <point x="702.0" y="397" type="line" smooth="yes"/>
      <point x="702.0" y="535"/>
      <point x="643.0" y="557"/>
      <point x="566.0" y="557" type="curve" smooth="yes"/>
      <point x="301.0" y="557" type="line" smooth="yes"/>
      <point x="224.0" y="557"/>
      <point x="162.0" y="533"/>
      <point x="162.0" y="397" type="curve" smooth="yes"/>
    </contour>
    <contour>
      <point x="172.0" y="397" type="line" smooth="yes"/>
      <point x="172.0" y="523"/>
      <point x="228.0" y="547"/>
      <point x="301.0" y="547" type="curve" smooth="yes"/>
      <point x="566.0" y="547" type="line" smooth="yes"/>
      <point x="639.0" y="547"/>
      <point x="692.0" y="525"/>
      <point x="692.0" y="397" type="curve" smooth="yes"/>
      <point x="692.0" y="179" type="line"/>
      <point x="172.0" y="179" type="line"/>
    </contour>
  </outline>
</glyph>
<glyph name="E" format="1">
  <advance width="880"/>
  <unicode hex="0045"/>
  <unicode hex="FF25"/>
  <outline>
    <contour>
      <point x="710.0" y="168" type="line"/>
      <point x="710.0" y="561" type="line"/>
      <point x="700.0" y="561" type="line"/>
      <point x="700.0" y="178" type="line"/>
      <point x="441.0" y="178" type="line"/>
      <point x="441.0" y="480" type="line"/>
      <point x="431.0" y="480" type="line"/>
      <point x="431.0" y="178" type="line"/>
      <point x="180.0" y="178" type="line"/>
      <point x="180.0" y="561" type="line"/>
      <point x="170.0" y="561" type="line"/>
      <point x="170.0" y="168" type="line"/>
    </contour>
  </outline>
</glyph>
<glyph name="F" format="2">
  <advance width="856"/>
  <unicode hex="0046"/>
  <outline>
    <contour>
      <point x="171.0" y="171" type="line"/>
      <point x="711.0" y="171" type="line"/>
      <point x="711.0" y="181" type="line"/>
      <point x="477.0" y="181" type="line"/>
      <point x="477.0" y="481" type="line"/>
      <point x="467.0" y="481" type="line"/>
      <point x="467.0" y="181" type="line"/>
      <point x="181.0" y="181" type="line"/>
      <point x="181.0" y="562" type="line"/>
      <point x="171.0" y="562" type="line"/>
    </contour>
  </outline>
</glyph>
<glyph name="G" format="1">
  <advance width="859"/>
  <unicode hex="0047"/>
  <unicode hex="FF27"/>
  <outline>
    <contour>
      <point x="288.0" y="164" type="curve" smooth="yes"/>
      <point x="568.0" y="164" type="line" smooth="yes"/>
      <point x="661.0" y="164"/>
      <point x="697.0" y="197"/>
      <point x="697.0" y="344" type="curve" smooth="yes"/>
      <point x="697.0" y="552" type="line"/>
      <point x="496.0" y="552" type="line"/>
      <point x="496.0" y="542" type="line"/>
      <point x="687.0" y="542" type="line"/>
      <point x="687.0" y="344" type="line" smooth="yes"/>
      <point x="687.0" y="209"/>
      <point x="655.0" y="174"/>
      <point x="568.0" y="174" type="curve" smooth="yes"/>
      <point x="288.0" y="174" type="line" smooth="yes"/>
      <point x="199.0" y="174"/>
      <point x="167.0" y="206"/>
      <point x="167.0" y="324" type="curve" smooth="yes"/>
      <point x="167.0" y="505" type="line"/>
      <point x="157.0" y="505" type="line"/>
      <point x="157.0" y="324" type="line" smooth="yes"/>
      <point x="157.0" y="196"/>
      <point x="193.0" y="164"/>
    </contour>
    <contour>
      <point x="40.0" y="351.0" type="move" name="top"/>
    </contour>
    <contour>
      <point x="787.0" y="351.0" type="move" name="bottom"/>
    </contour>
  </outline>
</glyph>
<glyph name="H" format="1">
  <advance width="854"/>
  <unicode hex="0048"/>
  <unicode hex="FF28"/>
  <outline>
    <contour>
      <point x="157.0" y="169" type="line"/>
      <point x="697.0" y="169" type="line"/>
      <point x="697.0" y="179" type="line"/>
      <point x="432.0" y="179" type="line"/>
      <point x="432.0" y="541" type="line"/>
      <point x="697.0" y="541" type="line"/>
      <point x="697.0" y="551" type="line"/>
      <point x="157.0" y="551" type="line"/>
      <point x="157.0" y="541" type="line"/>
      <point x="422.0" y="541" type="line"/>
      <point x="422.0" y="179" type="line"/>
      <point x="157.0" y="179" type="line"/>
    </contour>
  </outline>
</glyph>
<glyph name="I" format="1">
  <advance width="880"/>
  <unicode hex="0049"/>
  <unicode hex="FF29"/>
  <outline>
    <contour>
      <point x="700.0" y="159" type="line"/>
      <point x="710.0" y="159" type="line"/>
      <point x="710.0" y="561" type="line"/>
      <point x="700.0" y="561" type="line"/>
      <point x="700.0" y="365" type="line"/>
      <point x="180.0" y="365" type="line"/>
      <point x="180.0" y="561" type="line"/>
      <point x="170.0" y="561" type="line"/>
      <point x="170.0" y="159" type="line"/>
      <point x="180.0" y="159" type="line"/>
      <point x="180.0" y="355" type="line"/>
      <point x="700.0" y="355" type="line"/>
    </contour>
  </outline>
</glyph>
<glyph name="J" format="1">
  <advance width="848"/>
  <unicode hex="004A"/>
  <unicode hex="FF2A"/>
  <outline>
    <contour>
      <point x="145.0" y="540" type="line"/>
      <point x="562.0" y="540" type="line" smooth="yes"/>
      <point x="637.0" y="540"/>
      <point x="687.0" y="499"/>
      <point x="687.0" y="361" type="curve" smooth="yes"/>
      <point x="687.0" y="216"/>
      <point x="638.0" y="174"/>
      <point x="562.0" y="174" type="curve" smooth="yes"/>
      <point x="478.0" y="174" type="line"/>
      <point x="478.0" y="164" type="line"/>
      <point x="562.0" y="164" type="line" smooth="yes"/>
      <point x="642.0" y="164"/>
      <point x="697.0" y="203"/>
      <point x="697.0" y="361" type="curve" smooth="yes"/>
      <point x="697.0" y="509"/>
      <point x="641.0" y="550"/>
      <point x="562.0" y="550" type="curve" smooth="yes"/>
      <point x="145.0" y="550" type="line"/>
    </contour>
  </outline>
</glyph>
<glyph name="K" format="2">
  <advance width="854"/>
  <unicode hex="004B"/>
  <outline>
    <contour>
      <point x="157.0" y="170" type="line"/>
      <point x="697.0" y="170" type="line"/>
      <point x="697.0" y="180" type="line"/>
      <point x="433.0" y="180" type="line"/>
      <point x="433.0" y="432" type="line" smooth="yes"/>
      <point x="433.0" y="506"/>
      <point x="457.0" y="543"/>
      <point x="521.0" y="543" type="curve" smooth="yes"/>
      <point x="697.0" y="543" type="line"/>
      <point x="697.0" y="553" type="line"/>
      <point x="521.0" y="553" type="line" smooth="yes"/>
      <point x="451.0" y="553"/>
      <point x="423.0" y="514"/>
      <point x="423.0" y="432" type="curve" smooth="yes"/>
      <point x="423.0" y="391" type="line"/>
      <point x="157.0" y="506" type="line"/>
      <point x="157.0" y="495" type="line"/>
      <point x="423.0" y="380" type="line"/>
      <point x="423.0" y="180" type="line"/>
      <point x="157.0" y="180" type="line"/>
    </contour>
  </outline>
</glyph>
<glyph name="M" format="1">
  <advance width="854"/>
  <unicode hex="004D"/>
  <unicode hex="FF2D"/>
  <outline>
    <contour>
      <point x="422.0" y="356" type="curve"/>
      <point x="422.0" y="337"/>
      <point x="416.0" y="331"/>
      <point x="380.0" y="315" type="curve" smooth="yes"/>
      <point x="174.0" y="222" type="line" smooth="yes"/>
      <point x="160.0" y="216"/>
      <point x="157.0" y="201"/>
      <point x="157.0" y="189" type="curve" smooth="yes"/>
      <point x="157.0" y="172" type="line" smooth="yes"/>
      <point x="157.0" y="149"/>
      <point x="166.0" y="139"/>
      <point x="188.0" y="139" type="curve" smooth="yes"/>
      <point x="697.0" y="137" type="line"/>
      <point x="697.0" y="147" type="line"/>
      <point x="188.0" y="149" type="line" smooth="yes"/>
      <point x="177.0" y="149"/>
      <point x="167.0" y="153"/>
      <point x="167.0" y="172" type="curve" smooth="yes"/>
      <point x="167.0" y="187" type="line" smooth="yes"/>
      <point x="167.0" y="197"/>
      <point x="167.0" y="208"/>
      <point x="181.0" y="214" type="curve" smooth="yes"/>
      <point x="385.0" y="307" type="line" smooth="yes"/>
      <point x="423.0" y="324"/>
      <point x="432.0" y="332"/>
      <point x="432.0" y="356" type="curve"/>
      <point x="432.0" y="380"/>
      <point x="423.0" y="388"/>
      <point x="385.0" y="405" type="curve" smooth="yes"/>
      <point x="181.0" y="498" type="line" smooth="yes"/>
      <point x="167.0" y="504"/>
      <point x="167.0" y="515"/>
      <point x="167.0" y="525" type="curve" smooth="yes"/>
      <point x="167.0" y="544" type="line" smooth="yes"/>
      <point x="167.0" y="560"/>
      <point x="177.0" y="563"/>
      <point x="188.0" y="563" type="curve" smooth="yes"/>
      <point x="697.0" y="565" type="line"/>
      <point x="697.0" y="575" type="line"/>
      <point x="188.0" y="573" type="line" smooth="yes"/>
      <point x="166.0" y="573"/>
      <point x="157.0" y="564"/>
      <point x="157.0" y="544" type="curve" smooth="yes"/>
      <point x="157.0" y="523" type="line" smooth="yes"/>
      <point x="157.0" y="511"/>
      <point x="159.0" y="497"/>
      <point x="174.0" y="490" type="curve" smooth="yes"/>
      <point x="380.0" y="397" type="line" smooth="yes"/>
      <point x="418.0" y="380"/>
      <point x="422.0" y="375"/>
    </contour>
  </outline>
</glyph>
<glyph name="N" format="1">
  <advance width="854"/>
  <unicode hex="004E"/>
  <unicode hex="FF2E"/>
  <outline>
    <contour>
      <point x="156.0" y="178" type="curve" smooth="yes"/>
      <point x="156.0" y="172"/>
      <point x="160.0" y="166"/>
      <point x="168.0" y="166" type="curve" smooth="yes"/>
      <point x="697.0" y="166" type="line"/>
      <point x="697.0" y="176" type="line"/>
      <point x="170.0" y="176" type="line" smooth="yes"/>
      <point x="169.0" y="176"/>
      <point x="167.0" y="176"/>
      <point x="167.0" y="178" type="curve" smooth="yes"/>
      <point x="167.0" y="180"/>
      <point x="168.0" y="181"/>
      <point x="170.0" y="183" type="curve" smooth="yes"/>
      <point x="594.0" y="545" type="line"/>
      <point x="697.0" y="545" type="line"/>
      <point x="697.0" y="555" type="line"/>
      <point x="157.0" y="555" type="line"/>
      <point x="157.0" y="545" type="line"/>
      <point x="579.0" y="545" type="line"/>
      <point x="165.0" y="193" type="line"/>
      <point x="158.0" y="186"/>
      <point x="156.0" y="184"/>
    </contour>
  </outline>
</glyph>
<glyph name="O" format="1">
  <advance width="864"/>
  <unicode hex="004F"/>
  <unicode hex="FF2F"/>
  <outline>
    <contour>
      <point x="580.0" y="556" type="curve" smooth="yes"/>
      <point x="285.0" y="556" type="line" smooth="yes"/>
      <point x="204.0" y="556"/>
      <point x="150.0" y="511"/>
      <point x="150.0" y="359" type="curve" smooth="yes"/>
      <point x="150.0" y="207"/>
      <point x="204.0" y="165"/>
      <point x="285.0" y="165" type="curve" smooth="yes"/>
      <point x="580.0" y="165" type="line" smooth="yes"/>
      <point x="661.0" y="165"/>
      <point x="715.0" y="207"/>
      <point x="715.0" y="359" type="curve" smooth="yes"/>
      <point x="715.0" y="511"/>
      <point x="661.0" y="556"/>
    </contour>
    <contour>
      <point x="580.0" y="175" type="curve" smooth="yes"/>
      <point x="285.0" y="175" type="line" smooth="yes"/>
      <point x="210.0" y="175"/>
      <point x="160.0" y="215"/>
      <point x="160.0" y="359" type="curve" smooth="yes"/>
      <point x="160.0" y="503"/>
      <point x="210.0" y="546"/>
      <point x="285.0" y="546" type="curve" smooth="yes"/>
      <point x="580.0" y="546" type="line" smooth="yes"/>
      <point x="655.0" y="546"/>
      <point x="705.0" y="503"/>
      <point x="705.0" y="359" type="curve" smooth="yes"/>
      <point x="705.0" y="215"/>
      <point x="655.0" y="175"/>
    </contour>
  </outline>
</glyph>
<glyph name="P" format="1">
  <advance width="847"/>
  <unicode hex="0050"/>
  <unicode hex="FF30"/>
  <outline>
    <contour>
      <point x="505.0" y="411" type="line" smooth="yes"/>
      <point x="505.0" y="537"/>
      <point x="450.0" y="561"/>
      <point x="372.0" y="561" type="curve" smooth="yes"/>
      <point x="298.0" y="561" type="line" smooth="yes"/>
      <point x="220.0" y="561"/>
      <point x="162.0" y="537"/>
      <point x="162.0" y="411" type="curve" smooth="yes"/>
      <point x="162.0" y="169" type="line"/>
      <point x="702.0" y="169" type="line"/>
      <point x="702.0" y="179" type="line"/>
      <point x="505.0" y="179" type="line"/>
    </contour>
    <contour>
      <point x="495.0" y="179" type="line"/>
      <point x="172.0" y="179" type="line"/>
      <point x="172.0" y="411" type="line" smooth="yes"/>
      <point x="172.0" y="529"/>
      <point x="226.0" y="551"/>
      <point x="298.0" y="551" type="curve" smooth="yes"/>
      <point x="372.0" y="551" type="line" smooth="yes"/>
      <point x="444.0" y="551"/>
      <point x="495.0" y="529"/>
      <point x="495.0" y="411" type="curve" smooth="yes"/>
    </contour>
  </outline>
</glyph>
<glyph name="Q" format="1">
  <advance width="934"/>
  <unicode hex="0051"/>
  <outline>
    <contour>
      <point x="286.0" y="165" type="curve" smooth="yes"/>
      <point x="581.0" y="165" type="line" smooth="yes"/>
      <point x="661.0" y="165"/>
      <point x="714.0" y="206"/>
      <point x="716.0" y="354" type="curve"/>
      <point x="793.0" y="354" type="line"/>
      <point x="793.0" y="364" type="line"/>
      <point x="716.0" y="364" type="line"/>
      <point x="715.0" y="512"/>
      <point x="661.0" y="556"/>
      <point x="581.0" y="556" type="curve" smooth="yes"/>
      <point x="286.0" y="556" type="line" smooth="yes"/>
      <point x="205.0" y="556"/>
      <point x="151.0" y="511"/>
      <point x="151.0" y="359" type="curve" smooth="yes"/>
      <point x="151.0" y="207"/>
      <point x="205.0" y="165"/>
    </contour>
    <contour>
      <point x="581.0" y="175" type="curve" smooth="yes"/>
      <point x="286.0" y="175" type="line" smooth="yes"/>
      <point x="211.0" y="175"/>
      <point x="161.0" y="215"/>
      <point x="161.0" y="359" type="curve" smooth="yes"/>
      <point x="161.0" y="503"/>
      <point x="211.0" y="546"/>
      <point x="286.0" y="546" type="curve" smooth="yes"/>
      <point x="581.0" y="546" type="line" smooth="yes"/>
      <point x="656.0" y="546"/>
      <point x="706.0" y="503"/>
      <point x="706.0" y="359" type="curve" smooth="yes"/>
      <point x="706.0" y="215"/>
      <point x="656.0" y="175"/>
    </contour>
  </outline>
</glyph>
<glyph name="R" format="1">
  <advance width="859"/>
  <unicode hex="0052"/>
  <unicode hex="FF32"/>
  <outline>
    <contour>
      <point x="162.0" y="168" type="line"/>
      <point x="702.0" y="168" type="line"/>
      <point x="702.0" y="178" type="line"/>
      <point x="470.0" y="178" type="line"/>
      <point x="470.0" y="461" type="line" smooth="yes"/>
      <point x="470.0" y="537"/>
      <point x="502.0" y="551"/>
      <point x="568.0" y="551" type="curve" smooth="yes"/>
      <point x="702.0" y="551" type="line"/>
      <point x="702.0" y="561" type="line"/>
      <point x="568.0" y="561" type="line" smooth="yes"/>
      <point x="498.0" y="561"/>
      <point x="461.0" y="543"/>
      <point x="461.0" y="461" type="curve" smooth="yes"/>
      <point x="461.0" y="450" type="line"/>
      <point x="446.0" y="498"/>
      <point x="406.0" y="510"/>
      <point x="345.0" y="510" type="curve" smooth="yes"/>
      <point x="276.0" y="510" type="line" smooth="yes"/>
      <point x="210.0" y="510"/>
      <point x="162.0" y="474"/>
      <point x="162.0" y="396" type="curve" smooth="yes"/>
    </contour>
    <contour>
      <point x="172.0" y="396" type="line" smooth="yes"/>
      <point x="172.0" y="467"/>
      <point x="214.0" y="500"/>
      <point x="276.0" y="500" type="curve" smooth="yes"/>
      <point x="346.0" y="500" type="line" smooth="yes"/>
      <point x="420.0" y="500"/>
      <point x="461.0" y="479"/>
      <point x="461.0" y="396" type="curve" smooth="yes"/>
      <point x="461.0" y="178" type="line"/>
      <point x="172.0" y="178" type="line"/>
    </contour>
  </outline>
</glyph>
<glyph name="S" format="1">
  <advance width="864"/>
  <unicode hex="0053"/>
  <unicode hex="FF33"/>
  <outline>
    <contour>
      <point x="162.0" y="545" type="line"/>
      <point x="162.0" y="271" type="line" smooth="yes"/>
      <point x="162.0" y="208"/>
      <point x="197.0" y="169"/>
      <point x="253.0" y="169" type="curve" smooth="yes"/>
      <point x="345.0" y="169" type="line" smooth="yes"/>
      <point x="390.0" y="169"/>
      <point x="421.0" y="199"/>
      <point x="426.0" y="248" type="curve" smooth="yes"/>
      <point x="447.0" y="461" type="line" smooth="yes"/>
      <point x="452.0" y="516"/>
      <point x="480.0" y="542"/>
      <point x="528.0" y="542" type="curve" smooth="yes"/>
      <point x="611.0" y="542" type="line" smooth="yes"/>
      <point x="661.0" y="542"/>
      <point x="692.0" y="503"/>
      <point x="692.0" y="441" type="curve" smooth="yes"/>
      <point x="692.0" y="150" type="line"/>
      <point x="702.0" y="150" type="line"/>
      <point x="702.0" y="441" type="line" smooth="yes"/>
      <point x="702.0" y="509"/>
      <point x="667.0" y="552"/>
      <point x="611.0" y="552" type="curve" smooth="yes"/>
      <point x="528.0" y="552" type="line" smooth="yes"/>
      <point x="474.0" y="552"/>
      <point x="443.0" y="523"/>
      <point x="437.0" y="463" type="curve" smooth="yes"/>
      <point x="416.0" y="250" type="line" smooth="yes"/>
      <point x="412.0" y="206"/>
      <point x="385.0" y="179"/>
      <point x="345.0" y="179" type="curve" smooth="yes"/>
      <point x="253.0" y="179" type="line" smooth="yes"/>
      <point x="203.0" y="179"/>
      <point x="172.0" y="214"/>
      <point x="172.0" y="271" type="curve" smooth="yes"/>
      <point x="172.0" y="545" type="line"/>
    </contour>
  </outline>
</glyph>
<glyph name="T" format="1">
  <advance width="855"/>
  <unicode hex="0054"/>
  <unicode hex="FF34"/>
  <outline>
    <contour>
      <point x="710.0" y="355" type="line"/>
      <point x="710.0" y="365" type="line"/>
      <point x="180.0" y="365" type="line"/>
      <point x="180.0" y="570" type="line"/>
      <point x="170.0" y="570" type="line"/>
      <point x="170.0" y="150" type="line"/>
      <point x="180.0" y="150" type="line"/>
      <point x="180.0" y="355" type="line"/>
    </contour>
  </outline>
</glyph>
<glyph name="U" format="1">
  <advance width="859"/>
  <unicode hex="0055"/>
  <unicode hex="FF35"/>
  <outline>
    <contour>
      <point x="165.0" y="163" type="line"/>
      <point x="582.0" y="163" type="line" smooth="yes"/>
      <point x="663.0" y="163"/>
      <point x="717.0" y="203"/>
      <point x="717.0" y="350" type="curve" smooth="yes"/>
      <point x="717.0" y="503"/>
      <point x="663.0" y="546"/>
      <point x="582.0" y="546" type="curve" smooth="yes"/>
      <point x="165.0" y="546" type="line"/>
      <point x="165.0" y="536" type="line"/>
      <point x="582.0" y="536" type="line" smooth="yes"/>
      <point x="657.0" y="536"/>
      <point x="707.0" y="495"/>
      <point x="707.0" y="350" type="curve" smooth="yes"/>
      <point x="707.0" y="211"/>
      <point x="657.0" y="173"/>
      <point x="582.0" y="173" type="curve" smooth="yes"/>
      <point x="165.0" y="173" type="line"/>
    </contour>
  </outline>
</glyph>
<glyph name="V" format="1">
  <advance width="849"/>
  <unicode hex="0056"/>
  <unicode hex="FF36"/>
  <outline>
    <contour>
      <point x="370.0" y="164" type="line" smooth="yes"/>
      <point x="407.0" y="164"/>
      <point x="438.0" y="170"/>
      <point x="467.0" y="181" type="curve" smooth="yes"/>
      <point x="630.0" y="250" type="line" smooth="yes"/>
      <point x="669.0" y="266"/>
      <point x="697.0" y="278"/>
      <point x="697.0" y="322" type="curve" smooth="yes"/>
      <point x="697.0" y="399" type="line" smooth="yes"/>
      <point x="697.0" y="445"/>
      <point x="668.0" y="457"/>
      <point x="631.0" y="472" type="curve" smooth="yes"/>
      <point x="467.0" y="536" type="line"/>
      <point x="438.0" y="547"/>
      <point x="407.0" y="553"/>
      <point x="370.0" y="553" type="curve" smooth="yes"/>
      <point x="157.0" y="553" type="line"/>
      <point x="157.0" y="543" type="line"/>
      <point x="370.0" y="543" type="line"/>
      <point x="406.0" y="543"/>
      <point x="436.0" y="537"/>
      <point x="463.0" y="527" type="curve"/>
      <point x="627.0" y="463" type="line"/>
      <point x="661.0" y="450"/>
      <point x="687.0" y="439"/>
      <point x="687.0" y="399" type="curve" smooth="yes"/>
      <point x="687.0" y="322" type="line" smooth="yes"/>
      <point x="687.0" y="285"/>
      <point x="661.0" y="274"/>
      <point x="626.0" y="259" type="curve"/>
      <point x="463.0" y="190" type="line"/>
      <point x="436.0" y="180"/>
      <point x="406.0" y="174"/>
      <point x="370.0" y="174" type="curve"/>
      <point x="157.0" y="174" type="line"/>
      <point x="157.0" y="164" type="line"/>
    </contour>
  </outline>
</glyph>
<glyph name="W" format="1">
  <advance width="854"/>
  <unicode hex="0057"/>
  <unicode hex="FF37"/>
  <outline>
    <contour>
      <point x="442.0" y="379" type="curve" smooth="yes"/>
      <point x="442.0" y="354" type="line"/>
      <point x="442.0" y="333"/>
      <point x="450.0" y="319"/>
      <point x="489.0" y="305" type="curve" smooth="yes"/>
      <point x="673.0" y="240" type="line" smooth="yes"/>
      <point x="687.0" y="235"/>
      <point x="687.0" y="223"/>
      <point x="687.0" y="213" type="curve" smooth="yes"/>
      <point x="687.0" y="208" type="line" smooth="yes"/>
      <point x="687.0" y="197"/>
      <point x="677.0" y="187"/>
      <point x="666.0" y="185" type="curve"/>
      <point x="552.0" y="160" type="line" smooth="yes"/>
      <point x="527.0" y="155"/>
      <point x="481.0" y="155"/>
      <point x="451.0" y="155" type="curve"/>
      <point x="157.0" y="155" type="line"/>
      <point x="157.0" y="145" type="line"/>
      <point x="452.0" y="145" type="line" smooth="yes"/>
      <point x="482.0" y="145"/>
      <point x="528.0" y="144"/>
      <point x="553.0" y="150" type="curve" smooth="yes"/>
      <point x="666.0" y="175" type="line" smooth="yes"/>
      <point x="688.0" y="180"/>
      <point x="697.0" y="192"/>
      <point x="697.0" y="208" type="curve" smooth="yes"/>
      <point x="697.0" y="215" type="line" smooth="yes"/>
      <point x="697.0" y="227"/>
      <point x="694.0" y="243"/>
      <point x="680.0" y="248" type="curve" smooth="yes"/>
      <point x="494.0" y="313" type="line" smooth="yes"/>
      <point x="456.0" y="326"/>
      <point x="452.0" y="338"/>
      <point x="452.0" y="354" type="curve"/>
      <point x="452.0" y="379" type="line"/>
      <point x="452.0" y="395"/>
      <point x="456.0" y="407"/>
      <point x="494.0" y="420" type="curve" smooth="yes"/>
      <point x="680.0" y="482" type="line" smooth="yes"/>
      <point x="694.0" y="487"/>
      <point x="697.0" y="503"/>
      <point x="697.0" y="515" type="curve" smooth="yes"/>
      <point x="697.0" y="522" type="line" smooth="yes"/>
      <point x="697.0" y="538"/>
      <point x="688.0" y="550"/>
      <point x="666.0" y="555" type="curve" smooth="yes"/>
      <point x="553.0" y="580" type="line" smooth="yes"/>
      <point x="528.0" y="586"/>
      <point x="482.0" y="585"/>
      <point x="452.0" y="585" type="curve" smooth="yes"/>
      <point x="157.0" y="585" type="line"/>
      <point x="157.0" y="575" type="line"/>
      <point x="451.0" y="575" type="line" smooth="yes"/>
      <point x="481.0" y="575"/>
      <point x="527.0" y="575"/>
      <point x="552.0" y="570" type="curve" smooth="yes"/>
      <point x="666.0" y="545" type="line" smooth="yes"/>
      <point x="677.0" y="543"/>
      <point x="687.0" y="533"/>
      <point x="687.0" y="522" type="curve" smooth="yes"/>
      <point x="687.0" y="517" type="line" smooth="yes"/>
      <point x="687.0" y="507"/>
      <point x="687.0" y="495"/>
      <point x="673.0" y="490" type="curve" smooth="yes"/>
      <point x="489.0" y="428" type="line" smooth="yes"/>
      <point x="450.0" y="415"/>
      <point x="442.0" y="400"/>
    </contour>
    <contour>
      <point x="40.0" y="365.0" type="move" name="top"/>
    </contour>
    <contour>
      <point x="787.0" y="365.0" type="move" name="bottom"/>
    </contour>
  </outline>
</glyph>
<glyph name="X" format="1">
  <advance width="854"/>
  <unicode hex="0058"/>
  <unicode hex="FF38"/>
  <outline>
    <contour>
      <point x="249.0" y="182" type="curve" smooth="yes"/>
      <point x="379.0" y="270" type="line" smooth="yes"/>
      <point x="397.0" y="282"/>
      <point x="407.0" y="294"/>
      <point x="412.0" y="306" type="curve"/>
      <point x="417.0" y="292"/>
      <point x="427.0" y="281"/>
      <point x="445.0" y="269" type="curve" smooth="yes"/>
      <point x="575.0" y="182" type="line" smooth="yes"/>
      <point x="597.0" y="167"/>
      <point x="623.0" y="167"/>
      <point x="652.0" y="167" type="curve" smooth="yes"/>
      <point x="697.0" y="167" type="line"/>
      <point x="697.0" y="177" type="line"/>
      <point x="652.0" y="177" type="line" smooth="yes"/>
      <point x="624.0" y="177"/>
      <point x="598.0" y="178"/>
      <point x="579.0" y="191" type="curve" smooth="yes"/>
      <point x="449.0" y="278" type="line" smooth="yes"/>
      <point x="426.0" y="294"/>
      <point x="417.0" y="311"/>
      <point x="417.0" y="331" type="curve" smooth="yes"/>
      <point x="417.0" y="392" type="line" smooth="yes"/>
      <point x="417.0" y="411"/>
      <point x="426.0" y="430"/>
      <point x="449.0" y="445" type="curve" smooth="yes"/>
      <point x="579.0" y="529" type="line" smooth="yes"/>
      <point x="598.0" y="541"/>
      <point x="624.0" y="544"/>
      <point x="652.0" y="544" type="curve" smooth="yes"/>
      <point x="697.0" y="544" type="line"/>
      <point x="697.0" y="554" type="line"/>
      <point x="652.0" y="554" type="line" smooth="yes"/>
      <point x="623.0" y="554"/>
      <point x="596.0" y="552"/>
      <point x="575.0" y="538" type="curve" smooth="yes"/>
      <point x="445.0" y="454" type="line" smooth="yes"/>
      <point x="427.0" y="442"/>
      <point x="417.0" y="431"/>
      <point x="412.0" y="417" type="curve"/>
      <point x="407.0" y="431"/>
      <point x="396.0" y="442"/>
      <point x="379.0" y="454" type="curve" smooth="yes"/>
      <point x="249.0" y="539" type="line" smooth="yes"/>
      <point x="227.0" y="554"/>
      <point x="201.0" y="554"/>
      <point x="172.0" y="554" type="curve" smooth="yes"/>
      <point x="157.0" y="554" type="line"/>
      <point x="157.0" y="544" type="line"/>
      <point x="172.0" y="544" type="line" smooth="yes"/>
      <point x="200.0" y="544"/>
      <point x="226.0" y="543"/>
      <point x="245.0" y="530" type="curve" smooth="yes"/>
      <point x="375.0" y="445" type="line" smooth="yes"/>
      <point x="398.0" y="430"/>
      <point x="407.0" y="412"/>
      <point x="407.0" y="392" type="curve" smooth="yes"/>
      <point x="407.0" y="331" type="line" smooth="yes"/>
      <point x="407.0" y="313"/>
      <point x="399.0" y="295"/>
      <point x="375.0" y="279" type="curve" smooth="yes"/>
      <point x="245.0" y="191" type="line" smooth="yes"/>
      <point x="226.0" y="178"/>
      <point x="200.0" y="177"/>
      <point x="172.0" y="177" type="curve" smooth="yes"/>
      <point x="157.0" y="177" type="line"/>
      <point x="157.0" y="167" type="line"/>
      <point x="172.0" y="167" type="line" smooth="yes"/>
      <point x="201.0" y="167"/>
      <point x="228.0" y="168"/>
    </contour>
    <contour>
      <point x="40.0" y="368.0" type="move" name="top"/>
    </contour>
    <contour>
      <point x="787.0" y="368.0" type="move" name="bottom"/>
    </contour>
  </outline>
</glyph>
<glyph name="Y" format="2">
  <advance width="842"/>
  <unicode hex="0059"/>
  <anchor x="40.0" y="212.0" name="top"/>
  <anchor x="40.0" y="212.0" name="top"/>
  <anchor x="787.0" y="212.0" name="bottom"/>
  <anchor x="787.0" y="212.0" name="bottom"/>
  <outline>
    <contour>
      <point x="157.0" y="167" type="line"/>
      <point x="272.0" y="167" type="line" smooth="yes"/>
      <point x="301.0" y="167"/>
      <point x="328.0" y="168"/>
      <point x="349.0" y="182" type="curve" smooth="yes"/>
      <point x="479.0" y="269" type="line" smooth="yes"/>
      <point x="510.0" y="290"/>
      <point x="521.0" y="313"/>
      <point x="521.0" y="342" type="curve" smooth="yes"/>
      <point x="521.0" y="355" type="line"/>
      <point x="697.0" y="355" type="line"/>
      <point x="697.0" y="365" type="line"/>
      <point x="521.0" y="365" type="line"/>
      <point x="521.0" y="376" type="line" smooth="yes"/>
      <point x="521.0" y="407"/>
      <point x="509.0" y="429"/>
      <point x="479.0" y="450" type="curve" smooth="yes"/>
      <point x="349.0" y="540" type="line" smooth="yes"/>
      <point x="328.0" y="554"/>
      <point x="301.0" y="555"/>
      <point x="272.0" y="555" type="curve" smooth="yes"/>
      <point x="157.0" y="555" type="line"/>
      <point x="157.0" y="545" type="line"/>
      <point x="272.0" y="545" type="line" smooth="yes"/>
      <point x="300.0" y="545"/>
      <point x="326.0" y="544"/>
      <point x="345.0" y="531" type="curve" smooth="yes"/>
      <point x="475.0" y="441" type="line" smooth="yes"/>
      <point x="502.0" y="423"/>
      <point x="511.0" y="401"/>
      <point x="511.0" y="376" type="curve" smooth="yes"/>
      <point x="511.0" y="342" type="line" smooth="yes"/>
      <point x="511.0" y="319"/>
      <point x="502.0" y="296"/>
      <point x="475.0" y="278" type="curve"/>
      <point x="345.0" y="191" type="line"/>
      <point x="325.0" y="178"/>
      <point x="300.0" y="177"/>
      <point x="272.0" y="177" type="curve" smooth="yes"/>
      <point x="157.0" y="177" type="line"/>
    </contour>
  </outline>
</glyph>
<glyph name="Z" format="1">
  <advance width="880"/>
  <unicode hex="005A"/>
  <unicode hex="FF3A"/>
  <outline>
    <contour>
      <point x="256.0" y="545" type="line" smooth="yes"/>
      <point x="245.0" y="556"/>
      <point x="234.0" y="562"/>
      <point x="219.0" y="562" type="curve" smooth="yes"/>
      <point x="203.0" y="562" type="line" smooth="yes"/>
      <point x="180.0" y="562"/>
      <point x="170.0" y="553"/>
      <point x="170.0" y="531" type="curve" smooth="yes"/>
      <point x="170.0" y="158" type="line"/>
      <point x="180.0" y="158" type="line"/>
      <point x="180.0" y="531" type="line" smooth="yes"/>
      <point x="180.0" y="542"/>
      <point x="184.0" y="552"/>
      <point x="203.0" y="552" type="curve" smooth="yes"/>
      <point x="217.0" y="552" type="line" smooth="yes"/>
      <point x="230.0" y="552"/>
      <point x="237.0" y="549"/>
      <point x="248.0" y="538" type="curve" smooth="yes"/>
      <point x="624.0" y="167" type="line"/>
      <point x="636.0" y="157"/>
      <point x="646.0" y="150"/>
      <point x="661.0" y="150" type="curve" smooth="yes"/>
      <point x="677.0" y="150" type="line" smooth="yes"/>
      <point x="700.0" y="150"/>
      <point x="710.0" y="159"/>
      <point x="710.0" y="181" type="curve" smooth="yes"/>
      <point x="710.0" y="570" type="line"/>
      <point x="700.0" y="570" type="line"/>
      <point x="700.0" y="181" type="line" smooth="yes"/>
      <point x="700.0" y="170"/>
      <point x="696.0" y="160"/>
      <point x="677.0" y="160" type="curve" smooth="yes"/>
      <point x="663.0" y="160" type="line" smooth="yes"/>
      <point x="650.0" y="160"/>
      <point x="644.0" y="164"/>
      <point x="632.0" y="174" type="curve"/>
    </contour>
  </outline>
</glyph>
<glyph name="bracketleft" format="1">
  <advance width="429"/>
  <unicode hex="005B"/>
  <outline>
    <contour>
      <point x="157.0" y="709" type="line"/>
      <point x="157.0" y="12" type="line"/>
      <point x="294.0" y="12" type="line"/>
      <point x="294.0" y="22" type="line"/>
      <point x="167.0" y="22" type="line"/>
      <point x="167.0" y="699" type="line"/>
      <point x="294.0" y="699" type="line"/>
      <point x="294.0" y="709" type="line"/>
    </contour>
  </outline>
</glyph>
<glyph name="backslash" format="1">
  <advance width="909"/>
  <unicode hex="005C"/>
  <outline>
    <contour>
      <point x="95.0" y="313" type="line"/>
      <point x="95.0" y="303" type="line"/>
      <point x="815.0" y="407" type="line"/>
      <point x="815.0" y="417" type="line"/>
    </contour>
  </outline>
</glyph>
<glyph name="bracketright" format="2">
  <advance width="429"/>
  <unicode hex="005D"/>
  <outline>
    <contour>
      <point x="272.0" y="709" type="line"/>
      <point x="135.0" y="709" type="line"/>
      <point x="135.0" y="699" type="line"/>
      <point x="262.0" y="699" type="line"/>
      <point x="262.0" y="22" type="line"/>
      <point x="135.0" y="22" type="line"/>
      <point x="135.0" y="12" type="line"/>
      <point x="272.0" y="12" type="line"/>
    </contour>
  </outline>
</glyph>
<glyph name="asciicircum" format="1">
  <advance width="686"/>
  <unicode hex="005E"/>
  <outline>
    <contour>
      <point x="516.0" y="533" type="line"/>
      <point x="213.0" y="446" type="line" smooth="yes"/>
      <point x="178.0" y="436"/>
      <point x="151.0" y="426"/>
      <point x="151.0" y="379" type="curve" smooth="yes"/>
      <point x="151.0" y="306" type="line" smooth="yes"/>
      <point x="151.0" y="259"/>
      <point x="177.0" y="249"/>
      <point x="214.0" y="239" type="curve" smooth="yes"/>
      <point x="516.0" y="153" type="line"/>
      <point x="516.0" y="164" type="line"/>
      <point x="216.0" y="249" type="line" smooth="yes"/>
      <point x="185.0" y="258"/>
      <point x="161.0" y="265"/>
      <point x="161.0" y="306" type="curve" smooth="yes"/>
      <point x="161.0" y="379" type="line" smooth="yes"/>
      <point x="161.0" y="420"/>
      <point x="186.0" y="428"/>
      <point x="215.0" y="436" type="curve" smooth="yes"/>
      <point x="516.0" y="522" type="line"/>
    </contour>
  </outline>
</glyph>
<glyph name="underscore" format="2">
  <advance width="346"/>
  <unicode hex="005F"/>
  <outline>
    <contour>
      <point x="168.0" y="567" type="line"/>
      <point x="168.0" y="153" type="line"/>
      <point x="178.0" y="153" type="line"/>
      <point x="178.0" y="567" type="line"/>
    </contour>
  </outline>
</glyph>
<glyph name="grave" format="1">
  <advance width="262"/>
  <unicode hex="0060"/>
  <outline>
    <contour>
      <point x="121.0" y="240" type="line"/>
      <point x="151.0" y="479" type="line"/>
      <point x="141.0" y="479" type="line"/>
      <point x="111.0" y="240" type="line"/>
    </contour>
    <contour>
      <point x="241.0" y="360.0" type="move" name="_top"/>
    </contour>
    <contour>
      <point x="988.0" y="360.0" type="move" name="_bottom"/>
    </contour>
  </outline>
</glyph>
<glyph name="braceleft" format="1">
  <advance width="455"/>
  <unicode hex="007B"/>
  <outline>
    <contour>
      <point x="320.0" y="12" type="curve"/>
      <point x="320.0" y="22" type="line"/>
      <point x="241.0" y="22"/>
      <point x="203.0" y="55"/>
      <point x="203.0" y="125" type="curve" smooth="yes"/>
      <point x="203.0" y="284" type="line"/>
      <point x="157.0" y="289"/>
      <point x="139.0" y="308"/>
      <point x="139.0" y="345" type="curve" smooth="yes"/>
      <point x="139.0" y="373" type="line" smooth="yes"/>
      <point x="139.0" y="410"/>
      <point x="156.0" y="429"/>
      <point x="203.0" y="434" type="curve"/>
      <point x="203.0" y="596" type="line" smooth="yes"/>
      <point x="203.0" y="675"/>
      <point x="240.0" y="699"/>
      <point x="320.0" y="699" type="curve"/>
      <point x="320.0" y="709" type="line"/>
      <point x="232.0" y="709"/>
      <point x="193.0" y="681"/>
      <point x="193.0" y="596" type="curve" smooth="yes"/>
      <point x="193.0" y="442" type="line"/>
      <point x="153.0" y="436"/>
      <point x="129.0" y="416"/>
      <point x="129.0" y="373" type="curve" smooth="yes"/>
      <point x="129.0" y="345" type="line" smooth="yes"/>
      <point x="129.0" y="303"/>
      <point x="153.0" y="282"/>
      <point x="193.0" y="276" type="curve"/>
      <point x="193.0" y="125" type="line" smooth="yes"/>
      <point x="193.0" y="49"/>
      <point x="233.0" y="12"/>
    </contour>
  </outline>
</glyph>
<glyph name="bar" format="1">
  <advance width="1030"/>
  <unicode hex="007C"/>
  <outline>
    <contour>
      <point x="155.0" y="355" type="line"/>
      <point x="875.0" y="355" type="line"/>
      <point x="875.0" y="365" type="line"/>
      <point x="155.0" y="365" type="line"/>
    </contour>
  </outline>
</glyph>
<glyph name="braceright" format="1">
  <advance width="455"/>
  <unicode hex="007D"/>
  <outline>
    <contour>
      <point x="262.0" y="125" type="curve" smooth="yes"/>
      <point x="262.0" y="276" type="line"/>
      <point x="302.0" y="282"/>
      <point x="326.0" y="303"/>
      <point x="326.0" y="345" type="curve" smooth="yes"/>
      <point x="326.0" y="373" type="line" smooth="yes"/>
      <point x="326.0" y="416"/>
      <point x="302.0" y="436"/>
      <point x="262.0" y="442" type="curve"/>
      <point x="262.0" y="596" type="line" smooth="yes"/>
      <point x="262.0" y="681"/>
      <point x="223.0" y="709"/>
      <point x="135.0" y="709" type="curve"/>
      <point x="135.0" y="699" type="line"/>
      <point x="215.0" y="699"/>
      <point x="252.0" y="675"/>
      <point x="252.0" y="596" type="curve" smooth="yes"/>
      <point x="252.0" y="434" type="line"/>
      <point x="299.0" y="429"/>
      <point x="316.0" y="410"/>
      <point x="316.0" y="373" type="curve" smooth="yes"/>
      <point x="316.0" y="345" type="line" smooth="yes"/>
      <point x="316.0" y="308"/>
      <point x="298.0" y="289"/>
      <point x="252.0" y="284" type="curve"/>
      <point x="252.0" y="125" type="line" smooth="yes"/>
      <point x="252.0" y="55"/>
      <point x="214.0" y="22"/>
      <point x="135.0" y="22" type="curve"/>
      <point x="135.0" y="12" type="line"/>
      <point x="222.0" y="12"/>
      <point x="262.0" y="49"/>
    </contour>
  </outline>
</glyph>
<glyph name="asciitilde" format="1">
  <advance width="363"/>
  <unicode hex="007E"/>
  <outline>
    <contour>
      <point x="183.0" y="153" type="line"/>
      <point x="170.0" y="202"/>
      <point x="168.0" y="233"/>
      <point x="181.0" y="319" type="curve" smooth="yes"/>
      <point x="186.0" y="359" type="line"/>
      <point x="189.0" y="382" type="line" smooth="yes"/>
      <point x="202.0" y="472"/>
      <point x="210.0" y="506"/>
      <point x="194.0" y="567" type="curve"/>
      <point x="183.0" y="567" type="line"/>
      <point x="200.0" y="506"/>
      <point x="193.0" y="474"/>
      <point x="179.0" y="384" type="curve" smooth="yes"/>
      <point x="176.0" y="361" type="line"/>
      <point x="171.0" y="321" type="line" smooth="yes"/>
      <point x="158.0" y="234"/>
      <point x="159.0" y="201"/>
      <point x="172.0" y="153" type="curve"/>
    </contour>
  </outline>
</glyph>
<glyph name="exclamdown" format="1">
  <advance width="830"/>
  <unicode hex="00A1"/>
  <outline>
    <contour>
      <point x="685.0" y="366" type="line"/>
      <point x="407.0" y="366" type="line"/>
      <point x="407.0" y="356" type="line"/>
      <point x="685.0" y="356" type="line"/>
    </contour>
    <contour>
      <point x="135.0" y="356" type="line"/>
      <point x="178.0" y="356" type="line"/>
      <point x="178.0" y="366" type="line"/>
      <point x="135.0" y="366" type="line"/>
    </contour>
  </outline>
</glyph>
<glyph name="cent" format="1">
  <advance width="930"/>
  <unicode hex="00A2"/>
  <outline>
    <contour>
      <point x="237.0" y="414" type="line"/>
      <point x="145.0" y="414" type="line"/>
      <point x="145.0" y="404" type="line"/>
      <point x="237.0" y="404" type="line"/>
      <point x="237.0" y="372" type="line" smooth="yes"/>
      <point x="237.0" y="244"/>
      <point x="273.0" y="212"/>
      <point x="368.0" y="212" type="curve" smooth="yes"/>
      <point x="565.0" y="212" type="line" smooth="yes"/>
      <point x="658.0" y="212"/>
      <point x="694.0" y="242"/>
      <point x="694.0" y="372" type="curve" smooth="yes"/>
      <point x="694.0" y="404" type="line"/>
      <point x="785.0" y="404" type="line"/>
      <point x="785.0" y="414" type="line"/>
      <point x="694.0" y="414" type="line"/>
      <point x="694.0" y="539" type="line"/>
      <point x="684.0" y="539" type="line"/>
      <point x="684.0" y="372" type="line" smooth="yes"/>
      <point x="684.0" y="252"/>
      <point x="652.0" y="222"/>
      <point x="565.0" y="222" type="curve" smooth="yes"/>
      <point x="368.0" y="222" type="line" smooth="yes"/>
      <point x="279.0" y="222"/>
      <point x="247.0" y="254"/>
      <point x="247.0" y="372" type="curve" smooth="yes"/>
      <point x="247.0" y="539" type="line"/>
      <point x="237.0" y="539" type="line"/>
    </contour>
  </outline>
</glyph>
<glyph name="sterling" format="1">
  <advance width="880"/>
  <unicode hex="00A3"/>
  <outline>
    <contour>
      <point x="710.0" y="190" type="line"/>
      <point x="710.0" y="558" type="line"/>
      <point x="563.0" y="558" type="line"/>
      <point x="563.0" y="548" type="line"/>
      <point x="700.0" y="548" type="line"/>
      <point x="700.0" y="200" type="line"/>
      <point x="451.0" y="200" type="line"/>
      <point x="451.0" y="302" type="line"/>
      <point x="441.0" y="302" type="line"/>
      <point x="441.0" y="200" type="line"/>
      <point x="284.0" y="200" type="line" smooth="yes"/>
      <point x="203.0" y="200"/>
      <point x="180.0" y="249"/>
      <point x="180.0" y="327" type="curve" smooth="yes"/>
      <point x="180.0" y="463" type="line"/>
      <point x="170.0" y="463" type="line"/>
      <point x="170.0" y="327" type="line" smooth="yes"/>
      <point x="170.0" y="241"/>
      <point x="197.0" y="190"/>
      <point x="284.0" y="190" type="curve" smooth="yes"/>
      <point x="441.0" y="190" type="line"/>
      <point x="441.0" y="122" type="line"/>
      <point x="451.0" y="122" type="line"/>
      <point x="451.0" y="190" type="line"/>
    </contour>
  </outline>
</glyph>
<glyph name="currency" format="2">
  <advance width="884"/>
  <unicode hex="00A4"/>
  <outline>
    <contour>
      <point x="687.0" y="108" type="line"/>
      <point x="693.0" y="116" type="line"/>
      <point x="599.0" y="208" type="line"/>
      <point x="631.0" y="231"/>
      <point x="649.0" y="277"/>
      <point x="649.0" y="361" type="curve" smooth="yes"/>
      <point x="649.0" y="445"/>
      <point x="630.0" y="490"/>
      <point x="599.0" y="514" type="curve"/>
      <point x="693.0" y="606" type="line"/>
      <point x="687.0" y="614" type="line"/>
      <point x="590.0" y="519" type="line"/>
      <point x="569.0" y="532"/>
      <point x="543.0" y="536"/>
      <point x="513.0" y="536" type="curve" smooth="yes"/>
      <point x="371.0" y="536" type="line" smooth="yes"/>
      <point x="340.0" y="536"/>
      <point x="313.0" y="531"/>
      <point x="291.0" y="518" type="curve"/>
      <point x="195.0" y="612" type="line"/>
      <point x="189.0" y="604" type="line"/>
      <point x="283.0" y="512" type="line"/>
      <point x="252.0" y="489"/>
      <point x="234.0" y="443"/>
      <point x="234.0" y="361" type="curve" smooth="yes"/>
      <point x="234.0" y="278"/>
      <point x="252.0" y="233"/>
      <point x="282.0" y="209" type="curve"/>
      <point x="189.0" y="118" type="line"/>
      <point x="195.0" y="110" type="line"/>
      <point x="290.0" y="203" type="line"/>
      <point x="312.0" y="189"/>
      <point x="340.0" y="185"/>
      <point x="371.0" y="185" type="curve" smooth="yes"/>
      <point x="513.0" y="185" type="line" smooth="yes"/>
      <point x="543.0" y="185"/>
      <point x="570.0" y="189"/>
      <point x="591.0" y="202" type="curve"/>
    </contour>
    <contour>
      <point x="639.0" y="361" type="curve" smooth="yes"/>
      <point x="639.0" y="225"/>
      <point x="589.0" y="195"/>
      <point x="513.0" y="195" type="curve" smooth="yes"/>
      <point x="371.0" y="195" type="line" smooth="yes"/>
      <point x="294.0" y="195"/>
      <point x="244.0" y="225"/>
      <point x="244.0" y="361" type="curve" smooth="yes"/>
      <point x="244.0" y="496"/>
      <point x="294.0" y="526"/>
      <point x="371.0" y="526" type="curve" smooth="yes"/>
      <point x="513.0" y="526" type="line" smooth="yes"/>
      <point x="589.0" y="526"/>
      <point x="639.0" y="496"/>
    </contour>
  </outline>
</glyph>
<glyph name="yen" format="1">
  <advance width="880"/>
  <unicode hex="00A5"/>
  <outline>
    <contour>
      <point x="337.0" y="183" type="curve" smooth="yes"/>
      <point x="452.0" y="269" type="line" smooth="yes"/>
      <point x="482.0" y="291"/>
      <point x="491.0" y="309"/>
      <point x="491.0" y="338" type="curve" smooth="yes"/>
      <point x="491.0" y="356" type="line"/>
      <point x="581.0" y="356" type="line"/>
      <point x="581.0" y="193" type="line"/>
      <point x="591.0" y="193" type="line"/>
      <point x="591.0" y="356" type="line"/>
      <point x="710.0" y="356" type="line"/>
      <point x="710.0" y="366" type="line"/>
      <point x="591.0" y="366" type="line"/>
      <point x="591.0" y="527" type="line"/>
      <point x="581.0" y="527" type="line"/>
      <point x="581.0" y="366" type="line"/>
      <point x="491.0" y="366" type="line"/>
      <point x="491.0" y="385" type="line" smooth="yes"/>
      <point x="491.0" y="414"/>
      <point x="482.0" y="432"/>
      <point x="452.0" y="454" type="curve" smooth="yes"/>
      <point x="337.0" y="540" type="line"/>
      <point x="307.0" y="558"/>
      <point x="285.0" y="562"/>
      <point x="240.0" y="562" type="curve" smooth="yes"/>
      <point x="170.0" y="562" type="line"/>
      <point x="170.0" y="552" type="line"/>
      <point x="240.0" y="552" type="line" smooth="yes"/>
      <point x="283.0" y="552"/>
      <point x="303.0" y="548"/>
      <point x="331.0" y="532" type="curve"/>
      <point x="446.0" y="446" type="line" smooth="yes"/>
      <point x="472.0" y="426"/>
      <point x="481.0" y="410"/>
      <point x="481.0" y="385" type="curve" smooth="yes"/>
      <point x="481.0" y="338" type="line" smooth="yes"/>
      <point x="481.0" y="313"/>
      <point x="472.0" y="297"/>
      <point x="446.0" y="277" type="curve" smooth="yes"/>
      <point x="331.0" y="191" type="line"/>
      <point x="303.0" y="175"/>
      <point x="283.0" y="171"/>
      <point x="240.0" y="171" type="curve" smooth="yes"/>
      <point x="170.0" y="171" type="line"/>
      <point x="170.0" y="161" type="line"/>
      <point x="240.0" y="161" type="line" smooth="yes"/>
      <point x="285.0" y="161"/>
      <point x="307.0" y="165"/>
    </contour>
  </outline>
</glyph>
<glyph name="brokenbar" format="2">
  <advance width="1030"/>
  <unicode hex="00A6"/>
  <outline>
    <contour>
      <point x="645.0" y="355" type="line"/>
      <point x="875.0" y="355" type="line"/>
      <point x="875.0" y="365" type="line"/>
      <point x="645.0" y="365" type="line"/>
    </contour>
    <contour>
      <point x="155.0" y="355" type="line"/>
      <point x="385.0" y="355" type="line"/>
      <point x="385.0" y="365" type="line"/>
      <point x="155.0" y="365" type="line"/>
    </contour>
  </outline>
</glyph>
<glyph name="section" format="2">
  <advance width="880"/>
  <unicode hex="00A7"/>
  <outline>
    <contour>
      <point x="407.0" y="201" type="curve" smooth="yes"/>
      <point x="350.0" y="201" type="line"/>
      <point x="350.0" y="404" type="line" smooth="yes"/>
      <point x="350.0" y="503"/>
      <point x="402.0" y="545"/>
      <point x="473.0" y="545" type="curve" smooth="yes"/>
      <point x="530.0" y="545" type="line"/>
      <point x="530.0" y="342" type="line" smooth="yes"/>
      <point x="530.0" y="243"/>
      <point x="477.0" y="201"/>
    </contour>
    <contour>
      <point x="718.0" y="186" type="line"/>
      <point x="728.0" y="186" type="line"/>
      <point x="728.0" y="397" type="line" smooth="yes"/>
      <point x="728.0" y="511"/>
      <point x="696.0" y="555"/>
      <point x="599.0" y="555" type="curve" smooth="yes"/>
      <point x="473.0" y="555" type="line" smooth="yes"/>
      <point x="397.0" y="555"/>
      <point x="340.0" y="511"/>
      <point x="340.0" y="404" type="curve" smooth="yes"/>
      <point x="340.0" y="201" type="line"/>
      <point x="281.0" y="201" type="line" smooth="yes"/>
      <point x="190.0" y="201"/>
      <point x="162.0" y="243"/>
      <point x="162.0" y="349" type="curve" smooth="yes"/>
      <point x="162.0" y="520" type="line"/>
      <point x="152.0" y="520" type="line"/>
      <point x="152.0" y="349" type="line" smooth="yes"/>
      <point x="152.0" y="235"/>
      <point x="184.0" y="191"/>
      <point x="281.0" y="191" type="curve" smooth="yes"/>
      <point x="407.0" y="191" type="line" smooth="yes"/>
      <point x="482.0" y="191"/>
      <point x="540.0" y="235"/>
      <point x="540.0" y="342" type="curve" smooth="yes"/>
      <point x="540.0" y="545" type="line"/>
      <point x="599.0" y="545" type="line" smooth="yes"/>
      <point x="690.0" y="545"/>
      <point x="718.0" y="503"/>
      <point x="718.0" y="397" type="curve" smooth="yes"/>
    </contour>
  </outline>
</glyph>
<glyph name="dieresis" format="1">
  <advance width="271"/>
  <unicode hex="00A8"/>
  <outline>
    <contour>
      <point x="159.0" y="492" type="line"/>
      <point x="112.0" y="492" type="line"/>
      <point x="112.0" y="482" type="line"/>
      <point x="159.0" y="482" type="line"/>
    </contour>
    <contour>
      <point x="159.0" y="234" type="line"/>
      <point x="112.0" y="234" type="line"/>
      <point x="112.0" y="224" type="line"/>
      <point x="159.0" y="224" type="line"/>
    </contour>
    <contour>
      <point x="242.0" y="360.0" type="move" name="_top"/>
    </contour>
    <contour>
      <point x="989.0" y="360.0" type="move" name="_bottom"/>
    </contour>
  </outline>
</glyph>
<glyph name="copyright" format="1">
  <advance width="1025"/>
  <unicode hex="00A9"/>
  <outline>
    <contour>
      <point x="305.0" y="688" type="line" smooth="yes"/>
      <point x="201.0" y="688"/>
      <point x="105.0" y="659"/>
      <point x="105.0" y="360" type="curve" smooth="yes"/>
      <point x="105.0" y="61"/>
      <point x="201.0" y="31"/>
      <point x="305.0" y="31" type="curve" smooth="yes"/>
      <point x="723.0" y="31" type="line" smooth="yes"/>
      <point x="836.0" y="31"/>
      <point x="921.0" y="79"/>
      <point x="921.0" y="360" type="curve" smooth="yes"/>
      <point x="921.0" y="641"/>
      <point x="826.0" y="688"/>
      <point x="723.0" y="688" type="curve" smooth="yes"/>
    </contour>
    <contour>
      <point x="911.0" y="360" type="curve" smooth="yes"/>
      <point x="911.0" y="95"/>
      <point x="832.0" y="41"/>
      <point x="723.0" y="41" type="curve" smooth="yes"/>
      <point x="305.0" y="41" type="line" smooth="yes"/>
      <point x="205.0" y="41"/>
      <point x="115.0" y="75"/>
      <point x="115.0" y="360" type="curve" smooth="yes"/>
      <point x="115.0" y="645"/>
      <point x="205.0" y="678"/>
      <point x="305.0" y="678" type="curve" smooth="yes"/>
      <point x="723.0" y="678" type="line" smooth="yes"/>
      <point x="822.0" y="678"/>
      <point x="911.0" y="625"/>
    </contour>
    <contour>
      <point x="700.0" y="477" type="line"/>
      <point x="690.0" y="477" type="line"/>
      <point x="690.0" y="356" type="line" smooth="yes"/>
      <point x="690.0" y="272"/>
      <point x="667.0" y="249"/>
      <point x="606.0" y="249" type="curve" smooth="yes"/>
      <point x="405.0" y="249" type="line" smooth="yes"/>
      <point x="343.0" y="249"/>
      <point x="320.0" y="273"/>
      <point x="320.0" y="356" type="curve" smooth="yes"/>
      <point x="320.0" y="477" type="line"/>
      <point x="311.0" y="477" type="line"/>
      <point x="311.0" y="356" type="line" smooth="yes"/>
      <point x="311.0" y="266"/>
      <point x="336.0" y="239"/>
      <point x="405.0" y="239" type="curve" smooth="yes"/>
      <point x="606.0" y="239" type="line" smooth="yes"/>
      <point x="674.0" y="239"/>
      <point x="700.0" y="264"/>
      <point x="700.0" y="356" type="curve" smooth="yes"/>
    </contour>
  </outline>
</glyph>
<glyph name="ordfeminine" format="2">
  <advance width="880"/>
  <unicode hex="00AA"/>
  <anchor x="55.0" y="123.0" name="top"/>
  <anchor x="593.0" y="123.0" name="bottom"/>
  <outline>
    <contour>
      <point x="727.0" y="514" type="line"/>
      <point x="727.0" y="206" type="line"/>
      <point x="735.0" y="206" type="line"/>
      <point x="735.0" y="514" type="line"/>
    </contour>
    <contour>
      <point x="530.0" y="213" type="line"/>
      <point x="530.0" y="222" type="line"/>
      <point x="410.0" y="222" type="line"/>
      <point x="410.0" y="495" type="line"/>
      <point x="530.0" y="495" type="line"/>
      <point x="530.0" y="504" type="line"/>
      <point x="380.0" y="504" type="line" smooth="yes"/>
      <point x="354.0" y="504"/>
      <point x="332.0" y="500"/>
      <point x="312.0" y="492" type="curve" smooth="yes"/>
      <point x="197.0" y="443" type="line" smooth="yes"/>
      <point x="170.0" y="432"/>
      <point x="149.0" y="422"/>
      <point x="149.0" y="391" type="curve" smooth="yes"/>
      <point x="149.0" y="321" type="line" smooth="yes"/>
      <point x="149.0" y="289"/>
      <point x="170.0" y="280"/>
      <point x="196.0" y="270" type="curve" smooth="yes"/>
      <point x="312.0" y="225" type="line"/>
      <point x="332.0" y="217"/>
      <point x="354.0" y="213"/>
      <point x="380.0" y="213" type="curve" smooth="yes"/>
    </contour>
    <contour>
      <point x="380.0" y="222" type="line"/>
      <point x="355.0" y="222"/>
      <point x="334.0" y="226"/>
      <point x="315.0" y="233" type="curve"/>
      <point x="199.0" y="278" type="line"/>
      <point x="175.0" y="288"/>
      <point x="158.0" y="295"/>
      <point x="158.0" y="323" type="curve" smooth="yes"/>
      <point x="158.0" y="390" type="line" smooth="yes"/>
      <point x="158.0" y="417"/>
      <point x="175.0" y="424"/>
      <point x="200.0" y="435" type="curve"/>
      <point x="315.0" y="483" type="line"/>
      <point x="334.0" y="490"/>
      <point x="355.0" y="495"/>
      <point x="380.0" y="495" type="curve"/>
      <point x="401.0" y="495" type="line"/>
      <point x="401.0" y="222" type="line"/>
    </contour>
  </outline>
</glyph>
<glyph name="guillemotleft" format="1">
  <advance width="812"/>
  <unicode hex="00AB"/>
  <outline>
    <contour>
      <point x="204.0" y="263" type="line" smooth="yes"/>
      <point x="174.0" y="272"/>
      <point x="151.0" y="283"/>
      <point x="151.0" y="324" type="curve" smooth="yes"/>
      <point x="151.0" y="398" type="line" smooth="yes"/>
      <point x="151.0" y="439"/>
      <point x="174.0" y="449"/>
      <point x="205.0" y="459" type="curve" smooth="yes"/>
      <point x="302.0" y="489" type="line"/>
      <point x="302.0" y="499" type="line"/>
      <point x="203.0" y="469" type="line" smooth="yes"/>
      <point x="166.0" y="458"/>
      <point x="141.0" y="445"/>
      <point x="141.0" y="398" type="curve" smooth="yes"/>
      <point x="141.0" y="324" type="line" smooth="yes"/>
      <point x="141.0" y="277"/>
      <point x="166.0" y="263"/>
      <point x="202.0" y="253" type="curve" smooth="yes"/>
      <point x="302.0" y="224" type="line"/>
      <point x="302.0" y="234" type="line"/>
    </contour>
    <contour>
      <point x="573.0" y="469" type="line" smooth="yes"/>
      <point x="536.0" y="458"/>
      <point x="511.0" y="445"/>
      <point x="511.0" y="398" type="curve" smooth="yes"/>
      <point x="511.0" y="324" type="line" smooth="yes"/>
      <point x="511.0" y="277"/>
      <point x="536.0" y="263"/>
      <point x="572.0" y="253" type="curve" smooth="yes"/>
      <point x="672.0" y="224" type="line"/>
      <point x="672.0" y="234" type="line"/>
      <point x="574.0" y="263" type="line" smooth="yes"/>
      <point x="544.0" y="271"/>
      <point x="521.0" y="283"/>
      <point x="521.0" y="324" type="curve" smooth="yes"/>
      <point x="521.0" y="398" type="line" smooth="yes"/>
      <point x="521.0" y="439"/>
      <point x="544.0" y="450"/>
      <point x="575.0" y="459" type="curve" smooth="yes"/>
      <point x="672.0" y="489" type="line"/>
      <point x="672.0" y="499" type="line"/>
    </contour>
  </outline>
</glyph>
<glyph name="logicalnot" format="1">
  <advance width="574"/>
  <unicode hex="00AC"/>
  <outline>
    <contour>
      <point x="170.0" y="557" type="line"/>
      <point x="412.0" y="557" type="line"/>
      <point x="412.0" y="567" type="line"/>
      <point x="160.0" y="567" type="line"/>
      <point x="160.0" y="153" type="line"/>
      <point x="170.0" y="153" type="line"/>
    </contour>
  </outline>
</glyph>
<glyph name="registered" format="1">
  <advance width="666"/>
  <unicode hex="00AE"/>
  <outline>
    <contour>
      <point x="214.0" y="559" type="line" smooth="yes"/>
      <point x="133.0" y="559"/>
      <point x="86.0" y="523"/>
      <point x="86.0" y="360" type="curve" smooth="yes"/>
      <point x="86.0" y="198"/>
      <point x="133.0" y="161"/>
      <point x="214.0" y="161" type="curve" smooth="yes"/>
      <point x="454.0" y="161" type="line" smooth="yes"/>
      <point x="533.0" y="161"/>
      <point x="580.0" y="198"/>
      <point x="580.0" y="360" type="curve" smooth="yes"/>
      <point x="580.0" y="523"/>
      <point x="533.0" y="559"/>
      <point x="454.0" y="559" type="curve" smooth="yes"/>
    </contour>
    <contour>
      <point x="570.0" y="360" type="curve" smooth="yes"/>
      <point x="570.0" y="210"/>
      <point x="529.0" y="171"/>
      <point x="454.0" y="171" type="curve" smooth="yes"/>
      <point x="214.0" y="171" type="line" smooth="yes"/>
      <point x="137.0" y="171"/>
      <point x="96.0" y="210"/>
      <point x="96.0" y="360" type="curve" smooth="yes"/>
      <point x="96.0" y="511"/>
      <point x="137.0" y="549"/>
      <point x="214.0" y="549" type="curve" smooth="yes"/>
      <point x="454.0" y="549" type="line" smooth="yes"/>
      <point x="529.0" y="549"/>
      <point x="570.0" y="511"/>
    </contour>
    <contour>
      <point x="213.0" y="277" type="line"/>
      <point x="441.0" y="277" type="line"/>
      <point x="441.0" y="287" type="line"/>
      <point x="347.0" y="287" type="line"/>
      <point x="347.0" y="400" type="line" smooth="yes"/>
      <point x="347.0" y="427"/>
      <point x="360.0" y="442"/>
      <point x="384.0" y="442" type="curve" smooth="yes"/>
      <point x="441.0" y="442" type="line"/>
      <point x="441.0" y="452" type="line"/>
      <point x="384.0" y="452" type="line" smooth="yes"/>
      <point x="356.0" y="452"/>
      <point x="339.0" y="437"/>
      <point x="337.0" y="404" type="curve"/>
      <point x="328.0" y="419"/>
      <point x="314.0" y="423"/>
      <point x="297.0" y="423" type="curve" smooth="yes"/>
      <point x="268.0" y="423" type="line" smooth="yes"/>
      <point x="236.0" y="423"/>
      <point x="213.0" y="402"/>
      <point x="213.0" y="356" type="curve" smooth="yes"/>
    </contour>
    <contour>
      <point x="223.0" y="356" type="line" smooth="yes"/>
      <point x="223.0" y="394"/>
      <point x="240.0" y="413"/>
      <point x="268.0" y="413" type="curve" smooth="yes"/>
      <point x="297.0" y="413" type="line" smooth="yes"/>
      <point x="323.0" y="413"/>
      <point x="337.0" y="400"/>
      <point x="337.0" y="356" type="curve" smooth="yes"/>
      <point x="337.0" y="287" type="line"/>
      <point x="223.0" y="287" type="line"/>
    </contour>
  </outline>
</glyph>
<glyph name="macron" format="2">
  <advance width="249"/>
  <unicode hex="00AF"/>
  <unicode hex="0304"/>
  <anchor x="220.0" y="360.0" name="_top"/>
  <anchor x="967.0" y="360.0" name="_bottom"/>
  <outline>
    <contour>
      <point x="120.0" y="240" type="line"/>
      <point x="130.0" y="240" type="line"/>
      <point x="130.0" y="479" type="line"/>
      <point x="120.0" y="479" type="line"/>
    </contour>
  </outline>
</glyph>
<glyph name="degree" format="1">
  <advance width="540"/>
  <unicode hex="00B0"/>
  <outline>
    <contour>
      <point x="206.0" y="488" type="line" smooth="yes"/>
      <point x="148.0" y="488"/>
      <point x="126.0" y="459"/>
      <point x="126.0" y="360" type="curve" smooth="yes"/>
      <point x="126.0" y="262"/>
      <point x="148.0" y="232"/>
      <point x="206.0" y="232" type="curve" smooth="yes"/>
      <point x="335.0" y="232" type="line" smooth="yes"/>
      <point x="393.0" y="232"/>
      <point x="414.0" y="262"/>
      <point x="414.0" y="360" type="curve" smooth="yes"/>
      <point x="414.0" y="459"/>
      <point x="393.0" y="488"/>
      <point x="335.0" y="488" type="curve" smooth="yes"/>
    </contour>
    <contour>
      <point x="404.0" y="360" type="curve" smooth="yes"/>
      <point x="404.0" y="272"/>
      <point x="387.0" y="242"/>
      <point x="335.0" y="242" type="curve" smooth="yes"/>
      <point x="206.0" y="242" type="line" smooth="yes"/>
      <point x="154.0" y="242"/>
      <point x="136.0" y="272"/>
      <point x="136.0" y="360" type="curve" smooth="yes"/>
      <point x="136.0" y="449"/>
      <point x="154.0" y="478"/>
      <point x="206.0" y="478" type="curve" smooth="yes"/>
      <point x="335.0" y="478" type="line" smooth="yes"/>
      <point x="387.0" y="478"/>
      <point x="404.0" y="449"/>
    </contour>
  </outline>
</glyph>
<glyph name="twosuperior" format="2">
  <advance width="798"/>
  <unicode hex="00B2"/>
  <outline>
    <contour>
      <point x="421.0" y="275" type="line" smooth="yes"/>
      <point x="431.0" y="244"/>
      <point x="445.0" y="234"/>
      <point x="481.0" y="234" type="curve" smooth="yes"/>
      <point x="594.0" y="234" type="line"/>
      <point x="594.0" y="486" type="line"/>
      <point x="585.0" y="486" type="line"/>
      <point x="585.0" y="243" type="line"/>
      <point x="481.0" y="243" type="line" smooth="yes"/>
      <point x="450.0" y="243"/>
      <point x="439.0" y="251"/>
      <point x="430.0" y="278" type="curve" smooth="yes"/>
      <point x="374.0" y="445" type="line"/>
      <point x="368.0" y="462"/>
      <point x="356.0" y="472"/>
      <point x="333.0" y="472" type="curve" smooth="yes"/>
      <point x="267.0" y="472" type="line" smooth="yes"/>
      <point x="218.0" y="472"/>
      <point x="204.0" y="444"/>
      <point x="204.0" y="394" type="curve" smooth="yes"/>
      <point x="204.0" y="249" type="line"/>
      <point x="213.0" y="249" type="line"/>
      <point x="213.0" y="394" type="line" smooth="yes"/>
      <point x="213.0" y="436"/>
      <point x="224.0" y="462"/>
      <point x="267.0" y="462" type="curve" smooth="yes"/>
      <point x="333.0" y="462" type="line" smooth="yes"/>
      <point x="350.0" y="462"/>
      <point x="361.0" y="454"/>
      <point x="366.0" y="443" type="curve"/>
    </contour>
  </outline>
</glyph>
<glyph name="threesuperior" format="1">
  <advance width="798"/>
  <unicode hex="00B3"/>
  <outline>
    <contour>
      <point x="401.0" y="291" type="line"/>
      <point x="401.0" y="400" type="line" smooth="yes"/>
      <point x="401.0" y="454"/>
      <point x="424.0" y="477"/>
      <point x="472.0" y="477" type="curve" smooth="yes"/>
      <point x="521.0" y="477" type="line" smooth="yes"/>
      <point x="560.0" y="477"/>
      <point x="585.0" y="462"/>
      <point x="585.0" y="391" type="curve" smooth="yes"/>
      <point x="585.0" y="232" type="line"/>
      <point x="594.0" y="232" type="line"/>
      <point x="594.0" y="391" type="line" smooth="yes"/>
      <point x="594.0" y="472"/>
      <point x="565.0" y="486"/>
      <point x="521.0" y="486" type="curve" smooth="yes"/>
      <point x="472.0" y="486" type="line" smooth="yes"/>
      <point x="421.0" y="486"/>
      <point x="394.0" y="462"/>
      <point x="394.0" y="401" type="curve" smooth="yes"/>
      <point x="394.0" y="390" type="line"/>
      <point x="385.0" y="434"/>
      <point x="354.0" y="438"/>
      <point x="327.0" y="438" type="curve" smooth="yes"/>
      <point x="281.0" y="438" type="line" smooth="yes"/>
      <point x="238.0" y="438"/>
      <point x="204.0" y="424"/>
      <point x="204.0" y="343" type="curve" smooth="yes"/>
      <point x="204.0" y="232" type="line"/>
      <point x="213.0" y="232" type="line"/>
      <point x="213.0" y="343" type="line"/>
      <point x="213.0" y="413"/>
      <point x="242.0" y="429"/>
      <point x="278.0" y="429" type="curve" smooth="yes"/>
      <point x="327.0" y="429" type="line" smooth="yes"/>
      <point x="361.0" y="429"/>
      <point x="392.0" y="422"/>
      <point x="392.0" y="350" type="curve" smooth="yes"/>
      <point x="392.0" y="291" type="line"/>
    </contour>
  </outline>
</glyph>
<glyph name="acute" format="2">
  <advance width="262"/>
  <unicode hex="00B4"/>
  <anchor x="241.0" y="360.0" name="_top"/>
  <anchor x="988.0" y="360.0" name="_bottom"/>
  <outline>
    <contour>
      <point x="141.0" y="240" type="line"/>
      <point x="151.0" y="240" type="line"/>
      <point x="121.0" y="479" type="line"/>
      <point x="111.0" y="479" type="line"/>
    </contour>
  </outline>
</glyph>
<glyph name="paragraph" format="1">
  <advance width="880"/>
  <unicode hex="00B6"/>
  <outline>
    <contour>
      <point x="375.0" y="152" type="curve" smooth="yes"/>
      <point x="306.0" y="152" type="line" smooth="yes"/>
      <point x="234.0" y="152"/>
      <point x="180.0" y="174"/>
      <point x="180.0" y="292" type="curve" smooth="yes"/>
      <point x="180.0" y="534" type="line"/>
      <point x="498.0" y="534" type="line"/>
      <point x="498.0" y="292" type="line" smooth="yes"/>
      <point x="498.0" y="174"/>
      <point x="447.0" y="152"/>
    </contour>
    <contour>
      <point x="508.0" y="306" type="line"/>
      <point x="508.0" y="534" type="line"/>
      <point x="710.0" y="534" type="line"/>
      <point x="710.0" y="544" type="line"/>
      <point x="170.0" y="544" type="line"/>
      <point x="170.0" y="292" type="line" smooth="yes"/>
      <point x="170.0" y="166"/>
      <point x="228.0" y="142"/>
      <point x="306.0" y="142" type="curve" smooth="yes"/>
      <point x="375.0" y="142" type="line" smooth="yes"/>
      <point x="453.0" y="142"/>
      <point x="508.0" y="166"/>
      <point x="508.0" y="292" type="curve" smooth="yes"/>
      <point x="508.0" y="296" type="line"/>
      <point x="710.0" y="296" type="line"/>
      <point x="710.0" y="306" type="line"/>
    </contour>
  </outline>
</glyph>
<glyph name="cedilla" format="2">
  <advance width="301"/>
  <unicode hex="00B8"/>
  <anchor x="-599.0" y="360.0" name="_top"/>
  <anchor x="148.0" y="360.0" name="_bottom"/>
  <outline>
    <contour>
      <point x="51.0" y="381" type="line"/>
      <point x="184.0" y="333" type="line"/>
      <point x="184.0" y="343" type="line"/>
      <point x="52.0" y="391" type="line"/>
    </contour>
  </outline>
</glyph>
<glyph name="onesuperior" format="1">
  <advance width="798"/>
  <unicode hex="00B9"/>
  <outline>
    <contour>
      <point x="598.0" y="484" type="line"/>
      <point x="589.0" y="484" type="line"/>
      <point x="589.0" y="374" type="line"/>
      <point x="204.0" y="374" type="line"/>
      <point x="204.0" y="258" type="line"/>
      <point x="213.0" y="258" type="line"/>
      <point x="213.0" y="365" type="line"/>
      <point x="590.0" y="365" type="line"/>
      <point x="590.0" y="244" type="line"/>
      <point x="598.0" y="244" type="line"/>
    </contour>
  </outline>
</glyph>
<glyph name="ordmasculine" format="1">
  <advance width="882"/>
  <unicode hex="00BA"/>
  <outline>
    <contour>
      <point x="729.0" y="511" type="line"/>
      <point x="729.0" y="203" type="line"/>
      <point x="737.0" y="203" type="line"/>
      <point x="737.0" y="511" type="line"/>
    </contour>
    <contour>
      <point x="446.0" y="504" type="curve" smooth="yes"/>
      <point x="237.0" y="504" type="line" smooth="yes"/>
      <point x="178.0" y="504"/>
      <point x="140.0" y="472"/>
      <point x="140.0" y="359" type="curve" smooth="yes"/>
      <point x="140.0" y="247"/>
      <point x="178.0" y="216"/>
      <point x="237.0" y="216" type="curve" smooth="yes"/>
      <point x="446.0" y="216" type="line" smooth="yes"/>
      <point x="504.0" y="216"/>
      <point x="542.0" y="247"/>
      <point x="542.0" y="359" type="curve" smooth="yes"/>
      <point x="542.0" y="472"/>
      <point x="504.0" y="504"/>
    </contour>
    <contour>
      <point x="446.0" y="225" type="curve" smooth="yes"/>
      <point x="237.0" y="225" type="line" smooth="yes"/>
      <point x="185.0" y="225"/>
      <point x="149.0" y="255"/>
      <point x="149.0" y="359" type="curve" smooth="yes"/>
      <point x="149.0" y="464"/>
      <point x="185.0" y="495"/>
      <point x="237.0" y="495" type="curve" smooth="yes"/>
      <point x="446.0" y="495" type="line" smooth="yes"/>
      <point x="498.0" y="495"/>
      <point x="533.0" y="464"/>
      <point x="533.0" y="359" type="curve" smooth="yes"/>
      <point x="533.0" y="255"/>
      <point x="498.0" y="225"/>
    </contour>
    <contour>
      <point x="57.0" y="125.0" type="move" name="top"/>
    </contour>
    <contour>
      <point x="595.0" y="125.0" type="move" name="bottom"/>
    </contour>
  </outline>
</glyph>
<glyph name="guillemotright" format="1">
  <advance width="812"/>
  <unicode hex="00BB"/>
  <outline>
    <contour>
      <point x="510.0" y="223" type="line"/>
      <point x="610.0" y="252" type="line" smooth="yes"/>
      <point x="646.0" y="262"/>
      <point x="671.0" y="276"/>
      <point x="671.0" y="323" type="curve" smooth="yes"/>
      <point x="671.0" y="397" type="line" smooth="yes"/>
      <point x="671.0" y="444"/>
      <point x="646.0" y="457"/>
      <point x="609.0" y="468" type="curve" smooth="yes"/>
      <point x="510.0" y="498" type="line"/>
      <point x="510.0" y="488" type="line"/>
      <point x="607.0" y="458" type="line" smooth="yes"/>
      <point x="638.0" y="448"/>
      <point x="661.0" y="438"/>
      <point x="661.0" y="397" type="curve" smooth="yes"/>
      <point x="661.0" y="323" type="line" smooth="yes"/>
      <point x="661.0" y="282"/>
      <point x="638.0" y="271"/>
      <point x="608.0" y="262" type="curve" smooth="yes"/>
      <point x="510.0" y="233" type="line"/>
    </contour>
    <contour>
      <point x="140.0" y="488" type="line"/>
      <point x="237.0" y="458" type="line" smooth="yes"/>
      <point x="268.0" y="449"/>
      <point x="291.0" y="438"/>
      <point x="291.0" y="397" type="curve" smooth="yes"/>
      <point x="291.0" y="323" type="line" smooth="yes"/>
      <point x="291.0" y="282"/>
      <point x="268.0" y="270"/>
      <point x="238.0" y="262" type="curve" smooth="yes"/>
      <point x="140.0" y="233" type="line"/>
      <point x="140.0" y="223" type="line"/>
      <point x="240.0" y="252" type="line" smooth="yes"/>
      <point x="276.0" y="262"/>
      <point x="301.0" y="276"/>
      <point x="301.0" y="323" type="curve" smooth="yes"/>
      <point x="301.0" y="397" type="line" smooth="yes"/>
      <point x="301.0" y="444"/>
      <point x="276.0" y="457"/>
      <point x="239.0" y="468" type="curve" smooth="yes"/>
      <point x="140.0" y="498" type="line"/>
    </contour>
  </outline>
</glyph>
<glyph name="questiondown" format="1">
  <advance width="847"/>
  <unicode hex="00BF"/>
  <outline>
    <contour>
      <point x="394.0" y="465" type="line"/>
      <point x="424.0" y="249" type="line" smooth="yes"/>
      <point x="428.0" y="218"/>
      <point x="437.0" y="192"/>
      <point x="478.0" y="192" type="curve" smooth="yes"/>
      <point x="592.0" y="192" type="line" smooth="yes"/>
      <point x="665.0" y="192"/>
      <point x="683.0" y="240"/>
      <point x="683.0" y="286" type="curve" smooth="yes"/>
      <point x="683.0" y="555" type="line"/>
      <point x="673.0" y="555" type="line"/>
      <point x="673.0" y="286" type="line" smooth="yes"/>
      <point x="673.0" y="245"/>
      <point x="657.0" y="202"/>
      <point x="592.0" y="202" type="curve" smooth="yes"/>
      <point x="478.0" y="202" type="line" smooth="yes"/>
      <point x="443.0" y="202"/>
      <point x="438.0" y="226"/>
      <point x="434.0" y="251" type="curve" smooth="yes"/>
      <point x="405.0" y="467" type="line"/>
    </contour>
    <contour>
      <point x="135.0" y="442" type="line"/>
      <point x="135.0" y="432" type="line"/>
      <point x="178.0" y="432" type="line"/>
      <point x="178.0" y="442" type="line"/>
    </contour>
  </outline>
</glyph>
<glyph name="Aring" format="1">
  <advance width="1011"/>
  <unicode hex="00C5"/>
  <outline>
    <contour>
      <point x="854.0" y="164" type="line"/>
      <point x="854.0" y="174" type="line"/>
      <point x="682.0" y="174" type="line"/>
      <point x="682.0" y="543" type="line"/>
      <point x="854.0" y="543" type="line"/>
      <point x="854.0" y="553" type="line"/>
      <point x="641.0" y="553" type="line" smooth="yes"/>
      <point x="604.0" y="553"/>
      <point x="572.0" y="549"/>
      <point x="544.0" y="536" type="curve" smooth="yes"/>
      <point x="401.0" y="467" type="line" smooth="yes"/>
      <point x="364.0" y="449"/>
      <point x="334.0" y="439"/>
      <point x="334.0" y="395" type="curve" smooth="yes"/>
      <point x="334.0" y="318" type="line" smooth="yes"/>
      <point x="334.0" y="272"/>
      <point x="364.0" y="261"/>
      <point x="400.0" y="245" type="curve" smooth="yes"/>
      <point x="544.0" y="181" type="line"/>
      <point x="573.0" y="170"/>
      <point x="604.0" y="164"/>
      <point x="641.0" y="164" type="curve" smooth="yes"/>
    </contour>
    <contour>
      <point x="641.0" y="174" type="line"/>
      <point x="605.0" y="174"/>
      <point x="575.0" y="180"/>
      <point x="548.0" y="190" type="curve"/>
      <point x="404.0" y="254" type="line"/>
      <point x="370.0" y="267"/>
      <point x="344.0" y="278"/>
      <point x="344.0" y="318" type="curve" smooth="yes"/>
      <point x="344.0" y="395" type="line" smooth="yes"/>
      <point x="344.0" y="432"/>
      <point x="370.0" y="443"/>
      <point x="405.0" y="458" type="curve"/>
      <point x="548.0" y="527" type="line"/>
      <point x="575.0" y="537"/>
      <point x="605.0" y="543"/>
      <point x="641.0" y="543" type="curve"/>
      <point x="672.0" y="543" type="line"/>
      <point x="672.0" y="174" type="line"/>
    </contour>
    <contour>
      <point x="213.0" y="218" type="line" smooth="yes"/>
      <point x="273.0" y="218"/>
      <point x="313.0" y="240"/>
      <point x="313.0" y="359" type="curve" smooth="yes"/>
      <point x="313.0" y="478"/>
      <point x="273.0" y="502"/>
      <point x="213.0" y="502" type="curve" smooth="yes"/>
      <point x="174.0" y="502" type="line" smooth="yes"/>
      <point x="115.0" y="502"/>
      <point x="73.0" y="478"/>
      <point x="73.0" y="359" type="curve" smooth="yes"/>
      <point x="73.0" y="240"/>
      <point x="114.0" y="218"/>
      <point x="174.0" y="218" type="curve" smooth="yes"/>
    </contour>
    <contour>
      <point x="83.0" y="359" type="curve" smooth="yes"/>
      <point x="83.0" y="466"/>
      <point x="119.0" y="492"/>
      <point x="174.0" y="492" type="curve" smooth="yes"/>
      <point x="213.0" y="492" type="line" smooth="yes"/>
      <point x="269.0" y="492"/>
      <point x="303.0" y="466"/>
      <point x="303.0" y="359" type="curve" smooth="yes"/>
      <point x="303.0" y="252"/>
      <point x="269.0" y="228"/>
      <point x="213.0" y="228" type="curve" smooth="yes"/>
      <point x="174.0" y="228" type="line" smooth="yes"/>
      <point x="118.0" y="228"/>
      <point x="83.0" y="252"/>
    </contour>
  </outline>
</glyph>
<glyph name="AE" format="1">
  <advance width="872"/>
  <unicode hex="00C6"/>
  <outline>
    <contour>
      <point x="501.0" y="126" type="curve" smooth="yes"/>
      <point x="702.0" y="126" type="line"/>
      <point x="702.0" y="136" type="line"/>
      <point x="529.0" y="136" type="line"/>
      <point x="529.0" y="426" type="line"/>
      <point x="702.0" y="426" type="line"/>
      <point x="702.0" y="581" type="line"/>
      <point x="692.0" y="581" type="line"/>
      <point x="692.0" y="436" type="line"/>
      <point x="432.0" y="436" type="line"/>
      <point x="432.0" y="580" type="line"/>
      <point x="422.0" y="580" type="line"/>
      <point x="422.0" y="436" type="line"/>
      <point x="172.0" y="436" type="line"/>
      <point x="172.0" y="581" type="line"/>
      <point x="162.0" y="581" type="line"/>
      <point x="162.0" y="272" type="line" smooth="yes"/>
      <point x="162.0" y="248"/>
      <point x="171.0" y="235"/>
      <point x="206.0" y="221" type="curve" smooth="yes"/>
      <point x="409.0" y="137" type="line" smooth="yes"/>
      <point x="436.0" y="126"/>
      <point x="462.0" y="126"/>
    </contour>
    <contour>
      <point x="501.0" y="136" type="line" smooth="yes"/>
      <point x="464.0" y="136"/>
      <point x="439.0" y="136"/>
      <point x="413.0" y="147" type="curve" smooth="yes"/>
      <point x="210.0" y="231" type="line" smooth="yes"/>
      <point x="182.0" y="243"/>
      <point x="172.0" y="252"/>
      <point x="172.0" y="272" type="curve" smooth="yes"/>
      <point x="172.0" y="426" type="line"/>
      <point x="519.0" y="426" type="line"/>
      <point x="519.0" y="136" type="line"/>
    </contour>
  </outline>
</glyph>
<glyph name="AE" format="2">
  <advance width="872"/>
  <unicode hex="00C6"/>
  <outline>
    <contour>
      <point x="501.0" y="126" type="curve" smooth="yes"/>
      <point x="702.0" y="126" type="line"/>
      <point x="702.0" y="136" type="line"/>
      <point x="529.0" y="136" type="line"/>
      <point x="529.0" y="426" type="line"/>
      <point x="702.0" y="426" type="line"/>
      <point x="702.0" y="581" type="line"/>
      <point x="692.0" y="581" type="line"/>
      <point x="692.0" y="436" type="line"/>
      <point x="432.0" y="436" type="line"/>
      <point x="432.0" y="580" type="line"/>
      <point x="422.0" y="580" type="line"/>
      <point x="422.0" y="436" type="line"/>
      <point x="172.0" y="436" type="line"/>
      <point x="172.0" y="581" type="line"/>
      <point x="162.0" y="581" type="line"/>
      <point x="162.0" y="272" type="line" smooth="yes"/>
      <point x="162.0" y="248"/>
      <point x="171.0" y="235"/>
      <point x="206.0" y="221" type="curve" smooth="yes"/>
      <point x="409.0" y="137" type="line" smooth="yes"/>
      <point x="436.0" y="126"/>
      <point x="462.0" y="126"/>
    </contour>
    <contour>
      <point x="501.0" y="136" type="line" smooth="yes"/>
      <point x="464.0" y="136"/>
      <point x="439.0" y="136"/>
      <point x="413.0" y="147" type="curve" smooth="yes"/>
      <point x="210.0" y="231" type="line" smooth="yes"/>
      <point x="182.0" y="243"/>
      <point x="172.0" y="252"/>
      <point x="172.0" y="272" type="curve" smooth="yes"/>
      <point x="172.0" y="426" type="line"/>
      <point x="519.0" y="426" type="line"/>
      <point x="519.0" y="136" type="line"/>
    </contour>
  </outline>
</glyph>
<glyph name="Eth" format="2">
  <advance width="880"/>
  <unicode hex="00D0"/>
  <outline>
    <contour>
      <point x="441.0" y="91" type="line"/>
      <point x="451.0" y="91" type="line"/>
      <point x="451.0" y="167" type="line"/>
      <point x="710.0" y="167" type="line"/>
      <point x="710.0" y="392" type="line" smooth="yes"/>
      <point x="710.0" y="530"/>
      <point x="651.0" y="552"/>
      <point x="574.0" y="552" type="curve" smooth="yes"/>
      <point x="309.0" y="552" type="line" smooth="yes"/>
      <point x="232.0" y="552"/>
      <point x="170.0" y="528"/>
      <point x="170.0" y="392" type="curve" smooth="yes"/>
      <point x="170.0" y="167" type="line"/>
      <point x="441.0" y="167" type="line"/>
    </contour>
    <contour>
      <point x="451.0" y="271" type="line"/>
      <point x="441.0" y="271" type="line"/>
      <point x="441.0" y="177" type="line"/>
      <point x="180.0" y="177" type="line"/>
      <point x="180.0" y="392" type="line" smooth="yes"/>
      <point x="180.0" y="518"/>
      <point x="236.0" y="542"/>
      <point x="309.0" y="542" type="curve" smooth="yes"/>
      <point x="574.0" y="542" type="line" smooth="yes"/>
      <point x="647.0" y="542"/>
      <point x="700.0" y="520"/>
      <point x="700.0" y="392" type="curve" smooth="yes"/>
      <point x="700.0" y="177" type="line"/>
      <point x="451.0" y="177" type="line"/>
    </contour>
  </outline>
</glyph>
<glyph name="Eth" format="1">
  <advance width="880"/>
  <unicode hex="00D0"/>
  <outline>
    <contour>
      <point x="441.0" y="91" type="line"/>
      <point x="451.0" y="91" type="line"/>
      <point x="451.0" y="167" type="line"/>
      <point x="710.0" y="167" type="line"/>
      <point x="710.0" y="392" type="line" smooth="yes"/>
      <point x="710.0" y="530"/>
      <point x="651.0" y="552"/>
      <point x="574.0" y="552" type="curve" smooth="yes"/>
      <point x="309.0" y="552" type="line" smooth="yes"/>
      <point x="232.0" y="552"/>
      <point x="170.0" y="528"/>
      <point x="170.0" y="392" type="curve" smooth="yes"/>
      <point x="170.0" y="167" type="line"/>
      <point x="441.0" y="167" type="line"/>
    </contour>
    <contour>
      <point x="451.0" y="271" type="line"/>
      <point x="441.0" y="271" type="line"/>
      <point x="441.0" y="177" type="line"/>
      <point x="180.0" y="177" type="line"/>
      <point x="180.0" y="392" type="line" smooth="yes"/>
      <point x="180.0" y="518"/>
      <point x="236.0" y="542"/>
      <point x="309.0" y="542" type="curve" smooth="yes"/>
      <point x="574.0" y="542" type="line" smooth="yes"/>
      <point x="647.0" y="542"/>
      <point x="700.0" y="520"/>
      <point x="700.0" y="392" type="curve" smooth="yes"/>
      <point x="700.0" y="177" type="line"/>
      <point x="451.0" y="177" type="line"/>
    </contour>
  </outline>
</glyph>
<glyph name="multiply" format="1">
  <advance width="692"/>
  <unicode hex="00D7"/>
  <outline>
    <contour>
      <point x="490.0" y="209" type="line"/>
      <point x="497.0" y="216" type="line"/>
      <point x="354.0" y="359" type="line"/>
      <point x="497.0" y="502" type="line"/>
      <point x="490.0" y="509" type="line"/>
      <point x="347.0" y="366" type="line"/>
      <point x="204.0" y="509" type="line"/>
      <point x="197.0" y="502" type="line"/>
      <point x="340.0" y="359" type="line"/>
      <point x="197.0" y="216" type="line"/>
      <point x="204.0" y="209" type="line"/>
      <point x="347.0" y="352" type="line"/>
    </contour>
  </outline>
</glyph>
<glyph name="Oslash" format="2">
  <advance width="884"/>
  <unicode hex="00D8"/>
  <outline>
    <contour>
      <point x="295.0" y="546" type="curve" smooth="yes"/>
      <point x="590.0" y="546" type="line" smooth="yes"/>
      <point x="665.0" y="546"/>
      <point x="715.0" y="503"/>
      <point x="715.0" y="359" type="curve" smooth="yes"/>
      <point x="715.0" y="315"/>
      <point x="710.0" y="281"/>
      <point x="702.0" y="255" type="curve"/>
      <point x="186.0" y="473" type="line"/>
      <point x="207.0" y="527"/>
      <point x="246.0" y="546"/>
    </contour>
    <contour>
      <point x="590.0" y="175" type="curve" smooth="yes"/>
      <point x="295.0" y="175" type="line" smooth="yes"/>
      <point x="220.0" y="175"/>
      <point x="170.0" y="215"/>
      <point x="170.0" y="359" type="curve" smooth="yes"/>
      <point x="170.0" y="403"/>
      <point x="175.0" y="437"/>
      <point x="183.0" y="464" type="curve"/>
      <point x="699.0" y="245" type="line"/>
      <point x="678.0" y="192"/>
      <point x="639.0" y="175"/>
    </contour>
    <contour>
      <point x="590.0" y="165" type="line" smooth="yes"/>
      <point x="644.0" y="165"/>
      <point x="686.0" y="184"/>
      <point x="708.0" y="241" type="curve"/>
      <point x="782.0" y="210" type="line"/>
      <point x="782.0" y="221" type="line"/>
      <point x="711.0" y="251" type="line"/>
      <point x="720.0" y="278"/>
      <point x="725.0" y="314"/>
      <point x="725.0" y="359" type="curve" smooth="yes"/>
      <point x="725.0" y="511"/>
      <point x="671.0" y="556"/>
      <point x="590.0" y="556" type="curve" smooth="yes"/>
      <point x="295.0" y="556" type="line" smooth="yes"/>
      <point x="241.0" y="556"/>
      <point x="199.0" y="536"/>
      <point x="177.0" y="477" type="curve"/>
      <point x="102.0" y="509" type="line"/>
      <point x="102.0" y="498" type="line"/>
      <point x="174.0" y="468" type="line"/>
      <point x="165.0" y="440"/>
      <point x="160.0" y="404"/>
      <point x="160.0" y="359" type="curve" smooth="yes"/>
      <point x="160.0" y="207"/>
      <point x="214.0" y="165"/>
      <point x="295.0" y="165" type="curve" smooth="yes"/>
    </contour>
  </outline>
</glyph>
<glyph name="Oslash" format="1">
  <advance width="884"/>
  <unicode hex="00D8"/>
  <outline>
    <contour>
      <point x="295.0" y="546" type="curve" smooth="yes"/>
      <point x="590.0" y="546" type="line" smooth="yes"/>
      <point x="665.0" y="546"/>
      <point x="715.0" y="503"/>
      <point x="715.0" y="359" type="curve" smooth="yes"/>
      <point x="715.0" y="315"/>
      <point x="710.0" y="281"/>
      <point x="702.0" y="255" type="curve"/>
      <point x="186.0" y="473" type="line"/>
      <point x="207.0" y="527"/>
      <point x="246.0" y="546"/>
    </contour>
    <contour>
      <point x="590.0" y="175" type="curve" smooth="yes"/>
      <point x="295.0" y="175" type="line" smooth="yes"/>
      <point x="220.0" y="175"/>
      <point x="170.0" y="215"/>
      <point x="170.0" y="359" type="curve" smooth="yes"/>
      <point x="170.0" y="403"/>
      <point x="175.0" y="437"/>
      <point x="183.0" y="464" type="curve"/>
      <point x="699.0" y="245" type="line"/>
      <point x="678.0" y="192"/>
      <point x="639.0" y="175"/>
    </contour>
    <contour>
      <point x="590.0" y="165" type="line" smooth="yes"/>
      <point x="644.0" y="165"/>
      <point x="686.0" y="184"/>
      <point x="708.0" y="241" type="curve"/>
      <point x="782.0" y="210" type="line"/>
      <point x="782.0" y="221" type="line"/>
      <point x="711.0" y="251" type="line"/>
      <point x="720.0" y="278"/>
      <point x="725.0" y="314"/>
      <point x="725.0" y="359" type="curve" smooth="yes"/>
      <point x="725.0" y="511"/>
      <point x="671.0" y="556"/>
      <point x="590.0" y="556" type="curve" smooth="yes"/>
      <point x="295.0" y="556" type="line" smooth="yes"/>
      <point x="241.0" y="556"/>
      <point x="199.0" y="536"/>
      <point x="177.0" y="477" type="curve"/>
      <point x="102.0" y="509" type="line"/>
      <point x="102.0" y="498" type="line"/>
      <point x="174.0" y="468" type="line"/>
      <point x="165.0" y="440"/>
      <point x="160.0" y="404"/>
      <point x="160.0" y="359" type="curve" smooth="yes"/>
      <point x="160.0" y="207"/>
      <point x="214.0" y="165"/>
      <point x="295.0" y="165" type="curve" smooth="yes"/>
    </contour>
  </outline>
</glyph>
<glyph name="Thorn" format="2">
  <advance width="850"/>
  <unicode hex="00DE"/>
  <outline>
    <contour>
      <point x="695.0" y="169" type="line"/>
      <point x="695.0" y="179" type="line"/>
      <point x="595.0" y="179" type="line"/>
      <point x="595.0" y="410" type="line" smooth="yes"/>
      <point x="595.0" y="536"/>
      <point x="540.0" y="560"/>
      <point x="462.0" y="560" type="curve" smooth="yes"/>
      <point x="390.0" y="560" type="line" smooth="yes"/>
      <point x="312.0" y="560"/>
      <point x="257.0" y="536"/>
      <point x="257.0" y="410" type="curve" smooth="yes"/>
      <point x="257.0" y="179" type="line"/>
      <point x="155.0" y="179" type="line"/>
      <point x="155.0" y="169" type="line"/>
    </contour>
    <contour>
      <point x="585.0" y="179" type="line"/>
      <point x="267.0" y="179" type="line"/>
      <point x="267.0" y="410" type="line" smooth="yes"/>
      <point x="267.0" y="528"/>
      <point x="318.0" y="550"/>
      <point x="390.0" y="550" type="curve" smooth="yes"/>
      <point x="462.0" y="550" type="line" smooth="yes"/>
      <point x="534.0" y="550"/>
      <point x="585.0" y="528"/>
      <point x="585.0" y="410" type="curve" smooth="yes"/>
    </contour>
  </outline>
</glyph>
<glyph name="Thorn" format="1">
  <advance width="850"/>
  <unicode hex="00DE"/>
  <outline>
    <contour>
      <point x="695.0" y="169" type="line"/>
      <point x="695.0" y="179" type="line"/>
      <point x="595.0" y="179" type="line"/>
      <point x="595.0" y="410" type="line" smooth="yes"/>
      <point x="595.0" y="536"/>
      <point x="540.0" y="560"/>
      <point x="462.0" y="560" type="curve" smooth="yes"/>
      <point x="390.0" y="560" type="line" smooth="yes"/>
      <point x="312.0" y="560"/>
      <point x="257.0" y="536"/>
      <point x="257.0" y="410" type="curve" smooth="yes"/>
      <point x="257.0" y="179" type="line"/>
      <point x="155.0" y="179" type="line"/>
      <point x="155.0" y="169" type="line"/>
    </contour>
    <contour>
      <point x="585.0" y="179" type="line"/>
      <point x="267.0" y="179" type="line"/>
      <point x="267.0" y="410" type="line" smooth="yes"/>
      <point x="267.0" y="528"/>
      <point x="318.0" y="550"/>
      <point x="390.0" y="550" type="curve" smooth="yes"/>
      <point x="462.0" y="550" type="line" smooth="yes"/>
      <point x="534.0" y="550"/>
      <point x="585.0" y="528"/>
      <point x="585.0" y="410" type="curve" smooth="yes"/>
    </contour>
  </outline>
</glyph>
<glyph name="divide" format="1">
  <advance width="738"/>
  <unicode hex="00F7"/>
  <outline>
    <contour>
      <point x="374.0" y="153" type="line"/>
      <point x="374.0" y="567" type="line"/>
      <point x="364.0" y="567" type="line"/>
      <point x="364.0" y="153" type="line"/>
    </contour>
    <contour>
      <point x="612.0" y="355" type="line"/>
      <point x="612.0" y="365" type="line"/>
      <point x="567.0" y="365" type="line"/>
      <point x="567.0" y="355" type="line"/>
    </contour>
    <contour>
      <point x="171.0" y="355" type="line"/>
      <point x="171.0" y="365" type="line"/>
      <point x="126.0" y="365" type="line"/>
      <point x="126.0" y="355" type="line"/>
    </contour>
  </outline>
</glyph>
<glyph name="Hbar" format="2">
  <advance width="880"/>
  <unicode hex="0126"/>
  <outline>
    <contour>
      <point x="548.0" y="543" type="line"/>
      <point x="548.0" y="176" type="line"/>
      <point x="296.0" y="176" type="line"/>
      <point x="296.0" y="543" type="line"/>
    </contour>
    <contour>
      <point x="286.0" y="100" type="line"/>
      <point x="296.0" y="100" type="line"/>
      <point x="296.0" y="166" type="line"/>
      <point x="710.0" y="166" type="line"/>
      <point x="710.0" y="176" type="line"/>
      <point x="558.0" y="176" type="line"/>
      <point x="558.0" y="543" type="line"/>
      <point x="710.0" y="543" type="line"/>
      <point x="710.0" y="553" type="line"/>
      <point x="296.0" y="553" type="line"/>
      <point x="296.0" y="619" type="line"/>
      <point x="286.0" y="619" type="line"/>
      <point x="286.0" y="553" type="line"/>
      <point x="170.0" y="553" type="line"/>
      <point x="170.0" y="543" type="line"/>
      <point x="286.0" y="543" type="line"/>
      <point x="286.0" y="176" type="line"/>
      <point x="170.0" y="176" type="line"/>
      <point x="170.0" y="166" type="line"/>
      <point x="286.0" y="166" type="line"/>
    </contour>
  </outline>
</glyph>
<glyph name="Hbar" format="1">
  <advance width="880"/>
  <unicode hex="0126"/>
  <outline>
    <contour>
      <point x="548.0" y="543" type="line"/>
      <point x="548.0" y="176" type="line"/>
      <point x="296.0" y="176" type="line"/>
      <point x="296.0" y="543" type="line"/>
    </contour>
    <contour>
      <point x="286.0" y="100" type="line"/>
      <point x="296.0" y="100" type="line"/>
      <point x="296.0" y="166" type="line"/>
      <point x="710.0" y="166" type="line"/>
      <point x="710.0" y="176" type="line"/>
      <point x="558.0" y="176" type="line"/>
      <point x="558.0" y="543" type="line"/>
      <point x="710.0" y="543" type="line"/>
      <point x="710.0" y="553" type="line"/>
      <point x="296.0" y="553" type="line"/>
      <point x="296.0" y="619" type="line"/>
      <point x="286.0" y="619" type="line"/>
      <point x="286.0" y="553" type="line"/>
      <point x="170.0" y="553" type="line"/>
      <point x="170.0" y="543" type="line"/>
      <point x="286.0" y="543" type="line"/>
      <point x="286.0" y="176" type="line"/>
      <point x="170.0" y="176" type="line"/>
      <point x="170.0" y="166" type="line"/>
      <point x="286.0" y="166" type="line"/>
    </contour>
  </outline>
</glyph>
<glyph name="IJ" format="1">
  <advance width="859"/>
  <unicode hex="0132"/>
  <outline>
    <contour>
      <point x="697.0" y="412" type="line"/>
      <point x="697.0" y="529"/>
      <point x="638.0" y="551"/>
      <point x="531.0" y="551" type="curve" smooth="yes"/>
      <point x="157.0" y="551" type="line"/>
      <point x="157.0" y="541" type="line"/>
      <point x="531.0" y="541" type="line"/>
      <point x="634.0" y="541"/>
      <point x="687.0" y="519"/>
      <point x="687.0" y="412" type="curve" smooth="yes"/>
      <point x="687.0" y="151" type="line"/>
      <point x="697.0" y="151" type="line"/>
    </contour>
    <contour>
      <point x="367.0" y="179" type="line" smooth="yes"/>
      <point x="157.0" y="179" type="line"/>
      <point x="157.0" y="169" type="line"/>
      <point x="367.0" y="169" type="line"/>
    </contour>
  </outline>
</glyph>
<glyph name="IJ" format="2">
  <advance width="859"/>
  <unicode hex="0132"/>
  <guideline x="833" y="498" angle="90.0" identifier="KFwdAhVaan"/>
  <outline>
    <contour>
      <point x="697.0" y="412" type="line"/>
      <point x="697.0" y="529"/>
      <point x="638.0" y="551"/>
      <point x="531.0" y="551" type="curve" smooth="yes"/>
      <point x="157.0" y="551" type="line"/>
      <point x="157.0" y="541" type="line"/>
      <point x="531.0" y="541" type="line"/>
      <point x="634.0" y="541"/>
      <point x="687.0" y="519"/>
      <point x="687.0" y="412" type="curve" smooth="yes"/>
      <point x="687.0" y="151" type="line"/>
      <point x="697.0" y="151" type="line"/>
    </contour>
    <contour>
      <point x="367.0" y="179" type="line" smooth="yes"/>
      <point x="157.0" y="179" type="line"/>
      <point x="157.0" y="169" type="line"/>
      <point x="367.0" y="169" type="line"/>
    </contour>
  </outline>
</glyph>
<glyph name="Ldot" format="1">
  <advance width="1012"/>
  <unicode hex="013F"/>
  <outline>
    <contour>
      <point x="923.0" y="372" type="line"/>
      <point x="923.0" y="382" type="line"/>
      <point x="868.0" y="382" type="line"/>
      <point x="868.0" y="372" type="line"/>
    </contour>
    <component base="L.s"/>
  </outline>
</glyph>
<glyph name="Lslash" format="1">
  <advance width="855"/>
  <unicode hex="0141"/>
  <outline>
    <contour>
      <point x="400.0" y="94" type="line"/>
      <point x="367.0" y="294" type="line"/>
      <point x="357.0" y="294" type="line"/>
      <point x="390.0" y="94" type="line"/>
    </contour>
    <component base="L"/>
  </outline>
</glyph>
<glyph name="Eng" format="1">
  <advance width="930"/>
  <unicode hex="014A"/>
  <outline>
    <contour>
      <point x="693.0" y="177" type="line"/>
      <point x="276.0" y="177" type="line" smooth="yes"/>
      <point x="201.0" y="177"/>
      <point x="151.0" y="217"/>
      <point x="151.0" y="358" type="curve"/>
      <point x="151.0" y="501"/>
      <point x="201.0" y="540"/>
      <point x="276.0" y="540" type="curve" smooth="yes"/>
      <point x="683.0" y="540" type="line" smooth="yes"/>
      <point x="747.0" y="540"/>
      <point x="772.0" y="505"/>
      <point x="772.0" y="423" type="curve"/>
      <point x="782.0" y="423" type="line"/>
      <point x="782.0" y="515"/>
      <point x="753.0" y="550"/>
      <point x="683.0" y="550" type="curve" smooth="yes"/>
      <point x="276.0" y="550" type="line" smooth="yes"/>
      <point x="195.0" y="550"/>
      <point x="141.0" y="509"/>
      <point x="141.0" y="358" type="curve"/>
      <point x="141.0" y="209"/>
      <point x="195.0" y="167"/>
      <point x="276.0" y="167" type="curve" smooth="yes"/>
      <point x="693.0" y="167" type="line"/>
    </contour>
  </outline>
</glyph>
<glyph name="OE" format="1">
  <advance width="880"/>
  <unicode hex="0152"/>
  <outline>
    <contour>
      <point x="574.0" y="136" type="line" smooth="yes"/>
      <point x="651.0" y="136"/>
      <point x="710.0" y="157"/>
      <point x="710.0" y="286" type="curve" smooth="yes"/>
      <point x="710.0" y="591" type="line"/>
      <point x="700.0" y="591" type="line"/>
      <point x="700.0" y="446" type="line"/>
      <point x="440.0" y="446" type="line"/>
      <point x="440.0" y="590" type="line"/>
      <point x="430.0" y="590" type="line"/>
      <point x="430.0" y="446" type="line"/>
      <point x="180.0" y="446" type="line"/>
      <point x="180.0" y="591" type="line"/>
      <point x="170.0" y="591" type="line"/>
      <point x="170.0" y="286" type="line" smooth="yes"/>
      <point x="170.0" y="159"/>
      <point x="232.0" y="136"/>
      <point x="309.0" y="136" type="curve" smooth="yes"/>
    </contour>
    <contour>
      <point x="309.0" y="146" type="line"/>
      <point x="236.0" y="146"/>
      <point x="180.0" y="168"/>
      <point x="180.0" y="286" type="curve" smooth="yes"/>
      <point x="180.0" y="436" type="line"/>
      <point x="700.0" y="436" type="line"/>
      <point x="700.0" y="286" type="line"/>
      <point x="700.0" y="169"/>
      <point x="649.0" y="147"/>
      <point x="579.0" y="146" type="curve"/>
    </contour>
  </outline>
</glyph>
<glyph name="Tcommaaccent" format="2">
  <advance width="1002"/>
  <unicode hex="0162"/>
  <unicode hex="021A"/>
  <outline>
    <contour>
      <point x="590.0" y="355" type="line"/>
      <point x="590.0" y="365" type="line"/>
      <point x="180.0" y="365" type="line"/>
      <point x="180.0" y="570" type="line"/>
      <point x="170.0" y="570" type="line"/>
      <point x="170.0" y="150" type="line"/>
      <point x="180.0" y="150" type="line"/>
      <point x="180.0" y="355" type="line"/>
    </contour>
    <component base="commaaccent" xOffset="693" yOffset="-1"/>
  </outline>
</glyph>
<glyph name="Tcommaaccent" format="1">
  <advance width="1002"/>
  <unicode hex="0162"/>
  <unicode hex="021A"/>
  <outline>
    <contour>
      <point x="590.0" y="355" type="line"/>
      <point x="590.0" y="365" type="line"/>
      <point x="180.0" y="365" type="line"/>
      <point x="180.0" y="570" type="line"/>
      <point x="170.0" y="570" type="line"/>
      <point x="170.0" y="150" type="line"/>
      <point x="180.0" y="150" type="line"/>
      <point x="180.0" y="355" type="line"/>
    </contour>
    <component base="commaaccent" xOffset="693" yOffset="-1"/>
  </outline>
</glyph>
<glyph name="florin" format="1">
  <advance width="844"/>
  <unicode hex="0192"/>
  <outline>
    <contour>
      <point x="428.0" y="208" type="line"/>
      <point x="428.0" y="355" type="line"/>
      <point x="558.0" y="355" type="line" smooth="yes"/>
      <point x="662.0" y="355"/>
      <point x="682.0" y="329"/>
      <point x="682.0" y="218" type="curve" smooth="yes"/>
      <point x="682.0" y="208" type="line"/>
      <point x="692.0" y="208" type="line"/>
      <point x="692.0" y="218" type="line" smooth="yes"/>
      <point x="692.0" y="336"/>
      <point x="670.0" y="365"/>
      <point x="558.0" y="365" type="curve" smooth="yes"/>
      <point x="428.0" y="365" type="line"/>
      <point x="428.0" y="512" type="line"/>
      <point x="418.0" y="512" type="line"/>
      <point x="418.0" y="365" type="line"/>
      <point x="273.0" y="365" type="line" smooth="yes"/>
      <point x="187.0" y="365"/>
      <point x="162.0" y="413"/>
      <point x="162.0" y="492" type="curve" smooth="yes"/>
      <point x="162.0" y="512" type="line"/>
      <point x="152.0" y="512" type="line"/>
      <point x="152.0" y="492" type="line" smooth="yes"/>
      <point x="152.0" y="405"/>
      <point x="181.0" y="355"/>
      <point x="273.0" y="355" type="curve" smooth="yes"/>
      <point x="418.0" y="355" type="line"/>
      <point x="418.0" y="208" type="line"/>
    </contour>
  </outline>
</glyph>
<glyph name="circumflex" format="1">
  <advance width="269"/>
  <unicode hex="02C6"/>
  <outline>
    <contour>
      <point x="144.0" y="478" type="line"/>
      <point x="133.0" y="478" type="line"/>
      <point x="106.0" y="395" type="line" smooth="yes"/>
      <point x="103.0" y="383"/>
      <point x="100.0" y="374"/>
      <point x="100.0" y="359" type="curve"/>
      <point x="100.0" y="344"/>
      <point x="103.0" y="335"/>
      <point x="106.0" y="323" type="curve" smooth="yes"/>
      <point x="133.0" y="240" type="line"/>
      <point x="144.0" y="240" type="line"/>
      <point x="116.0" y="327" type="line" smooth="yes"/>
      <point x="113.0" y="337"/>
      <point x="110.0" y="346"/>
      <point x="110.0" y="359" type="curve"/>
      <point x="110.0" y="372"/>
      <point x="113.0" y="381"/>
      <point x="116.0" y="391" type="curve" smooth="yes"/>
    </contour>
    <contour>
      <point x="247.0" y="360.0" type="move" name="_top"/>
    </contour>
    <contour>
      <point x="994.0" y="360.0" type="move" name="_bottom"/>
    </contour>
  </outline>
</glyph>
<glyph name="caron" format="2">
  <advance width="269"/>
  <unicode hex="02C7"/>
  <anchor x="257.0" y="360.0" name="_top"/>
  <anchor x="1004.0" y="360.0" name="_bottom"/>
  <outline>
    <contour>
      <point x="126.0" y="240" type="line"/>
      <point x="137.0" y="240" type="line"/>
      <point x="164.0" y="323" type="line" smooth="yes"/>
      <point x="167.0" y="335"/>
      <point x="170.0" y="344"/>
      <point x="170.0" y="359" type="curve"/>
      <point x="170.0" y="374"/>
      <point x="167.0" y="383"/>
      <point x="164.0" y="395" type="curve" smooth="yes"/>
      <point x="137.0" y="478" type="line"/>
      <point x="126.0" y="478" type="line"/>
      <point x="154.0" y="391" type="line" smooth="yes"/>
      <point x="157.0" y="381"/>
      <point x="160.0" y="372"/>
      <point x="160.0" y="359" type="curve"/>
      <point x="160.0" y="346"/>
      <point x="157.0" y="337"/>
      <point x="154.0" y="327" type="curve" smooth="yes"/>
    </contour>
  </outline>
</glyph>
<glyph name="breve" format="2">
  <advance width="267"/>
  <unicode hex="02D8"/>
  <anchor x="257.0" y="360.0" name="_top"/>
  <anchor x="1004.0" y="360.0" name="_bottom"/>
  <outline>
    <contour>
      <point x="97.0" y="494" type="line"/>
      <point x="106.0" y="494" type="line" smooth="yes"/>
      <point x="142.0" y="494"/>
      <point x="176.0" y="467"/>
      <point x="176.0" y="359" type="curve" smooth="yes"/>
      <point x="176.0" y="251"/>
      <point x="142.0" y="229"/>
      <point x="106.0" y="229" type="curve" smooth="yes"/>
      <point x="97.0" y="229" type="line"/>
      <point x="97.0" y="219" type="line"/>
      <point x="106.0" y="219" type="line" smooth="yes"/>
      <point x="144.0" y="219"/>
      <point x="186.0" y="235"/>
      <point x="186.0" y="359" type="curve" smooth="yes"/>
      <point x="186.0" y="483"/>
      <point x="144.0" y="504"/>
      <point x="106.0" y="504" type="curve" smooth="yes"/>
      <point x="97.0" y="504" type="line"/>
    </contour>
  </outline>
</glyph>
<glyph name="dotaccent" format="2">
  <advance width="233"/>
  <unicode hex="02D9"/>
  <anchor x="229.0" y="360.0" name="_top"/>
  <anchor x="976.0" y="360.0" name="_bottom"/>
  <outline>
    <contour>
      <point x="146.0" y="366" type="line"/>
      <point x="87.0" y="366" type="line"/>
      <point x="87.0" y="356" type="line"/>
      <point x="146.0" y="356" type="line"/>
    </contour>
  </outline>
</glyph>
<glyph name="ring" format="1">
  <advance width="418"/>
  <unicode hex="02DA"/>
  <outline>
    <contour>
      <point x="235.0" y="219" type="line" smooth="yes"/>
      <point x="295.0" y="219"/>
      <point x="335.0" y="241"/>
      <point x="335.0" y="360" type="curve" smooth="yes"/>
      <point x="335.0" y="479"/>
      <point x="295.0" y="503"/>
      <point x="235.0" y="503" type="curve" smooth="yes"/>
      <point x="180.0" y="503" type="line" smooth="yes"/>
      <point x="121.0" y="503"/>
      <point x="79.0" y="479"/>
      <point x="79.0" y="360" type="curve" smooth="yes"/>
      <point x="79.0" y="241"/>
      <point x="120.0" y="219"/>
      <point x="180.0" y="219" type="curve" smooth="yes"/>
    </contour>
    <contour>
      <point x="89.0" y="360" type="curve" smooth="yes"/>
      <point x="89.0" y="467"/>
      <point x="125.0" y="493"/>
      <point x="180.0" y="493" type="curve" smooth="yes"/>
      <point x="235.0" y="493" type="line" smooth="yes"/>
      <point x="291.0" y="493"/>
      <point x="325.0" y="467"/>
      <point x="325.0" y="360" type="curve" smooth="yes"/>
      <point x="325.0" y="253"/>
      <point x="291.0" y="229"/>
      <point x="235.0" y="229" type="curve" smooth="yes"/>
      <point x="180.0" y="229" type="line" smooth="yes"/>
      <point x="124.0" y="229"/>
      <point x="89.0" y="253"/>
    </contour>
    <contour>
      <point x="408.0" y="360.0" type="move" name="_top"/>
    </contour>
    <contour>
      <point x="1155.0" y="360.0" type="move" name="_bottom"/>
    </contour>
  </outline>
</glyph>
<glyph name="tilde" format="1">
  <advance width="262"/>
  <unicode hex="02DC"/>
  <outline>
    <contour>
      <point x="137.0" y="478" type="line"/>
      <point x="140.0" y="451"/>
      <point x="137.0" y="427"/>
      <point x="129.0" y="376" type="curve" smooth="yes"/>
      <point x="127.0" y="360" type="line"/>
      <point x="123.0" y="332" type="line" smooth="yes"/>
      <point x="117.0" y="287"/>
      <point x="115.0" y="263"/>
      <point x="118.0" y="240" type="curve"/>
      <point x="129.0" y="240" type="line"/>
      <point x="125.0" y="262"/>
      <point x="126.0" y="286"/>
      <point x="133.0" y="330" type="curve" smooth="yes"/>
      <point x="137.0" y="358" type="line"/>
      <point x="139.0" y="374" type="line" smooth="yes"/>
      <point x="147.0" y="425"/>
      <point x="150.0" y="451"/>
      <point x="147.0" y="478" type="curve"/>
    </contour>
    <contour>
      <point x="231.0" y="360.0" type="move" name="_top"/>
    </contour>
    <contour>
      <point x="978.0" y="360.0" type="move" name="_bottom"/>
    </contour>
  </outline>
</glyph>
<glyph name="hungarumlaut" format="1">
  <advance width="351"/>
  <unicode hex="02DD"/>
  <outline>
    <contour>
      <point x="224.0" y="472" type="line"/>
      <point x="127.0" y="497" type="line"/>
      <point x="127.0" y="486" type="line"/>
      <point x="224.0" y="461" type="line"/>
    </contour>
    <contour>
      <point x="224.0" y="212" type="line"/>
      <point x="127.0" y="237" type="line"/>
      <point x="127.0" y="226" type="line"/>
      <point x="224.0" y="201" type="line"/>
    </contour>
  </outline>
</glyph>
<glyph name="commaaccent" format="1">
  <advance width="309"/>
  <unicode hex="0326"/>
  <unicode hex="F6C3"/>
  <outline>
    <contour>
      <point x="91.0" y="295" type="line"/>
      <point x="101.0" y="295" type="line"/>
      <point x="101.0" y="417" type="line"/>
      <point x="178.0" y="417" type="line" smooth="yes"/>
      <point x="225.0" y="417"/>
      <point x="249.0" y="391"/>
      <point x="249.0" y="349" type="curve" smooth="yes"/>
      <point x="249.0" y="295" type="line"/>
      <point x="259.0" y="295" type="line"/>
      <point x="259.0" y="349" type="line" smooth="yes"/>
      <point x="259.0" y="397"/>
      <point x="232.0" y="427"/>
      <point x="178.0" y="427" type="curve" smooth="yes"/>
      <point x="91.0" y="427" type="line"/>
    </contour>
  </outline>
</glyph>
<glyph name="pi" format="1">
  <advance width="717"/>
  <unicode hex="03C0"/>
  <outline>
    <contour>
      <point x="170.0" y="169" type="line"/>
      <point x="560.0" y="169" type="line"/>
      <point x="560.0" y="179" type="line"/>
      <point x="180.0" y="179" type="line"/>
      <point x="180.0" y="541" type="line"/>
      <point x="560.0" y="541" type="line"/>
      <point x="560.0" y="551" type="line"/>
      <point x="170.0" y="551" type="line"/>
    </contour>
  </outline>
</glyph>
<glyph name="Germandbls" format="2">
  <advance width="880"/>
  <unicode hex="1E9E"/>
  <outline>
    <contour>
      <point x="180.0" y="179" type="line"/>
      <point x="180.0" y="418" type="line" smooth="yes"/>
      <point x="180.0" y="479"/>
      <point x="215.0" y="500"/>
      <point x="280.0" y="482" type="curve"/>
      <point x="436.0" y="448" type="line"/>
      <point x="436.0" y="468" type="line" smooth="yes"/>
      <point x="436.0" y="525"/>
      <point x="461.0" y="556"/>
      <point x="524.0" y="556" type="curve" smooth="yes"/>
      <point x="612.0" y="556" type="line" smooth="yes"/>
      <point x="674.0" y="556"/>
      <point x="700.0" y="529"/>
      <point x="700.0" y="460" type="curve" smooth="yes"/>
      <point x="700.0" y="427" type="line"/>
      <point x="710.0" y="427" type="line"/>
      <point x="710.0" y="460" type="line" smooth="yes"/>
      <point x="710.0" y="537"/>
      <point x="680.0" y="566"/>
      <point x="612.0" y="566" type="curve" smooth="yes"/>
      <point x="524.0" y="566" type="line" smooth="yes"/>
      <point x="455.0" y="566"/>
      <point x="426.0" y="533"/>
      <point x="426.0" y="468" type="curve" smooth="yes"/>
      <point x="426.0" y="462" type="line"/>
      <point x="282.0" y="492" type="line" smooth="yes"/>
      <point x="209.0" y="507"/>
      <point x="170.0" y="487"/>
      <point x="170.0" y="418" type="curve" smooth="yes"/>
      <point x="170.0" y="169" type="line"/>
      <point x="710.0" y="169" type="line"/>
      <point x="710.0" y="179" type="line"/>
    </contour>
  </outline>
</glyph>
<glyph name="Germandbls" format="1">
  <advance width="880"/>
  <unicode hex="1E9E"/>
  <outline>
    <contour>
      <point x="180.0" y="179" type="line"/>
      <point x="180.0" y="418" type="line" smooth="yes"/>
      <point x="180.0" y="479"/>
      <point x="215.0" y="500"/>
      <point x="280.0" y="482" type="curve"/>
      <point x="436.0" y="448" type="line"/>
      <point x="436.0" y="468" type="line" smooth="yes"/>
      <point x="436.0" y="525"/>
      <point x="461.0" y="556"/>
      <point x="524.0" y="556" type="curve" smooth="yes"/>
      <point x="612.0" y="556" type="line" smooth="yes"/>
      <point x="674.0" y="556"/>
      <point x="700.0" y="529"/>
      <point x="700.0" y="460" type="curve" smooth="yes"/>
      <point x="700.0" y="427" type="line"/>
      <point x="710.0" y="427" type="line"/>
      <point x="710.0" y="460" type="line" smooth="yes"/>
      <point x="710.0" y="537"/>
      <point x="680.0" y="566"/>
      <point x="612.0" y="566" type="curve" smooth="yes"/>
      <point x="524.0" y="566" type="line" smooth="yes"/>
      <point x="455.0" y="566"/>
      <point x="426.0" y="533"/>
      <point x="426.0" y="468" type="curve" smooth="yes"/>
      <point x="426.0" y="462" type="line"/>
      <point x="282.0" y="492" type="line" smooth="yes"/>
      <point x="209.0" y="507"/>
      <point x="170.0" y="487"/>
      <point x="170.0" y="418" type="curve" smooth="yes"/>
      <point x="170.0" y="169" type="line"/>
      <point x="710.0" y="169" type="line"/>
      <point x="710.0" y="179" type="line"/>
    </contour>
  </outline>
</glyph>
<glyph name="emdash" format="1">
  <advance width="1134"/>
  <unicode hex="2014"/>
  <outline>
    <contour>
      <point x="974.0" y="366" type="line"/>
      <point x="160.0" y="366" type="line"/>
      <point x="160.0" y="356" type="line"/>
      <point x="974.0" y="356" type="line"/>
    </contour>
  </outline>
</glyph>
<glyph name="quoteleft" format="1">
  <advance width="499"/>
  <unicode hex="2018"/>
  <outline>
    <contour>
      <point x="322.0" y="293" type="line"/>
      <point x="322.0" y="427" type="line"/>
      <point x="312.0" y="427" type="line"/>
      <point x="312.0" y="303" type="line"/>
      <point x="203.0" y="303" type="line" smooth="yes"/>
      <point x="149.0" y="303"/>
      <point x="122.0" y="333"/>
      <point x="122.0" y="381" type="curve" smooth="yes"/>
      <point x="122.0" y="427" type="line"/>
      <point x="112.0" y="427" type="line"/>
      <point x="112.0" y="381" type="line" smooth="yes"/>
      <point x="112.0" y="327"/>
      <point x="142.0" y="293"/>
      <point x="203.0" y="293" type="curve" smooth="yes"/>
    </contour>
  </outline>
</glyph>
<glyph name="dagger" format="1">
  <advance width="880"/>
  <unicode hex="2020"/>
  <outline>
    <contour>
      <point x="353.0" y="141" type="line"/>
      <point x="363.0" y="141" type="line"/>
      <point x="363.0" y="355" type="line"/>
      <point x="711.0" y="355" type="line"/>
      <point x="711.0" y="365" type="line"/>
      <point x="363.0" y="365" type="line"/>
      <point x="363.0" y="579" type="line"/>
      <point x="353.0" y="579" type="line"/>
      <point x="353.0" y="365" type="line"/>
      <point x="181.0" y="365" type="line"/>
      <point x="181.0" y="355" type="line"/>
      <point x="353.0" y="355" type="line"/>
    </contour>
  </outline>
</glyph>
<glyph name="daggerdbl" format="1">
  <advance width="884"/>
  <unicode hex="2021"/>
  <outline>
    <contour>
      <point x="272.0" y="141" type="line"/>
      <point x="282.0" y="141" type="line"/>
      <point x="282.0" y="355" type="line"/>
      <point x="602.0" y="355" type="line"/>
      <point x="602.0" y="141" type="line"/>
      <point x="612.0" y="141" type="line"/>
      <point x="612.0" y="355" type="line"/>
      <point x="712.0" y="355" type="line"/>
      <point x="712.0" y="365" type="line"/>
      <point x="612.0" y="365" type="line"/>
      <point x="612.0" y="579" type="line"/>
      <point x="602.0" y="579" type="line"/>
      <point x="602.0" y="365" type="line"/>
      <point x="282.0" y="365" type="line"/>
      <point x="282.0" y="579" type="line"/>
      <point x="272.0" y="579" type="line"/>
      <point x="272.0" y="365" type="line"/>
      <point x="182.0" y="365" type="line"/>
      <point x="182.0" y="355" type="line"/>
      <point x="272.0" y="355" type="line"/>
    </contour>
  </outline>
</glyph>
<glyph name="bullet" format="1">
  <advance width="514"/>
  <unicode hex="2022"/>
  <outline>
    <contour>
      <point x="170.0" y="446" type="line"/>
      <point x="170.0" y="273" type="line"/>
      <point x="344.0" y="273" type="line"/>
      <point x="344.0" y="446" type="line"/>
    </contour>
    <contour>
      <point x="180.0" y="436" type="line"/>
      <point x="334.0" y="436" type="line"/>
      <point x="334.0" y="283" type="line"/>
      <point x="180.0" y="283" type="line"/>
    </contour>
  </outline>
</glyph>
<glyph name="ellipsis" format="1">
  <advance width="435"/>
  <unicode hex="2026"/>
  <outline>
    <contour>
      <point x="265.0" y="717" type="line"/>
      <point x="265.0" y="727" type="line"/>
      <point x="170.0" y="727" type="line"/>
      <point x="170.0" y="717" type="line"/>
    </contour>
    <contour>
      <point x="265.0" y="354" type="line"/>
      <point x="265.0" y="364" type="line"/>
      <point x="170.0" y="364" type="line"/>
      <point x="170.0" y="354" type="line"/>
    </contour>
    <contour>
      <point x="265.0" y="-9" type="line"/>
      <point x="265.0" y="1" type="line"/>
      <point x="170.0" y="1" type="line"/>
      <point x="170.0" y="-9" type="line"/>
    </contour>
  </outline>
</glyph>
<glyph name="perthousand" format="1">
  <advance width="890"/>
  <unicode hex="2030"/>
  <outline>
    <contour>
      <point x="573.0" y="298" type="curve" smooth="yes"/>
      <point x="670.0" y="298" type="line" smooth="yes"/>
      <point x="728.0" y="298"/>
      <point x="749.0" y="328"/>
      <point x="749.0" y="399" type="curve" smooth="yes"/>
      <point x="749.0" y="453"/>
      <point x="736.0" y="483"/>
      <point x="704.0" y="494" type="curve"/>
      <point x="736.0" y="506"/>
      <point x="749.0" y="538"/>
      <point x="749.0" y="591" type="curve" smooth="yes"/>
      <point x="749.0" y="663"/>
      <point x="728.0" y="691"/>
      <point x="670.0" y="691" type="curve" smooth="yes"/>
      <point x="573.0" y="691" type="line" smooth="yes"/>
      <point x="515.0" y="691"/>
      <point x="493.0" y="663"/>
      <point x="493.0" y="591" type="curve" smooth="yes"/>
      <point x="493.0" y="538"/>
      <point x="506.0" y="506"/>
      <point x="539.0" y="494" type="curve"/>
      <point x="506.0" y="483"/>
      <point x="493.0" y="453"/>
      <point x="493.0" y="399" type="curve" smooth="yes"/>
      <point x="493.0" y="328"/>
      <point x="515.0" y="298"/>
    </contour>
    <contour>
      <point x="739.0" y="591" type="curve" smooth="yes"/>
      <point x="739.0" y="530"/>
      <point x="722.0" y="499"/>
      <point x="670.0" y="499" type="curve" smooth="yes"/>
      <point x="573.0" y="499" type="line" smooth="yes"/>
      <point x="521.0" y="499"/>
      <point x="503.0" y="530"/>
      <point x="503.0" y="591" type="curve" smooth="yes"/>
      <point x="503.0" y="653"/>
      <point x="521.0" y="681"/>
      <point x="573.0" y="681" type="curve" smooth="yes"/>
      <point x="670.0" y="681" type="line" smooth="yes"/>
      <point x="722.0" y="681"/>
      <point x="739.0" y="653"/>
    </contour>
    <contour>
      <point x="739.0" y="399" type="curve" smooth="yes"/>
      <point x="739.0" y="338"/>
      <point x="722.0" y="308"/>
      <point x="670.0" y="308" type="curve" smooth="yes"/>
      <point x="573.0" y="308" type="line" smooth="yes"/>
      <point x="521.0" y="308"/>
      <point x="503.0" y="338"/>
      <point x="503.0" y="399" type="curve" smooth="yes"/>
      <point x="503.0" y="461"/>
      <point x="521.0" y="489"/>
      <point x="573.0" y="489" type="curve" smooth="yes"/>
      <point x="670.0" y="489" type="line" smooth="yes"/>
      <point x="722.0" y="489"/>
      <point x="739.0" y="461"/>
    </contour>
    <contour>
      <point x="715.0" y="91" type="line"/>
      <point x="175.0" y="452" type="line"/>
      <point x="175.0" y="440" type="line"/>
      <point x="715.0" y="79" type="line"/>
    </contour>
    <contour>
      <point x="221.0" y="232" type="line" smooth="yes"/>
      <point x="163.0" y="232"/>
      <point x="141.0" y="204"/>
      <point x="141.0" y="132" type="curve" smooth="yes"/>
      <point x="141.0" y="61"/>
      <point x="163.0" y="31"/>
      <point x="221.0" y="31" type="curve" smooth="yes"/>
      <point x="318.0" y="31" type="line" smooth="yes"/>
      <point x="376.0" y="31"/>
      <point x="397.0" y="61"/>
      <point x="397.0" y="132" type="curve" smooth="yes"/>
      <point x="397.0" y="204"/>
      <point x="376.0" y="232"/>
      <point x="318.0" y="232" type="curve" smooth="yes"/>
    </contour>
    <contour>
      <point x="387.0" y="132" type="curve" smooth="yes"/>
      <point x="387.0" y="71"/>
      <point x="370.0" y="41"/>
      <point x="318.0" y="41" type="curve" smooth="yes"/>
      <point x="221.0" y="41" type="line" smooth="yes"/>
      <point x="169.0" y="41"/>
      <point x="151.0" y="71"/>
      <point x="151.0" y="132" type="curve" smooth="yes"/>
      <point x="151.0" y="194"/>
      <point x="169.0" y="222"/>
      <point x="221.0" y="222" type="curve" smooth="yes"/>
      <point x="318.0" y="222" type="line" smooth="yes"/>
      <point x="370.0" y="222"/>
      <point x="387.0" y="194"/>
    </contour>
  </outline>
</glyph>
<glyph name="minute" format="1">
  <advance width="519"/>
  <unicode hex="2032"/>
  <outline>
    <contour>
      <point x="357.0" y="359" type="line"/>
      <point x="162.0" y="373" type="line"/>
      <point x="162.0" y="362" type="line"/>
      <point x="357.0" y="348" type="line"/>
    </contour>
  </outline>
</glyph>
<glyph name="second" format="2">
  <advance width="535"/>
  <unicode hex="2033"/>
  <outline>
    <contour>
      <point x="365.0" y="514" type="line"/>
      <point x="170.0" y="528" type="line"/>
      <point x="170.0" y="517" type="line"/>
      <point x="365.0" y="503" type="line"/>
    </contour>
    <contour>
      <point x="365.0" y="204" type="line"/>
      <point x="170.0" y="218" type="line"/>
      <point x="170.0" y="207" type="line"/>
      <point x="365.0" y="193" type="line"/>
    </contour>
  </outline>
</glyph>
<glyph name="guilsinglleft" format="2">
  <advance width="563"/>
  <unicode hex="2039"/>
  <outline>
    <contour>
      <point x="215.0" y="267" type="line" smooth="yes"/>
      <point x="185.0" y="273"/>
      <point x="170.0" y="287"/>
      <point x="170.0" y="321" type="curve" smooth="yes"/>
      <point x="170.0" y="399" type="line" smooth="yes"/>
      <point x="170.0" y="433"/>
      <point x="185.0" y="447"/>
      <point x="214.0" y="453" type="curve" smooth="yes"/>
      <point x="400.0" y="491" type="line"/>
      <point x="400.0" y="501" type="line"/>
      <point x="212.0" y="463" type="line" smooth="yes"/>
      <point x="177.0" y="456"/>
      <point x="160.0" y="439"/>
      <point x="160.0" y="399" type="curve" smooth="yes"/>
      <point x="160.0" y="321" type="line" smooth="yes"/>
      <point x="160.0" y="281"/>
      <point x="177.0" y="264"/>
      <point x="213.0" y="257" type="curve" smooth="yes"/>
      <point x="400.0" y="219" type="line"/>
      <point x="400.0" y="229" type="line"/>
    </contour>
  </outline>
</glyph>
<glyph name="guilsinglright" format="1">
  <advance width="563"/>
  <unicode hex="203A"/>
  <outline>
    <contour>
      <point x="163.0" y="218" type="line"/>
      <point x="350.0" y="256" type="line" smooth="yes"/>
      <point x="386.0" y="263"/>
      <point x="403.0" y="280"/>
      <point x="403.0" y="320" type="curve" smooth="yes"/>
      <point x="403.0" y="398" type="line" smooth="yes"/>
      <point x="403.0" y="438"/>
      <point x="386.0" y="455"/>
      <point x="351.0" y="462" type="curve" smooth="yes"/>
      <point x="163.0" y="500" type="line"/>
      <point x="163.0" y="490" type="line"/>
      <point x="349.0" y="452" type="line" smooth="yes"/>
      <point x="378.0" y="446"/>
      <point x="393.0" y="432"/>
      <point x="393.0" y="398" type="curve" smooth="yes"/>
      <point x="393.0" y="320" type="line" smooth="yes"/>
      <point x="393.0" y="286"/>
      <point x="378.0" y="272"/>
      <point x="348.0" y="266" type="curve" smooth="yes"/>
      <point x="163.0" y="228" type="line"/>
    </contour>
  </outline>
</glyph>
<glyph name="fraction" format="1">
  <advance width="874"/>
  <unicode hex="2044"/>
  <unicode hex="2215"/>
  <outline>
    <contour>
      <point x="707.0" y="315" type="line"/>
      <point x="167.0" y="415" type="line"/>
      <point x="167.0" y="405" type="line"/>
      <point x="707.0" y="305" type="line"/>
    </contour>
  </outline>
</glyph>
<glyph name="foursuperior" format="1">
  <advance width="798"/>
  <unicode hex="2074"/>
  <outline>
    <contour>
      <point x="205.0" y="226" type="line"/>
      <point x="391.0" y="226" type="line" smooth="yes"/>
      <point x="442.0" y="226"/>
      <point x="467.0" y="251"/>
      <point x="467.0" y="307" type="curve" smooth="yes"/>
      <point x="467.0" y="478" type="line"/>
      <point x="594.0" y="478" type="line"/>
      <point x="594.0" y="488" type="line"/>
      <point x="205.0" y="488" type="line"/>
      <point x="205.0" y="478" type="line"/>
      <point x="458.0" y="478" type="line"/>
      <point x="458.0" y="307" type="line" smooth="yes"/>
      <point x="458.0" y="259"/>
      <point x="436.0" y="236"/>
      <point x="391.0" y="236" type="curve" smooth="yes"/>
      <point x="205.0" y="236" type="line"/>
    </contour>
  </outline>
</glyph>
<glyph name="Euro" format="1">
  <advance width="880"/>
  <unicode hex="20AC"/>
  <outline>
    <contour>
      <point x="357.0" y="146" type="line"/>
      <point x="367.0" y="146" type="line"/>
      <point x="367.0" y="218" type="line"/>
      <point x="517.0" y="218" type="line"/>
      <point x="517.0" y="146" type="line"/>
      <point x="527.0" y="146" type="line"/>
      <point x="527.0" y="218" type="line"/>
      <point x="581.0" y="218" type="line" smooth="yes"/>
      <point x="674.0" y="218"/>
      <point x="710.0" y="248"/>
      <point x="710.0" y="378" type="curve" smooth="yes"/>
      <point x="710.0" y="550" type="line"/>
      <point x="700.0" y="550" type="line"/>
      <point x="700.0" y="378" type="line" smooth="yes"/>
      <point x="700.0" y="258"/>
      <point x="668.0" y="228"/>
      <point x="581.0" y="228" type="curve" smooth="yes"/>
      <point x="527.0" y="228" type="line"/>
      <point x="527.0" y="466" type="line"/>
      <point x="517.0" y="466" type="line"/>
      <point x="517.0" y="228" type="line"/>
      <point x="367.0" y="228" type="line"/>
      <point x="367.0" y="466" type="line"/>
      <point x="357.0" y="466" type="line"/>
      <point x="357.0" y="228" type="line"/>
      <point x="301.0" y="228" type="line" smooth="yes"/>
      <point x="212.0" y="228"/>
      <point x="180.0" y="260"/>
      <point x="180.0" y="378" type="curve" smooth="yes"/>
      <point x="180.0" y="550" type="line"/>
      <point x="170.0" y="550" type="line"/>
      <point x="170.0" y="378" type="line" smooth="yes"/>
      <point x="170.0" y="250"/>
      <point x="206.0" y="218"/>
      <point x="301.0" y="218" type="curve" smooth="yes"/>
      <point x="357.0" y="218" type="line"/>
    </contour>
  </outline>
</glyph>
<glyph name="uni2117" format="1">
  <advance width="1025"/>
  <unicode hex="2117"/>
  <outline>
    <contour>
      <point x="305.0" y="688" type="line" smooth="yes"/>
      <point x="201.0" y="688"/>
      <point x="105.0" y="659"/>
      <point x="105.0" y="360" type="curve" smooth="yes"/>
      <point x="105.0" y="61"/>
      <point x="201.0" y="31"/>
      <point x="305.0" y="31" type="curve" smooth="yes"/>
      <point x="723.0" y="31" type="line" smooth="yes"/>
      <point x="836.0" y="31"/>
      <point x="921.0" y="79"/>
      <point x="921.0" y="360" type="curve" smooth="yes"/>
      <point x="921.0" y="641"/>
      <point x="826.0" y="688"/>
      <point x="723.0" y="688" type="curve" smooth="yes"/>
    </contour>
    <contour>
      <point x="911.0" y="360" type="curve" smooth="yes"/>
      <point x="911.0" y="95"/>
      <point x="832.0" y="41"/>
      <point x="723.0" y="41" type="curve" smooth="yes"/>
      <point x="305.0" y="41" type="line" smooth="yes"/>
      <point x="205.0" y="41"/>
      <point x="115.0" y="75"/>
      <point x="115.0" y="360" type="curve" smooth="yes"/>
      <point x="115.0" y="645"/>
      <point x="205.0" y="678"/>
      <point x="305.0" y="678" type="curve" smooth="yes"/>
      <point x="723.0" y="678" type="line" smooth="yes"/>
      <point x="822.0" y="678"/>
      <point x="911.0" y="625"/>
    </contour>
    <contour>
      <point x="309.0" y="238" type="line"/>
      <point x="700.0" y="238" type="line"/>
      <point x="700.0" y="248" type="line"/>
      <point x="559.0" y="248" type="line"/>
      <point x="559.0" y="395" type="line" smooth="yes"/>
      <point x="559.0" y="487"/>
      <point x="519.0" y="504"/>
      <point x="462.0" y="504" type="curve" smooth="yes"/>
      <point x="409.0" y="504" type="line" smooth="yes"/>
      <point x="352.0" y="504"/>
      <point x="309.0" y="487"/>
      <point x="309.0" y="395" type="curve" smooth="yes"/>
    </contour>
    <contour>
      <point x="319.0" y="395" type="line" smooth="yes"/>
      <point x="319.0" y="483"/>
      <point x="358.0" y="494"/>
      <point x="409.0" y="494" type="curve" smooth="yes"/>
      <point x="462.0" y="494" type="line" smooth="yes"/>
      <point x="512.0" y="494"/>
      <point x="549.0" y="483"/>
      <point x="549.0" y="395" type="curve" smooth="yes"/>
      <point x="549.0" y="248" type="line"/>
      <point x="319.0" y="248" type="line"/>
    </contour>
  </outline>
</glyph>
<glyph name="trademark" format="1">
  <advance width="593"/>
  <unicode hex="2122"/>
  <outline>
    <contour>
      <point x="451.0" y="409" type="line"/>
      <point x="156.0" y="409" type="line" smooth="yes"/>
      <point x="150.0" y="409"/>
      <point x="147.0" y="413"/>
      <point x="147.0" y="417" type="curve" smooth="yes"/>
      <point x="147.0" y="424" type="line" smooth="yes"/>
      <point x="147.0" y="429"/>
      <point x="149.0" y="433"/>
      <point x="154.0" y="437" type="curve" smooth="yes"/>
      <point x="283.0" y="529" type="line" smooth="yes"/>
      <point x="291.0" y="534"/>
      <point x="293.0" y="538"/>
      <point x="293.0" y="545" type="curve" smooth="yes"/>
      <point x="293.0" y="547" type="line" smooth="yes"/>
      <point x="293.0" y="556"/>
      <point x="289.0" y="559"/>
      <point x="282.0" y="564" type="curve"/>
      <point x="154.0" y="655" type="line" smooth="yes"/>
      <point x="149.0" y="659"/>
      <point x="147.0" y="663"/>
      <point x="147.0" y="668" type="curve" smooth="yes"/>
      <point x="147.0" y="675" type="line" smooth="yes"/>
      <point x="147.0" y="680"/>
      <point x="150.0" y="683"/>
      <point x="156.0" y="683" type="curve" smooth="yes"/>
      <point x="451.0" y="683" type="line"/>
      <point x="451.0" y="693" type="line"/>
      <point x="156.0" y="693" type="line" smooth="yes"/>
      <point x="144.0" y="693"/>
      <point x="137.0" y="685"/>
      <point x="137.0" y="675" type="curve" smooth="yes"/>
      <point x="137.0" y="668" type="line" smooth="yes"/>
      <point x="137.0" y="661"/>
      <point x="139.0" y="653"/>
      <point x="148.0" y="647" type="curve" smooth="yes"/>
      <point x="276.0" y="556" type="line"/>
      <point x="279.0" y="553"/>
      <point x="283.0" y="552"/>
      <point x="283.0" y="547" type="curve" smooth="yes"/>
      <point x="283.0" y="545" type="line" smooth="yes"/>
      <point x="283.0" y="542"/>
      <point x="281.0" y="540"/>
      <point x="277.0" y="537" type="curve" smooth="yes"/>
      <point x="148.0" y="445" type="line" smooth="yes"/>
      <point x="139.0" y="439"/>
      <point x="137.0" y="431"/>
      <point x="137.0" y="424" type="curve" smooth="yes"/>
      <point x="137.0" y="417" type="line" smooth="yes"/>
      <point x="137.0" y="408"/>
      <point x="144.0" y="399"/>
      <point x="156.0" y="399" type="curve" smooth="yes"/>
      <point x="451.0" y="399" type="line"/>
    </contour>
    <contour>
      <point x="137.0" y="-34" type="line"/>
      <point x="147.0" y="-34" type="line"/>
      <point x="147.0" y="101" type="line"/>
      <point x="451.0" y="101" type="line"/>
      <point x="451.0" y="111" type="line"/>
      <point x="147.0" y="111" type="line"/>
      <point x="147.0" y="249" type="line"/>
      <point x="137.0" y="249" type="line"/>
    </contour>
  </outline>
</glyph>
<glyph name="Omega" format="1">
  <advance width="882"/>
  <unicode hex="2126"/>
  <unicode hex="03A9"/>
  <outline>
    <contour>
      <point x="539.0" y="552" type="line" smooth="yes"/>
      <point x="610.0" y="552"/>
      <point x="643.0" y="544"/>
      <point x="664.0" y="476" type="curve" smooth="yes"/>
      <point x="665.0" y="472" type="line"/>
      <point x="712.0" y="472" type="line"/>
      <point x="712.0" y="623" type="line"/>
      <point x="702.0" y="623" type="line"/>
      <point x="702.0" y="482" type="line"/>
      <point x="673.0" y="482" type="line"/>
      <point x="651.0" y="552"/>
      <point x="616.0" y="562"/>
      <point x="539.0" y="562" type="curve" smooth="yes"/>
      <point x="295.0" y="562" type="line" smooth="yes"/>
      <point x="214.0" y="562"/>
      <point x="160.0" y="517"/>
      <point x="160.0" y="360" type="curve" smooth="yes"/>
      <point x="160.0" y="203"/>
      <point x="214.0" y="158"/>
      <point x="295.0" y="158" type="curve" smooth="yes"/>
      <point x="539.0" y="158" type="line" smooth="yes"/>
      <point x="615.0" y="158"/>
      <point x="650.0" y="168"/>
      <point x="673.0" y="238" type="curve"/>
      <point x="702.0" y="238" type="line"/>
      <point x="702.0" y="97" type="line"/>
      <point x="712.0" y="97" type="line"/>
      <point x="712.0" y="248" type="line"/>
      <point x="665.0" y="248" type="line"/>
      <point x="664.0" y="244" type="line" smooth="yes"/>
      <point x="643.0" y="176"/>
      <point x="610.0" y="168"/>
      <point x="539.0" y="168" type="curve" smooth="yes"/>
      <point x="295.0" y="168" type="line" smooth="yes"/>
      <point x="220.0" y="168"/>
      <point x="170.0" y="211"/>
      <point x="170.0" y="360" type="curve" smooth="yes"/>
      <point x="170.0" y="509"/>
      <point x="220.0" y="552"/>
      <point x="295.0" y="552" type="curve" smooth="yes"/>
    </contour>
  </outline>
</glyph>
<glyph name="arrowleft" format="1">
  <advance width="1001"/>
  <unicode hex="2190"/>
  <outline>
    <contour>
      <point x="502.0" y="165" type="line"/>
      <point x="640.0" y="369" type="line"/>
      <point x="507.0" y="369" type="line"/>
      <point x="507.0" y="585" type="line"/>
      <point x="497.0" y="585" type="line"/>
      <point x="497.0" y="369" type="line"/>
      <point x="365.0" y="369" type="line"/>
    </contour>
    <contour>
      <point x="621.0" y="359" type="line"/>
      <point x="502.0" y="182" type="line"/>
      <point x="383.0" y="359" type="line"/>
    </contour>
  </outline>
</glyph>
<glyph name="arrowup" format="2">
  <advance width="1000"/>
  <unicode hex="2191"/>
  <outline>
    <contour>
      <point x="515.0" y="223" type="line"/>
      <point x="515.0" y="355" type="line"/>
      <point x="731.0" y="355" type="line"/>
      <point x="731.0" y="365" type="line"/>
      <point x="515.0" y="365" type="line"/>
      <point x="515.0" y="498" type="line"/>
      <point x="311.0" y="360" type="line"/>
    </contour>
    <contour>
      <point x="505.0" y="241" type="line"/>
      <point x="329.0" y="360" type="line"/>
      <point x="505.0" y="480" type="line"/>
    </contour>
  </outline>
</glyph>
<glyph name="arrowright" format="1">
  <advance width="1001"/>
  <unicode hex="2192"/>
  <outline>
    <contour>
      <point x="497.0" y="135" type="line"/>
      <point x="507.0" y="135" type="line"/>
      <point x="507.0" y="351" type="line"/>
      <point x="640.0" y="351" type="line"/>
      <point x="502.0" y="555" type="line"/>
      <point x="365.0" y="351" type="line"/>
      <point x="497.0" y="351" type="line"/>
    </contour>
    <contour>
      <point x="621.0" y="361" type="line"/>
      <point x="383.0" y="361" type="line"/>
      <point x="502.0" y="537" type="line"/>
    </contour>
  </outline>
</glyph>
<glyph name="arrowdown" format="2">
  <advance width="1000"/>
  <unicode hex="2193"/>
  <outline>
    <contour>
      <point x="495.0" y="241" type="line"/>
      <point x="495.0" y="480" type="line"/>
      <point x="671.0" y="361" type="line"/>
    </contour>
    <contour>
      <point x="485.0" y="223" type="line"/>
      <point x="689.0" y="361" type="line"/>
      <point x="485.0" y="498" type="line"/>
      <point x="485.0" y="366" type="line"/>
      <point x="269.0" y="366" type="line"/>
      <point x="269.0" y="356" type="line"/>
      <point x="485.0" y="356" type="line"/>
    </contour>
  </outline>
</glyph>
<glyph name="arrowupleft" format="1">
  <advance width="1000"/>
  <unicode hex="2196"/>
  <outline>
    <contour>
      <point x="343.0" y="203" type="line"/>
      <point x="585.0" y="250" type="line"/>
      <point x="491.0" y="344" type="line"/>
      <point x="644.0" y="497" type="line"/>
      <point x="637.0" y="504" type="line"/>
      <point x="484.0" y="351" type="line"/>
      <point x="391.0" y="444" type="line"/>
    </contour>
    <contour>
      <point x="356.0" y="216" type="line"/>
      <point x="397.0" y="424" type="line"/>
      <point x="565.0" y="256" type="line"/>
    </contour>
  </outline>
</glyph>
<glyph name="arrowdownright" format="2">
  <advance width="1000"/>
  <unicode hex="2198"/>
  <outline>
    <contour>
      <point x="603.0" y="297" type="line"/>
      <point x="435.0" y="465" type="line"/>
      <point x="644.0" y="505" type="line"/>
    </contour>
    <contour>
      <point x="609.0" y="277" type="line"/>
      <point x="657.0" y="518" type="line"/>
      <point x="415.0" y="471" type="line"/>
      <point x="509.0" y="377" type="line"/>
      <point x="356.0" y="224" type="line"/>
      <point x="363.0" y="217" type="line"/>
      <point x="516.0" y="370" type="line"/>
    </contour>
  </outline>
</glyph>
<glyph name="arrowdownleft" format="1">
  <advance width="1000"/>
  <unicode hex="2199"/>
  <outline>
    <contour>
      <point x="655.0" y="212" type="line"/>
      <point x="607.0" y="453" type="line"/>
      <point x="514.0" y="360" type="line"/>
      <point x="361.0" y="513" type="line"/>
      <point x="354.0" y="506" type="line"/>
      <point x="507.0" y="353" type="line"/>
      <point x="413.0" y="259" type="line"/>
    </contour>
    <contour>
      <point x="642.0" y="225" type="line"/>
      <point x="433.0" y="265" type="line"/>
      <point x="601.0" y="433" type="line"/>
    </contour>
  </outline>
</glyph>
<glyph name="uni21AA" format="1">
  <advance width="1000"/>
  <unicode hex="21AA"/>
  <outline>
    <contour>
      <point x="706.0" y="460" type="line"/>
      <point x="560.0" y="460" type="line"/>
      <point x="633.0" y="568" type="line"/>
    </contour>
    <contour>
      <point x="308.0" y="117" type="curve" smooth="yes"/>
      <point x="515.0" y="117" type="line" smooth="yes"/>
      <point x="593.0" y="117"/>
      <point x="639.0" y="170"/>
      <point x="639.0" y="252" type="curve" smooth="yes"/>
      <point x="639.0" y="450" type="line"/>
      <point x="724.0" y="450" type="line"/>
      <point x="633.0" y="586" type="line"/>
      <point x="542.0" y="450" type="line"/>
      <point x="629.0" y="450" type="line"/>
      <point x="629.0" y="252" type="line" smooth="yes"/>
      <point x="629.0" y="176"/>
      <point x="587.0" y="127"/>
      <point x="515.0" y="127" type="curve" smooth="yes"/>
      <point x="308.0" y="127" type="line" smooth="yes"/>
      <point x="236.0" y="127"/>
      <point x="188.0" y="176"/>
      <point x="188.0" y="260" type="curve" smooth="yes"/>
      <point x="188.0" y="535" type="line"/>
      <point x="178.0" y="535" type="line"/>
      <point x="178.0" y="260" type="line" smooth="yes"/>
      <point x="178.0" y="168"/>
      <point x="230.0" y="117"/>
    </contour>
  </outline>
</glyph>
<glyph name="uni21AA" format="2">
  <advance width="1000"/>
  <unicode hex="21AA"/>
  <outline>
    <contour>
      <point x="706.0" y="460" type="line"/>
      <point x="560.0" y="460" type="line"/>
      <point x="633.0" y="568" type="line"/>
    </contour>
    <contour>
      <point x="308.0" y="117" type="curve" smooth="yes"/>
      <point x="515.0" y="117" type="line" smooth="yes"/>
      <point x="593.0" y="117"/>
      <point x="639.0" y="170"/>
      <point x="639.0" y="252" type="curve" smooth="yes"/>
      <point x="639.0" y="450" type="line"/>
      <point x="724.0" y="450" type="line"/>
      <point x="633.0" y="586" type="line"/>
      <point x="542.0" y="450" type="line"/>
      <point x="629.0" y="450" type="line"/>
      <point x="629.0" y="252" type="line" smooth="yes"/>
      <point x="629.0" y="176"/>
      <point x="587.0" y="127"/>
      <point x="515.0" y="127" type="curve" smooth="yes"/>
      <point x="308.0" y="127" type="line" smooth="yes"/>
      <point x="236.0" y="127"/>
      <point x="188.0" y="176"/>
      <point x="188.0" y="260" type="curve" smooth="yes"/>
      <point x="188.0" y="535" type="line"/>
      <point x="178.0" y="535" type="line"/>
      <point x="178.0" y="260" type="line" smooth="yes"/>
      <point x="178.0" y="168"/>
      <point x="230.0" y="117"/>
    </contour>
  </outline>
</glyph>
<glyph name="uni21AB" format="1">
  <advance width="1000"/>
  <unicode hex="21AB"/>
  <outline>
    <contour>
      <point x="633.0" y="155" type="line"/>
      <point x="724.0" y="291" type="line"/>
      <point x="639.0" y="291" type="line"/>
      <point x="639.0" y="489" type="line" smooth="yes"/>
      <point x="639.0" y="571"/>
      <point x="593.0" y="624"/>
      <point x="515.0" y="624" type="curve" smooth="yes"/>
      <point x="308.0" y="624" type="line" smooth="yes"/>
      <point x="230.0" y="624"/>
      <point x="178.0" y="573"/>
      <point x="178.0" y="481" type="curve" smooth="yes"/>
      <point x="178.0" y="206" type="line"/>
      <point x="188.0" y="206" type="line"/>
      <point x="188.0" y="481" type="line" smooth="yes"/>
      <point x="188.0" y="565"/>
      <point x="236.0" y="614"/>
      <point x="308.0" y="614" type="curve" smooth="yes"/>
      <point x="515.0" y="614" type="line" smooth="yes"/>
      <point x="587.0" y="614"/>
      <point x="629.0" y="565"/>
      <point x="629.0" y="489" type="curve" smooth="yes"/>
      <point x="629.0" y="291" type="line"/>
      <point x="542.0" y="291" type="line"/>
    </contour>
    <contour>
      <point x="706.0" y="281" type="line"/>
      <point x="633.0" y="173" type="line"/>
      <point x="560.0" y="281" type="line"/>
    </contour>
  </outline>
</glyph>
<glyph name="uni21B0" format="1">
  <advance width="1020"/>
  <unicode hex="21B0"/>
  <outline>
    <contour>
      <point x="436.0" y="155" type="line"/>
      <point x="527.0" y="291" type="line"/>
      <point x="440.0" y="291" type="line"/>
      <point x="440.0" y="460" type="line" smooth="yes"/>
      <point x="440.0" y="536"/>
      <point x="482.0" y="585"/>
      <point x="554.0" y="585" type="curve" smooth="yes"/>
      <point x="771.0" y="585" type="line"/>
      <point x="771.0" y="595" type="line"/>
      <point x="554.0" y="595" type="line" smooth="yes"/>
      <point x="476.0" y="595"/>
      <point x="430.0" y="542"/>
      <point x="430.0" y="460" type="curve" smooth="yes"/>
      <point x="430.0" y="291" type="line"/>
      <point x="345.0" y="291" type="line"/>
    </contour>
    <contour>
      <point x="509.0" y="281" type="line"/>
      <point x="436.0" y="173" type="line"/>
      <point x="363.0" y="281" type="line"/>
    </contour>
  </outline>
</glyph>
<glyph name="uni21B0" format="2">
  <advance width="1020"/>
  <unicode hex="21B0"/>
  <outline>
    <contour>
      <point x="436.0" y="155" type="line"/>
      <point x="527.0" y="291" type="line"/>
      <point x="440.0" y="291" type="line"/>
      <point x="440.0" y="460" type="line" smooth="yes"/>
      <point x="440.0" y="536"/>
      <point x="482.0" y="585"/>
      <point x="554.0" y="585" type="curve" smooth="yes"/>
      <point x="771.0" y="585" type="line"/>
      <point x="771.0" y="595" type="line"/>
      <point x="554.0" y="595" type="line" smooth="yes"/>
      <point x="476.0" y="595"/>
      <point x="430.0" y="542"/>
      <point x="430.0" y="460" type="curve" smooth="yes"/>
      <point x="430.0" y="291" type="line"/>
      <point x="345.0" y="291" type="line"/>
    </contour>
    <contour>
      <point x="509.0" y="281" type="line"/>
      <point x="436.0" y="173" type="line"/>
      <point x="363.0" y="281" type="line"/>
    </contour>
  </outline>
</glyph>
<glyph name="uni21B1" format="1">
  <advance width="1020"/>
  <unicode hex="21B1"/>
  <outline>
    <contour>
      <point x="554.0" y="127" type="curve" smooth="yes"/>
      <point x="771.0" y="127" type="line"/>
      <point x="771.0" y="137" type="line"/>
      <point x="554.0" y="137" type="line" smooth="yes"/>
      <point x="482.0" y="137"/>
      <point x="440.0" y="186"/>
      <point x="440.0" y="262" type="curve" smooth="yes"/>
      <point x="440.0" y="431" type="line"/>
      <point x="527.0" y="431" type="line"/>
      <point x="436.0" y="567" type="line"/>
      <point x="345.0" y="431" type="line"/>
      <point x="430.0" y="431" type="line"/>
      <point x="430.0" y="262" type="line" smooth="yes"/>
      <point x="430.0" y="180"/>
      <point x="476.0" y="127"/>
    </contour>
    <contour>
      <point x="509.0" y="441" type="line"/>
      <point x="363.0" y="441" type="line"/>
      <point x="436.0" y="549" type="line"/>
    </contour>
  </outline>
</glyph>
<glyph name="uni21B1" format="2">
  <advance width="1020"/>
  <unicode hex="21B1"/>
  <outline>
    <contour>
      <point x="554.0" y="127" type="curve" smooth="yes"/>
      <point x="771.0" y="127" type="line"/>
      <point x="771.0" y="137" type="line"/>
      <point x="554.0" y="137" type="line" smooth="yes"/>
      <point x="482.0" y="137"/>
      <point x="440.0" y="186"/>
      <point x="440.0" y="262" type="curve" smooth="yes"/>
      <point x="440.0" y="431" type="line"/>
      <point x="527.0" y="431" type="line"/>
      <point x="436.0" y="567" type="line"/>
      <point x="345.0" y="431" type="line"/>
      <point x="430.0" y="431" type="line"/>
      <point x="430.0" y="262" type="line" smooth="yes"/>
      <point x="430.0" y="180"/>
      <point x="476.0" y="127"/>
    </contour>
    <contour>
      <point x="509.0" y="441" type="line"/>
      <point x="363.0" y="441" type="line"/>
      <point x="436.0" y="549" type="line"/>
    </contour>
  </outline>
</glyph>
<glyph name="uni21B2" format="1">
  <advance width="1020"/>
  <unicode hex="21B2"/>
  <outline>
    <contour>
      <point x="585.0" y="155" type="line"/>
      <point x="676.0" y="291" type="line"/>
      <point x="591.0" y="291" type="line"/>
      <point x="591.0" y="460" type="line" smooth="yes"/>
      <point x="591.0" y="542"/>
      <point x="545.0" y="595"/>
      <point x="467.0" y="595" type="curve" smooth="yes"/>
      <point x="250.0" y="595" type="line"/>
      <point x="250.0" y="585" type="line"/>
      <point x="467.0" y="585" type="line" smooth="yes"/>
      <point x="539.0" y="585"/>
      <point x="581.0" y="536"/>
      <point x="581.0" y="460" type="curve" smooth="yes"/>
      <point x="581.0" y="291" type="line"/>
      <point x="494.0" y="291" type="line"/>
    </contour>
    <contour>
      <point x="658.0" y="281" type="line"/>
      <point x="585.0" y="173" type="line"/>
      <point x="512.0" y="281" type="line"/>
    </contour>
  </outline>
</glyph>
<glyph name="uni21B2" format="2">
  <advance width="1020"/>
  <unicode hex="21B2"/>
  <outline>
    <contour>
      <point x="585.0" y="155" type="line"/>
      <point x="676.0" y="291" type="line"/>
      <point x="591.0" y="291" type="line"/>
      <point x="591.0" y="460" type="line" smooth="yes"/>
      <point x="591.0" y="542"/>
      <point x="545.0" y="595"/>
      <point x="467.0" y="595" type="curve" smooth="yes"/>
      <point x="250.0" y="595" type="line"/>
      <point x="250.0" y="585" type="line"/>
      <point x="467.0" y="585" type="line" smooth="yes"/>
      <point x="539.0" y="585"/>
      <point x="581.0" y="536"/>
      <point x="581.0" y="460" type="curve" smooth="yes"/>
      <point x="581.0" y="291" type="line"/>
      <point x="494.0" y="291" type="line"/>
    </contour>
    <contour>
      <point x="658.0" y="281" type="line"/>
      <point x="585.0" y="173" type="line"/>
      <point x="512.0" y="281" type="line"/>
    </contour>
  </outline>
</glyph>
<glyph name="uni21B3" format="2">
  <advance width="1020"/>
  <unicode hex="21B3"/>
  <outline>
    <contour>
      <point x="258.0" y="107" type="line"/>
      <point x="475.0" y="107" type="line" smooth="yes"/>
      <point x="553.0" y="107"/>
      <point x="599.0" y="160"/>
      <point x="599.0" y="242" type="curve" smooth="yes"/>
      <point x="599.0" y="411" type="line"/>
      <point x="684.0" y="411" type="line"/>
      <point x="593.0" y="547" type="line"/>
      <point x="502.0" y="411" type="line"/>
      <point x="589.0" y="411" type="line"/>
      <point x="589.0" y="242" type="line" smooth="yes"/>
      <point x="589.0" y="166"/>
      <point x="547.0" y="117"/>
      <point x="475.0" y="117" type="curve" smooth="yes"/>
      <point x="258.0" y="117" type="line"/>
    </contour>
    <contour>
      <point x="666.0" y="421" type="line"/>
      <point x="520.0" y="421" type="line"/>
      <point x="593.0" y="529" type="line"/>
    </contour>
  </outline>
</glyph>
<glyph name="partialdiff" format="1">
  <advance width="861"/>
  <unicode hex="2202"/>
  <outline>
    <contour>
      <point x="514.0" y="169" type="curve" smooth="yes"/>
      <point x="602.0" y="169" type="line" smooth="yes"/>
      <point x="703.0" y="169"/>
      <point x="718.0" y="248"/>
      <point x="718.0" y="348" type="curve" smooth="yes"/>
      <point x="718.0" y="456"/>
      <point x="705.0" y="541"/>
      <point x="602.0" y="541" type="curve" smooth="yes"/>
      <point x="274.0" y="541" type="line" smooth="yes"/>
      <point x="185.0" y="541"/>
      <point x="159.0" y="492"/>
      <point x="159.0" y="407" type="curve" smooth="yes"/>
      <point x="159.0" y="231" type="line"/>
      <point x="169.0" y="231" type="line"/>
      <point x="169.0" y="407" type="line" smooth="yes"/>
      <point x="169.0" y="484"/>
      <point x="191.0" y="531"/>
      <point x="274.0" y="531" type="curve" smooth="yes"/>
      <point x="465.0" y="531" type="line"/>
      <point x="409.0" y="505"/>
      <point x="406.0" y="427"/>
      <point x="406.0" y="345" type="curve" smooth="yes"/>
      <point x="406.0" y="247"/>
      <point x="411.0" y="169"/>
    </contour>
    <contour>
      <point x="602.0" y="179" type="curve" smooth="yes"/>
      <point x="514.0" y="179" type="line" smooth="yes"/>
      <point x="417.0" y="179"/>
      <point x="416.0" y="257"/>
      <point x="416.0" y="345" type="curve" smooth="yes"/>
      <point x="416.0" y="434"/>
      <point x="414.0" y="531"/>
      <point x="511.0" y="531" type="curve"/>
      <point x="602.0" y="531" type="line" smooth="yes"/>
      <point x="699.0" y="531"/>
      <point x="708.0" y="446"/>
      <point x="708.0" y="348" type="curve" smooth="yes"/>
      <point x="708.0" y="256"/>
      <point x="697.0" y="179"/>
    </contour>
  </outline>
</glyph>
<glyph name="Delta" format="1">
  <advance width="880"/>
  <unicode hex="2206"/>
  <unicode hex="0394"/>
  <outline>
    <contour>
      <point x="607.0" y="157" type="curve" smooth="yes"/>
      <point x="710.0" y="157" type="line"/>
      <point x="710.0" y="559" type="line"/>
      <point x="607.0" y="559" type="line" smooth="yes"/>
      <point x="569.0" y="559"/>
      <point x="536.0" y="554"/>
      <point x="515.0" y="549" type="curve" smooth="yes"/>
      <point x="265.0" y="486" type="line" smooth="yes"/>
      <point x="176.0" y="464"/>
      <point x="175.0" y="444"/>
      <point x="175.0" y="382" type="curve" smooth="yes"/>
      <point x="175.0" y="331" type="line" smooth="yes"/>
      <point x="175.0" y="269"/>
      <point x="176.0" y="248"/>
      <point x="265.0" y="227" type="curve" smooth="yes"/>
      <point x="512.0" y="168" type="line" smooth="yes"/>
      <point x="536.0" y="162"/>
      <point x="569.0" y="157"/>
    </contour>
    <contour>
      <point x="607.0" y="167" type="line" smooth="yes"/>
      <point x="569.0" y="167"/>
      <point x="538.0" y="172"/>
      <point x="514.0" y="178" type="curve" smooth="yes"/>
      <point x="267.0" y="237" type="line" smooth="yes"/>
      <point x="186.0" y="256"/>
      <point x="185.0" y="275"/>
      <point x="185.0" y="331" type="curve" smooth="yes"/>
      <point x="185.0" y="382" type="line" smooth="yes"/>
      <point x="185.0" y="438"/>
      <point x="186.0" y="456"/>
      <point x="267.0" y="476" type="curve" smooth="yes"/>
      <point x="517.0" y="539" type="line" smooth="yes"/>
      <point x="538.0" y="544"/>
      <point x="569.0" y="549"/>
      <point x="607.0" y="549" type="curve" smooth="yes"/>
      <point x="700.0" y="549" type="line"/>
      <point x="700.0" y="167" type="line"/>
    </contour>
  </outline>
</glyph>
<glyph name="summation" format="1">
  <advance width="970"/>
  <unicode hex="2211"/>
  <outline>
    <contour>
      <point x="165.0" y="531" type="line"/>
      <point x="165.0" y="235" type="line" smooth="yes"/>
      <point x="165.0" y="211"/>
      <point x="184.0" y="194"/>
      <point x="206.0" y="194" type="curve" smooth="yes"/>
      <point x="221.0" y="194" type="line" smooth="yes"/>
      <point x="247.0" y="194"/>
      <point x="258.0" y="202"/>
      <point x="278.0" y="223" type="curve" smooth="yes"/>
      <point x="442.0" y="391" type="line" smooth="yes"/>
      <point x="451.0" y="400"/>
      <point x="457.0" y="405"/>
      <point x="467.0" y="405" type="curve" smooth="yes"/>
      <point x="473.0" y="405" type="line" smooth="yes"/>
      <point x="483.0" y="405"/>
      <point x="488.0" y="400"/>
      <point x="500.0" y="389" type="curve" smooth="yes"/>
      <point x="702.0" y="205" type="line" smooth="yes"/>
      <point x="720.0" y="188"/>
      <point x="729.0" y="176"/>
      <point x="750.0" y="176" type="curve" smooth="yes"/>
      <point x="765.0" y="176" type="line" smooth="yes"/>
      <point x="787.0" y="176"/>
      <point x="799.0" y="188"/>
      <point x="799.0" y="215" type="curve" smooth="yes"/>
      <point x="799.0" y="549" type="line"/>
      <point x="789.0" y="549" type="line"/>
      <point x="789.0" y="215" type="line" smooth="yes"/>
      <point x="789.0" y="196"/>
      <point x="781.0" y="186"/>
      <point x="765.0" y="186" type="curve" smooth="yes"/>
      <point x="750.0" y="186" type="line" smooth="yes"/>
      <point x="731.0" y="186"/>
      <point x="725.0" y="198"/>
      <point x="708.0" y="213" type="curve" smooth="yes"/>
      <point x="506.0" y="397" type="line" smooth="yes"/>
      <point x="492.0" y="410"/>
      <point x="485.0" y="415"/>
      <point x="473.0" y="415" type="curve" smooth="yes"/>
      <point x="467.0" y="415" type="line" smooth="yes"/>
      <point x="455.0" y="415"/>
      <point x="447.0" y="410"/>
      <point x="434.0" y="397" type="curve" smooth="yes"/>
      <point x="270.0" y="229" type="line" smooth="yes"/>
      <point x="254.0" y="212"/>
      <point x="243.0" y="204"/>
      <point x="221.0" y="204" type="curve" smooth="yes"/>
      <point x="206.0" y="204" type="line" smooth="yes"/>
      <point x="190.0" y="204"/>
      <point x="175.0" y="217"/>
      <point x="175.0" y="235" type="curve" smooth="yes"/>
      <point x="175.0" y="531" type="line"/>
    </contour>
  </outline>
</glyph>
<glyph name="minus" format="2">
  <advance width="346"/>
  <unicode hex="2212"/>
  <outline>
    <contour>
      <point x="178.0" y="153" type="line"/>
      <point x="178.0" y="567" type="line"/>
      <point x="168.0" y="567" type="line"/>
      <point x="168.0" y="153" type="line"/>
    </contour>
  </outline>
</glyph>
